<?xml version="1.0" encoding="UTF-8"?>
<svg xmlns="http://www.w3.org/2000/svg" xmlns:xlink="http://www.w3.org/1999/xlink" width="396" height="252" viewBox="0 0 396 252">
<defs>
<g>
<g id="glyph-0-0">
<path d="M 4.109375 0 L 5.921875 -5.375 L 5.921875 0 L 6.6875 0 L 6.6875 -6.40625 L 5.5625 -6.40625 L 3.6875 -0.828125 L 1.796875 -6.40625 L 0.65625 -6.40625 L 0.65625 0 L 1.4375 0 L 1.4375 -5.375 L 3.25 0 Z M 4.109375 0 "/>
</g>
<g id="glyph-0-1">
<path d="M 4.703125 -0.4375 C 4.625 -0.40625 4.59375 -0.40625 4.546875 -0.40625 C 4.296875 -0.40625 4.15625 -0.546875 4.15625 -0.78125 L 4.15625 -3.484375 C 4.15625 -4.296875 3.546875 -4.734375 2.421875 -4.734375 C 1.734375 -4.734375 1.203125 -4.546875 0.890625 -4.203125 C 0.671875 -3.96875 0.59375 -3.703125 0.578125 -3.25 L 1.3125 -3.25 C 1.375 -3.8125 1.703125 -4.0625 2.390625 -4.0625 C 3.0625 -4.0625 3.421875 -3.8125 3.421875 -3.375 L 3.421875 -3.1875 C 3.40625 -2.875 3.25 -2.75 2.65625 -2.671875 C 1.625 -2.546875 1.453125 -2.5 1.171875 -2.390625 C 0.640625 -2.15625 0.375 -1.765625 0.375 -1.15625 C 0.375 -0.328125 0.953125 0.203125 1.875 0.203125 C 2.46875 0.203125 2.921875 0 3.453125 -0.46875 C 3.5 0 3.734375 0.203125 4.203125 0.203125 C 4.359375 0.203125 4.453125 0.1875 4.703125 0.125 Z M 3.421875 -1.453125 C 3.421875 -1.203125 3.359375 -1.0625 3.125 -0.859375 C 2.828125 -0.578125 2.46875 -0.4375 2.046875 -0.4375 C 1.46875 -0.4375 1.140625 -0.71875 1.140625 -1.171875 C 1.140625 -1.65625 1.453125 -1.90625 2.25 -2.015625 C 3.03125 -2.125 3.171875 -2.15625 3.421875 -2.28125 Z M 3.421875 -1.453125 "/>
</g>
<g id="glyph-0-2">
<path d="M 1.34375 -6.40625 L 0.59375 -6.40625 L 0.59375 0 L 1.34375 0 Z M 1.34375 -6.40625 "/>
</g>
<g id="glyph-0-3">
<path d="M 3.40625 -4.609375 L 2.140625 -1.015625 L 0.953125 -4.609375 L 0.171875 -4.609375 L 1.734375 0.015625 L 1.453125 0.75 C 1.328125 1.078125 1.171875 1.203125 0.859375 1.203125 C 0.734375 1.203125 0.640625 1.171875 0.46875 1.140625 L 0.46875 1.796875 C 0.625 1.875 0.78125 1.921875 0.96875 1.921875 C 1.203125 1.921875 1.453125 1.84375 1.65625 1.703125 C 1.875 1.53125 2.015625 1.34375 2.15625 0.96875 L 4.203125 -4.609375 Z M 3.40625 -4.609375 "/>
</g>
<g id="glyph-0-4">
<path d="M 3.859375 -3.328125 C 3.84375 -4.234375 3.25 -4.734375 2.1875 -4.734375 C 1.109375 -4.734375 0.40625 -4.1875 0.40625 -3.328125 C 0.40625 -2.609375 0.78125 -2.265625 1.875 -2 L 2.5625 -1.84375 C 3.0625 -1.71875 3.265625 -1.53125 3.265625 -1.203125 C 3.265625 -0.765625 2.84375 -0.46875 2.203125 -0.46875 C 1.796875 -0.46875 1.46875 -0.59375 1.28125 -0.78125 C 1.171875 -0.921875 1.125 -1.046875 1.078125 -1.375 L 0.296875 -1.375 C 0.328125 -0.3125 0.9375 0.203125 2.140625 0.203125 C 3.296875 0.203125 4.03125 -0.375 4.03125 -1.265625 C 4.03125 -1.9375 3.65625 -2.328125 2.734375 -2.546875 L 2.03125 -2.703125 C 1.4375 -2.84375 1.171875 -3.046875 1.171875 -3.375 C 1.171875 -3.796875 1.5625 -4.0625 2.15625 -4.0625 C 2.75 -4.0625 3.0625 -3.8125 3.078125 -3.328125 Z M 3.859375 -3.328125 "/>
</g>
<g id="glyph-0-5">
<path d="M 1.3125 -4.609375 L 0.59375 -4.609375 L 0.59375 0 L 1.3125 0 Z M 1.3125 -6.40625 L 0.578125 -6.40625 L 0.578125 -5.484375 L 1.3125 -5.484375 Z M 1.3125 -6.40625 "/>
</g>
<g id="glyph-0-6">
<path d="M 2.421875 -6.359375 C 1.84375 -6.359375 1.3125 -6.09375 0.984375 -5.671875 C 0.578125 -5.109375 0.375 -4.25 0.375 -3.078125 C 0.375 -0.9375 1.078125 0.203125 2.421875 0.203125 C 3.734375 0.203125 4.453125 -0.9375 4.453125 -3.03125 C 4.453125 -4.25 4.265625 -5.078125 3.859375 -5.671875 C 3.53125 -6.109375 3.015625 -6.359375 2.421875 -6.359375 Z M 2.421875 -5.671875 C 3.25 -5.671875 3.671875 -4.828125 3.671875 -3.09375 C 3.671875 -1.28125 3.265625 -0.4375 2.40625 -0.4375 C 1.578125 -0.4375 1.171875 -1.3125 1.171875 -3.0625 C 1.171875 -4.828125 1.578125 -5.671875 2.421875 -5.671875 Z M 2.421875 -5.671875 "/>
</g>
<g id="glyph-0-7">
<path d="M 1.75 -6.03125 C 0.921875 -6.03125 0.25 -5.34375 0.25 -4.515625 C 0.25 -3.6875 0.921875 -3.015625 1.765625 -3.015625 C 2.578125 -3.015625 3.25 -3.6875 3.25 -4.5 C 3.25 -5.359375 2.59375 -6.03125 1.75 -6.03125 Z M 1.75 -5.40625 C 2.25 -5.40625 2.640625 -5.015625 2.640625 -4.515625 C 2.640625 -4.03125 2.25 -3.640625 1.765625 -3.640625 C 1.265625 -3.640625 0.859375 -4.03125 0.859375 -4.515625 C 0.859375 -5.015625 1.265625 -5.40625 1.75 -5.40625 Z M 5.359375 -6.234375 L 1.875 0.171875 L 2.46875 0.171875 L 5.9375 -6.234375 Z M 6.046875 -2.828125 C 5.21875 -2.828125 4.5625 -2.15625 4.5625 -1.34375 C 4.5625 -0.5 5.21875 0.171875 6.0625 0.171875 C 6.875 0.171875 7.5625 -0.5 7.5625 -1.3125 C 7.5625 -2.15625 6.890625 -2.828125 6.046875 -2.828125 Z M 6.046875 -2.21875 C 6.546875 -2.21875 6.953125 -1.828125 6.953125 -1.3125 C 6.953125 -0.84375 6.546875 -0.453125 6.0625 -0.453125 C 5.5625 -0.453125 5.15625 -0.84375 5.15625 -1.34375 C 5.15625 -1.828125 5.5625 -2.21875 6.046875 -2.21875 Z M 6.046875 -2.21875 "/>
</g>
<g id="glyph-0-8">
<path d="M 4.453125 -0.765625 L 1.171875 -0.765625 C 1.25 -1.296875 1.53125 -1.625 2.296875 -2.09375 L 3.171875 -2.59375 C 4.046875 -3.0625 4.5 -3.71875 4.5 -4.5 C 4.5 -5.03125 4.28125 -5.53125 3.921875 -5.875 C 3.546875 -6.203125 3.09375 -6.359375 2.5 -6.359375 C 1.703125 -6.359375 1.125 -6.078125 0.78125 -5.53125 C 0.546875 -5.203125 0.453125 -4.796875 0.4375 -4.15625 L 1.21875 -4.15625 C 1.234375 -4.59375 1.296875 -4.84375 1.40625 -5.0625 C 1.59375 -5.4375 2 -5.6875 2.46875 -5.6875 C 3.171875 -5.6875 3.703125 -5.171875 3.703125 -4.484375 C 3.703125 -3.96875 3.40625 -3.53125 2.859375 -3.21875 L 2.046875 -2.75 C 0.75 -2 0.375 -1.40625 0.296875 -0.015625 L 4.453125 -0.015625 Z M 4.453125 -0.765625 "/>
</g>
<g id="glyph-0-9">
<path d="M 2.875 -1.546875 L 2.875 0 L 3.65625 0 L 3.65625 -1.546875 L 4.578125 -1.546875 L 4.578125 -2.234375 L 3.65625 -2.234375 L 3.65625 -6.359375 L 3.078125 -6.359375 L 0.25 -2.359375 L 0.25 -1.546875 Z M 2.875 -2.234375 L 0.921875 -2.234375 L 2.875 -5.046875 Z M 2.875 -2.234375 "/>
</g>
<g id="glyph-0-10">
<path d="M 4.375 -4.703125 C 4.234375 -5.75 3.5625 -6.359375 2.609375 -6.359375 C 1.921875 -6.359375 1.3125 -6.03125 0.9375 -5.453125 C 0.546875 -4.828125 0.375 -4.0625 0.375 -2.90625 C 0.375 -1.828125 0.53125 -1.15625 0.90625 -0.59375 C 1.234375 -0.078125 1.78125 0.203125 2.46875 0.203125 C 3.65625 0.203125 4.515625 -0.6875 4.515625 -1.921875 C 4.515625 -3.09375 3.71875 -3.921875 2.609375 -3.921875 C 1.984375 -3.921875 1.5 -3.6875 1.171875 -3.234375 C 1.171875 -4.796875 1.671875 -5.671875 2.5625 -5.671875 C 3.109375 -5.671875 3.484375 -5.328125 3.609375 -4.703125 Z M 2.5 -3.234375 C 3.25 -3.234375 3.71875 -2.703125 3.71875 -1.859375 C 3.71875 -1.0625 3.1875 -0.484375 2.484375 -0.484375 C 1.765625 -0.484375 1.21875 -1.09375 1.21875 -1.90625 C 1.21875 -2.6875 1.734375 -3.234375 2.5 -3.234375 Z M 2.5 -3.234375 "/>
</g>
<g id="glyph-0-11">
<path d="M 3.4375 -3.359375 C 4.09375 -3.75 4.296875 -4.0625 4.296875 -4.65625 C 4.296875 -5.671875 3.53125 -6.359375 2.421875 -6.359375 C 1.3125 -6.359375 0.546875 -5.671875 0.546875 -4.671875 C 0.546875 -4.0625 0.75 -3.75 1.390625 -3.359375 C 0.671875 -2.984375 0.328125 -2.46875 0.328125 -1.765625 C 0.328125 -0.609375 1.171875 0.203125 2.421875 0.203125 C 3.65625 0.203125 4.515625 -0.609375 4.515625 -1.765625 C 4.515625 -2.46875 4.15625 -2.984375 3.4375 -3.359375 Z M 2.421875 -5.671875 C 3.078125 -5.671875 3.5 -5.28125 3.5 -4.640625 C 3.5 -4.046875 3.0625 -3.65625 2.421875 -3.65625 C 1.765625 -3.65625 1.34375 -4.046875 1.34375 -4.65625 C 1.34375 -5.28125 1.765625 -5.671875 2.421875 -5.671875 Z M 2.421875 -3 C 3.1875 -3 3.71875 -2.484375 3.71875 -1.75 C 3.71875 -0.984375 3.203125 -0.484375 2.40625 -0.484375 C 1.640625 -0.484375 1.125 -1 1.125 -1.734375 C 1.125 -2.5 1.640625 -3 2.421875 -3 Z M 2.421875 -3 "/>
</g>
<g id="glyph-0-12">
<path d="M 2.28125 -4.53125 L 2.28125 0 L 3.046875 0 L 3.046875 -6.359375 L 2.546875 -6.359375 C 2.265625 -5.390625 2.09375 -5.25 0.890625 -5.09375 L 0.890625 -4.53125 Z M 2.28125 -4.53125 "/>
</g>
<g id="glyph-0-13">
<path d="M 1.9375 -2.921875 L 2.359375 -2.921875 C 3.203125 -2.921875 3.65625 -2.53125 3.65625 -1.765625 C 3.65625 -0.96875 3.171875 -0.484375 2.375 -0.484375 C 1.515625 -0.484375 1.109375 -0.921875 1.0625 -1.84375 L 0.28125 -1.84375 C 0.3125 -1.34375 0.40625 -1 0.546875 -0.71875 C 0.875 -0.109375 1.484375 0.203125 2.34375 0.203125 C 3.625 0.203125 4.453125 -0.578125 4.453125 -1.78125 C 4.453125 -2.59375 4.140625 -3.03125 3.390625 -3.296875 C 3.96875 -3.53125 4.265625 -3.96875 4.265625 -4.609375 C 4.265625 -5.703125 3.546875 -6.359375 2.359375 -6.359375 C 1.109375 -6.359375 0.4375 -5.65625 0.40625 -4.3125 L 1.1875 -4.3125 C 1.203125 -4.703125 1.234375 -4.921875 1.328125 -5.109375 C 1.5 -5.46875 1.890625 -5.6875 2.375 -5.6875 C 3.0625 -5.6875 3.46875 -5.265625 3.46875 -4.578125 C 3.46875 -4.140625 3.3125 -3.859375 2.96875 -3.71875 C 2.765625 -3.625 2.484375 -3.59375 1.9375 -3.578125 Z M 1.9375 -2.921875 "/>
</g>
<g id="glyph-0-14">
<path d="M 4.1875 -6.234375 L 0.96875 -6.234375 L 0.5 -2.84375 L 1.21875 -2.84375 C 1.578125 -3.265625 1.875 -3.421875 2.359375 -3.421875 C 3.203125 -3.421875 3.71875 -2.84375 3.71875 -1.921875 C 3.71875 -1.03125 3.203125 -0.484375 2.359375 -0.484375 C 1.6875 -0.484375 1.265625 -0.828125 1.078125 -1.53125 L 0.3125 -1.53125 C 0.40625 -1.015625 0.5 -0.78125 0.6875 -0.546875 C 1.03125 -0.078125 1.671875 0.203125 2.375 0.203125 C 3.640625 0.203125 4.515625 -0.71875 4.515625 -2.03125 C 4.515625 -3.265625 3.6875 -4.109375 2.5 -4.109375 C 2.0625 -4.109375 1.703125 -4 1.34375 -3.734375 L 1.59375 -5.46875 L 4.1875 -5.46875 Z M 4.1875 -6.234375 "/>
</g>
<g id="glyph-0-15">
<path d="M 4.578125 -6.234375 L 0.40625 -6.234375 L 0.40625 -5.46875 L 3.78125 -5.46875 C 2.28125 -3.359375 1.6875 -2.046875 1.21875 0 L 2.046875 0 C 2.390625 -2 3.171875 -3.71875 4.578125 -5.59375 Z M 4.578125 -6.234375 "/>
</g>
<g id="glyph-1-0">
<path d="M 2.1875 -7.53125 C 1.15625 -7.53125 0.3125 -6.6875 0.3125 -5.65625 C 0.3125 -4.625 1.15625 -3.765625 2.203125 -3.765625 C 3.21875 -3.765625 4.0625 -4.625 4.0625 -5.625 C 4.0625 -6.703125 3.25 -7.53125 2.1875 -7.53125 Z M 2.1875 -6.765625 C 2.8125 -6.765625 3.3125 -6.265625 3.3125 -5.640625 C 3.3125 -5.03125 2.8125 -4.546875 2.203125 -4.546875 C 1.578125 -4.546875 1.078125 -5.03125 1.078125 -5.65625 C 1.078125 -6.265625 1.578125 -6.765625 2.1875 -6.765625 Z M 6.703125 -7.796875 L 2.359375 0.21875 L 3.078125 0.21875 L 7.421875 -7.796875 Z M 7.5625 -3.546875 C 6.53125 -3.546875 5.703125 -2.703125 5.703125 -1.671875 C 5.703125 -0.625 6.53125 0.203125 7.578125 0.203125 C 8.609375 0.203125 9.453125 -0.625 9.453125 -1.65625 C 9.453125 -2.703125 8.625 -3.546875 7.5625 -3.546875 Z M 7.5625 -2.765625 C 8.1875 -2.765625 8.6875 -2.28125 8.6875 -1.65625 C 8.6875 -1.0625 8.1875 -0.5625 7.578125 -0.5625 C 6.953125 -0.5625 6.453125 -1.0625 6.453125 -1.671875 C 6.453125 -2.28125 6.953125 -2.765625 7.5625 -2.765625 Z M 7.5625 -2.765625 "/>
</g>
<g id="glyph-1-1">
</g>
<g id="glyph-1-2">
<path d="M 0.765625 -5.765625 L 0.765625 0 L 1.6875 0 L 1.6875 -2.984375 C 1.6875 -4.375 2.265625 -5 3.53125 -4.96875 L 3.53125 -5.890625 C 3.375 -5.921875 3.28125 -5.921875 3.171875 -5.921875 C 2.578125 -5.921875 2.140625 -5.578125 1.609375 -4.71875 L 1.609375 -5.765625 Z M 0.765625 -5.765625 "/>
</g>
<g id="glyph-1-3">
<path d="M 5.640625 -2.578125 C 5.640625 -3.453125 5.578125 -3.984375 5.40625 -4.40625 C 5.03125 -5.359375 4.15625 -5.921875 3.078125 -5.921875 C 1.46875 -5.921875 0.4375 -4.703125 0.4375 -2.8125 C 0.4375 -0.90625 1.4375 0.25 3.0625 0.25 C 4.375 0.25 5.296875 -0.5 5.515625 -1.75 L 4.59375 -1.75 C 4.34375 -0.984375 3.828125 -0.59375 3.09375 -0.59375 C 2.515625 -0.59375 2.015625 -0.859375 1.703125 -1.34375 C 1.484375 -1.671875 1.40625 -2 1.390625 -2.578125 Z M 1.421875 -3.328125 C 1.5 -4.390625 2.140625 -5.078125 3.0625 -5.078125 C 4 -5.078125 4.65625 -4.359375 4.65625 -3.328125 Z M 1.421875 -3.328125 "/>
</g>
<g id="glyph-1-4">
<path d="M 1.671875 -8.015625 L 0.75 -8.015625 L 0.75 0 L 1.671875 0 Z M 1.671875 -8.015625 "/>
</g>
<g id="glyph-1-5">
<path d="M 3.140625 0 L 5.34375 -5.765625 L 4.3125 -5.765625 L 2.6875 -1.09375 L 1.140625 -5.765625 L 0.109375 -5.765625 L 2.140625 0 Z M 3.140625 0 "/>
</g>
<g id="glyph-1-6">
<path d="M 5.890625 -0.53125 C 5.78125 -0.515625 5.734375 -0.515625 5.6875 -0.515625 C 5.375 -0.515625 5.1875 -0.6875 5.1875 -0.96875 L 5.1875 -4.359375 C 5.1875 -5.375 4.4375 -5.921875 3.03125 -5.921875 C 2.171875 -5.921875 1.5 -5.6875 1.109375 -5.265625 C 0.84375 -4.96875 0.734375 -4.625 0.71875 -4.0625 L 1.640625 -4.0625 C 1.71875 -4.765625 2.140625 -5.078125 2.984375 -5.078125 C 3.828125 -5.078125 4.28125 -4.78125 4.28125 -4.21875 L 4.28125 -3.984375 C 4.265625 -3.59375 4.0625 -3.4375 3.328125 -3.34375 C 2.03125 -3.171875 1.828125 -3.140625 1.46875 -2.984375 C 0.796875 -2.703125 0.46875 -2.203125 0.46875 -1.453125 C 0.46875 -0.40625 1.1875 0.25 2.359375 0.25 C 3.078125 0.25 3.65625 0 4.3125 -0.59375 C 4.375 0 4.65625 0.25 5.265625 0.25 C 5.453125 0.25 5.578125 0.234375 5.890625 0.15625 Z M 4.28125 -1.8125 C 4.28125 -1.5 4.1875 -1.3125 3.921875 -1.0625 C 3.546875 -0.71875 3.09375 -0.546875 2.546875 -0.546875 C 1.84375 -0.546875 1.421875 -0.890625 1.421875 -1.46875 C 1.421875 -2.078125 1.8125 -2.390625 2.8125 -2.53125 C 3.78125 -2.65625 3.96875 -2.703125 4.28125 -2.84375 Z M 4.28125 -1.8125 "/>
</g>
<g id="glyph-1-7">
<path d="M 0.765625 -5.765625 L 0.765625 0 L 1.6875 0 L 1.6875 -3.171875 C 1.6875 -4.359375 2.3125 -5.125 3.25 -5.125 C 3.984375 -5.125 4.4375 -4.6875 4.4375 -4 L 4.4375 0 L 5.359375 0 L 5.359375 -4.359375 C 5.359375 -5.3125 4.640625 -5.921875 3.53125 -5.921875 C 2.671875 -5.921875 2.125 -5.59375 1.609375 -4.796875 L 1.609375 -5.765625 Z M 0.765625 -5.765625 "/>
</g>
<g id="glyph-1-8">
<path d="M 5.1875 -3.828125 C 5.140625 -4.390625 5.015625 -4.75 4.796875 -5.078125 C 4.40625 -5.609375 3.703125 -5.921875 2.90625 -5.921875 C 1.34375 -5.921875 0.34375 -4.703125 0.34375 -2.78125 C 0.34375 -0.921875 1.328125 0.25 2.890625 0.25 C 4.265625 0.25 5.140625 -0.578125 5.25 -1.984375 L 4.328125 -1.984375 C 4.171875 -1.0625 3.703125 -0.59375 2.921875 -0.59375 C 1.90625 -0.59375 1.296875 -1.421875 1.296875 -2.78125 C 1.296875 -4.21875 1.890625 -5.078125 2.890625 -5.078125 C 3.65625 -5.078125 4.140625 -4.625 4.25 -3.828125 Z M 5.1875 -3.828125 "/>
</g>
<g id="glyph-1-9">
<path d="M 5.296875 0 L 5.296875 -5.765625 L 4.390625 -5.765625 L 4.390625 -2.5 C 4.390625 -1.3125 3.765625 -0.546875 2.8125 -0.546875 C 2.09375 -0.546875 1.625 -0.984375 1.625 -1.6875 L 1.625 -5.765625 L 0.71875 -5.765625 L 0.71875 -1.3125 C 0.71875 -0.359375 1.4375 0.25 2.546875 0.25 C 3.40625 0.25 3.9375 -0.046875 4.484375 -0.796875 L 4.484375 0 Z M 5.296875 0 "/>
</g>
<g id="glyph-1-10">
<path d="M 0.765625 -5.765625 L 0.765625 0 L 1.6875 0 L 1.6875 -3.625 C 1.6875 -4.453125 2.296875 -5.125 3.046875 -5.125 C 3.734375 -5.125 4.109375 -4.703125 4.109375 -3.96875 L 4.109375 0 L 5.03125 0 L 5.03125 -3.625 C 5.03125 -4.453125 5.640625 -5.125 6.390625 -5.125 C 7.0625 -5.125 7.453125 -4.703125 7.453125 -3.96875 L 7.453125 0 L 8.375 0 L 8.375 -4.328125 C 8.375 -5.359375 7.78125 -5.921875 6.703125 -5.921875 C 5.9375 -5.921875 5.484375 -5.703125 4.9375 -5.046875 C 4.59375 -5.671875 4.140625 -5.921875 3.390625 -5.921875 C 2.625 -5.921875 2.09375 -5.640625 1.609375 -4.953125 L 1.609375 -5.765625 Z M 0.765625 -5.765625 "/>
</g>
<g id="glyph-1-11">
<path d="M 2.796875 -5.765625 L 1.84375 -5.765625 L 1.84375 -7.34375 L 0.9375 -7.34375 L 0.9375 -5.765625 L 0.15625 -5.765625 L 0.15625 -5.015625 L 0.9375 -5.015625 L 0.9375 -0.65625 C 0.9375 -0.0625 1.328125 0.25 2.046875 0.25 C 2.28125 0.25 2.484375 0.234375 2.796875 0.171875 L 2.796875 -0.59375 C 2.65625 -0.5625 2.546875 -0.546875 2.359375 -0.546875 C 1.953125 -0.546875 1.84375 -0.65625 1.84375 -1.0625 L 1.84375 -5.015625 L 2.796875 -5.015625 Z M 2.796875 -5.765625 "/>
</g>
<g id="glyph-1-12">
<path d="M 5.4375 -8.015625 L 4.53125 -8.015625 L 4.53125 -5.03125 C 4.140625 -5.625 3.53125 -5.921875 2.765625 -5.921875 C 1.265625 -5.921875 0.28125 -4.734375 0.28125 -2.890625 C 0.28125 -0.953125 1.234375 0.25 2.796875 0.25 C 3.59375 0.25 4.140625 -0.046875 4.625 -0.765625 L 4.625 0 L 5.4375 0 Z M 2.921875 -5.078125 C 3.90625 -5.078125 4.53125 -4.203125 4.53125 -2.8125 C 4.53125 -1.484375 3.890625 -0.609375 2.921875 -0.609375 C 1.90625 -0.609375 1.25 -1.5 1.25 -2.84375 C 1.25 -4.1875 1.90625 -5.078125 2.921875 -5.078125 Z M 2.921875 -5.078125 "/>
</g>
<g id="glyph-2-0">
<path d="M -2.40625 -5.21875 L 0 -6.03125 L 0 -7.1875 L -8.015625 -4.359375 L -8.015625 -3.046875 L 0 -0.1875 L 0 -1.28125 L -2.40625 -2.125 Z M -3.265625 -4.921875 L -3.265625 -2.375 L -6.921875 -3.703125 Z M -3.265625 -4.921875 "/>
</g>
<g id="glyph-2-1">
<path d="M -3.828125 -5.1875 C -4.390625 -5.140625 -4.75 -5.015625 -5.078125 -4.796875 C -5.609375 -4.40625 -5.921875 -3.703125 -5.921875 -2.90625 C -5.921875 -1.34375 -4.703125 -0.34375 -2.78125 -0.34375 C -0.921875 -0.34375 0.25 -1.328125 0.25 -2.890625 C 0.25 -4.265625 -0.578125 -5.140625 -1.984375 -5.25 L -1.984375 -4.328125 C -1.0625 -4.171875 -0.59375 -3.703125 -0.59375 -2.921875 C -0.59375 -1.90625 -1.421875 -1.296875 -2.78125 -1.296875 C -4.21875 -1.296875 -5.078125 -1.890625 -5.078125 -2.890625 C -5.078125 -3.65625 -4.625 -4.140625 -3.828125 -4.25 Z M -3.828125 -5.1875 "/>
</g>
<g id="glyph-2-2">
<path d="M -5.765625 -2.796875 L -5.765625 -1.84375 L -7.34375 -1.84375 L -7.34375 -0.9375 L -5.765625 -0.9375 L -5.765625 -0.15625 L -5.015625 -0.15625 L -5.015625 -0.9375 L -0.65625 -0.9375 C -0.0625 -0.9375 0.25 -1.328125 0.25 -2.046875 C 0.25 -2.28125 0.234375 -2.484375 0.171875 -2.796875 L -0.59375 -2.796875 C -0.5625 -2.65625 -0.546875 -2.546875 -0.546875 -2.359375 C -0.546875 -1.953125 -0.65625 -1.84375 -1.0625 -1.84375 L -5.015625 -1.84375 L -5.015625 -2.796875 Z M -5.765625 -2.796875 "/>
</g>
<g id="glyph-2-3">
<path d="M -4.15625 -4.8125 C -5.296875 -4.8125 -5.921875 -4.0625 -5.921875 -2.734375 C -5.921875 -1.390625 -5.234375 -0.515625 -4.171875 -0.515625 C -3.265625 -0.515625 -2.84375 -0.984375 -2.515625 -2.34375 L -2.296875 -3.203125 C -2.140625 -3.84375 -1.90625 -4.09375 -1.5 -4.09375 C -0.953125 -4.09375 -0.59375 -3.546875 -0.59375 -2.75 C -0.59375 -2.25 -0.734375 -1.84375 -0.984375 -1.609375 C -1.140625 -1.46875 -1.3125 -1.390625 -1.71875 -1.34375 L -1.71875 -0.375 C -0.390625 -0.421875 0.25 -1.171875 0.25 -2.671875 C 0.25 -4.125 -0.46875 -5.046875 -1.578125 -5.046875 C -2.4375 -5.046875 -2.90625 -4.5625 -3.171875 -3.421875 L -3.390625 -2.546875 C -3.5625 -1.796875 -3.8125 -1.46875 -4.21875 -1.46875 C -4.75 -1.46875 -5.078125 -1.953125 -5.078125 -2.6875 C -5.078125 -3.4375 -4.765625 -3.828125 -4.15625 -3.84375 Z M -4.15625 -4.8125 "/>
</g>
<g id="glyph-2-4">
</g>
<g id="glyph-2-5">
<path d="M -8.015625 -0.765625 L 0 -0.765625 L 0 -1.6875 L -3.171875 -1.6875 C -4.359375 -1.6875 -5.125 -2.296875 -5.125 -3.25 C -5.125 -3.546875 -5.03125 -3.84375 -4.875 -4.0625 C -4.671875 -4.328125 -4.40625 -4.4375 -4 -4.4375 L 0 -4.4375 L 0 -5.34375 L -4.359375 -5.34375 C -5.328125 -5.34375 -5.921875 -4.65625 -5.921875 -3.53125 C -5.921875 -2.71875 -5.671875 -2.21875 -4.96875 -1.6875 L -8.015625 -1.6875 Z M -8.015625 -0.765625 "/>
</g>
<g id="glyph-2-6">
<path d="M -5.921875 -2.984375 C -5.921875 -1.359375 -4.78125 -0.390625 -2.84375 -0.390625 C -0.890625 -0.390625 0.25 -1.359375 0.25 -3 C 0.25 -4.625 -0.90625 -5.609375 -2.796875 -5.609375 C -4.796875 -5.609375 -5.921875 -4.65625 -5.921875 -2.984375 Z M -5.078125 -3 C -5.078125 -4.03125 -4.234375 -4.65625 -2.8125 -4.65625 C -1.4375 -4.65625 -0.59375 -4.015625 -0.59375 -3 C -0.59375 -1.984375 -1.4375 -1.359375 -2.84375 -1.359375 C -4.234375 -1.359375 -5.078125 -1.984375 -5.078125 -3 Z M -5.078125 -3 "/>
</g>
<g id="glyph-2-7">
<path d="M -2.578125 -5.640625 C -3.453125 -5.640625 -3.984375 -5.578125 -4.40625 -5.40625 C -5.359375 -5.03125 -5.921875 -4.15625 -5.921875 -3.078125 C -5.921875 -1.46875 -4.703125 -0.4375 -2.8125 -0.4375 C -0.90625 -0.4375 0.25 -1.4375 0.25 -3.0625 C 0.25 -4.375 -0.5 -5.296875 -1.75 -5.515625 L -1.75 -4.59375 C -0.984375 -4.34375 -0.59375 -3.828125 -0.59375 -3.09375 C -0.59375 -2.515625 -0.859375 -2.015625 -1.34375 -1.703125 C -1.671875 -1.484375 -2 -1.40625 -2.578125 -1.390625 Z M -3.328125 -1.421875 C -4.390625 -1.5 -5.078125 -2.140625 -5.078125 -3.0625 C -5.078125 -4 -4.359375 -4.65625 -3.328125 -4.65625 Z M -3.328125 -1.421875 "/>
</g>
<g id="glyph-2-8">
<path d="M -5.765625 -0.765625 L 0 -0.765625 L 0 -1.6875 L -3.171875 -1.6875 C -4.359375 -1.6875 -5.125 -2.3125 -5.125 -3.25 C -5.125 -3.984375 -4.6875 -4.4375 -4 -4.4375 L 0 -4.4375 L 0 -5.359375 L -4.359375 -5.359375 C -5.3125 -5.359375 -5.921875 -4.640625 -5.921875 -3.53125 C -5.921875 -2.671875 -5.59375 -2.125 -4.796875 -1.609375 L -5.765625 -1.609375 Z M -5.765625 -0.765625 "/>
</g>
<g id="glyph-2-9">
<path d="M -8.015625 -2.59375 C -6.578125 -1.5 -4.578125 -0.796875 -2.84375 -0.796875 C -1.109375 -0.796875 0.890625 -1.5 2.328125 -2.59375 L 2.328125 -3.203125 C 0.765625 -2.234375 -1.09375 -1.6875 -2.84375 -1.6875 C -4.59375 -1.6875 -6.453125 -2.234375 -8.015625 -3.203125 Z M -8.015625 -2.59375 "/>
</g>
<g id="glyph-2-10">
<path d="M -8.015625 -1.671875 L -8.015625 -0.75 L 0 -0.75 L 0 -1.671875 Z M -8.015625 -1.671875 "/>
</g>
<g id="glyph-2-11">
<path d="M -5.765625 -4.4375 L -4.921875 -4.4375 C -5.625 -3.984375 -5.921875 -3.46875 -5.921875 -2.75 C -5.921875 -1.359375 -4.625 -0.390625 -2.78125 -0.390625 C -1.8125 -0.390625 -1.109375 -0.609375 -0.53125 -1.109375 C -0.015625 -1.546875 0.25 -2.09375 0.25 -2.6875 C 0.25 -3.375 -0.0625 -3.875 -0.78125 -4.359375 L -0.484375 -4.359375 C 1.0625 -4.359375 1.625 -3.921875 1.625 -2.78125 C 1.625 -2 1.3125 -1.59375 0.65625 -1.5 L 0.65625 -0.578125 C 1.734375 -0.65625 2.390625 -1.5 2.390625 -2.765625 C 2.390625 -3.609375 2.125 -4.3125 1.65625 -4.6875 C 1.125 -5.125 0.40625 -5.296875 -0.953125 -5.296875 L -5.765625 -5.296875 Z M -5.078125 -2.84375 C -5.078125 -3.8125 -4.265625 -4.359375 -2.8125 -4.359375 C -1.40625 -4.359375 -0.59375 -3.796875 -0.59375 -2.84375 C -0.59375 -1.890625 -1.421875 -1.34375 -2.84375 -1.34375 C -4.25 -1.34375 -5.078125 -1.890625 -5.078125 -2.84375 Z M -5.078125 -2.84375 "/>
</g>
<g id="glyph-2-12">
<path d="M -0.53125 -5.890625 C -0.515625 -5.78125 -0.515625 -5.734375 -0.515625 -5.6875 C -0.515625 -5.375 -0.6875 -5.1875 -0.96875 -5.1875 L -4.359375 -5.1875 C -5.375 -5.1875 -5.921875 -4.4375 -5.921875 -3.03125 C -5.921875 -2.171875 -5.6875 -1.5 -5.265625 -1.109375 C -4.96875 -0.84375 -4.625 -0.734375 -4.0625 -0.71875 L -4.0625 -1.640625 C -4.765625 -1.71875 -5.078125 -2.140625 -5.078125 -2.984375 C -5.078125 -3.828125 -4.78125 -4.28125 -4.21875 -4.28125 L -3.984375 -4.28125 C -3.59375 -4.265625 -3.4375 -4.0625 -3.34375 -3.328125 C -3.171875 -2.03125 -3.140625 -1.828125 -2.984375 -1.46875 C -2.703125 -0.796875 -2.203125 -0.46875 -1.453125 -0.46875 C -0.40625 -0.46875 0.25 -1.1875 0.25 -2.359375 C 0.25 -3.078125 0 -3.65625 -0.59375 -4.3125 C 0 -4.375 0.25 -4.65625 0.25 -5.265625 C 0.25 -5.453125 0.234375 -5.578125 0.15625 -5.890625 Z M -1.8125 -4.28125 C -1.5 -4.28125 -1.3125 -4.1875 -1.0625 -3.921875 C -0.71875 -3.546875 -0.546875 -3.09375 -0.546875 -2.546875 C -0.546875 -1.84375 -0.890625 -1.421875 -1.46875 -1.421875 C -2.078125 -1.421875 -2.390625 -1.8125 -2.53125 -2.8125 C -2.65625 -3.78125 -2.703125 -3.96875 -2.84375 -4.28125 Z M -1.8125 -4.28125 "/>
</g>
<g id="glyph-2-13">
<path d="M 2.328125 -1.015625 C 0.890625 -2.125 -1.109375 -2.8125 -2.84375 -2.8125 C -4.578125 -2.8125 -6.578125 -2.125 -8.015625 -1.015625 L -8.015625 -0.421875 C -6.453125 -1.390625 -4.59375 -1.921875 -2.84375 -1.921875 C -1.09375 -1.921875 0.765625 -1.390625 2.328125 -0.421875 Z M 2.328125 -1.015625 "/>
</g>
</g>
<clipPath id="clip-0">
<path clip-rule="nonzero" d="M 40.152344 199 L 390.523438 199 L 390.523438 200 L 40.152344 200 Z M 40.152344 199 "/>
</clipPath>
<clipPath id="clip-1">
<path clip-rule="nonzero" d="M 40.152344 184 L 390.523438 184 L 390.523438 185 L 40.152344 185 Z M 40.152344 184 "/>
</clipPath>
<clipPath id="clip-2">
<path clip-rule="nonzero" d="M 40.152344 174 L 390.523438 174 L 390.523438 176 L 40.152344 176 Z M 40.152344 174 "/>
</clipPath>
<clipPath id="clip-3">
<path clip-rule="nonzero" d="M 40.152344 167 L 390.523438 167 L 390.523438 169 L 40.152344 169 Z M 40.152344 167 "/>
</clipPath>
<clipPath id="clip-4">
<path clip-rule="nonzero" d="M 40.152344 160 L 390.523438 160 L 390.523438 161 L 40.152344 161 Z M 40.152344 160 "/>
</clipPath>
<clipPath id="clip-5">
<path clip-rule="nonzero" d="M 40.152344 150 L 390.523438 150 L 390.523438 152 L 40.152344 152 Z M 40.152344 150 "/>
</clipPath>
<clipPath id="clip-6">
<path clip-rule="nonzero" d="M 40.152344 136 L 390.523438 136 L 390.523438 137 L 40.152344 137 Z M 40.152344 136 "/>
</clipPath>
<clipPath id="clip-7">
<path clip-rule="nonzero" d="M 40.152344 121 L 390.523438 121 L 390.523438 122 L 40.152344 122 Z M 40.152344 121 "/>
</clipPath>
<clipPath id="clip-8">
<path clip-rule="nonzero" d="M 40.152344 111 L 390.523438 111 L 390.523438 113 L 40.152344 113 Z M 40.152344 111 "/>
</clipPath>
<clipPath id="clip-9">
<path clip-rule="nonzero" d="M 40.152344 104 L 390.523438 104 L 390.523438 106 L 40.152344 106 Z M 40.152344 104 "/>
</clipPath>
<clipPath id="clip-10">
<path clip-rule="nonzero" d="M 40.152344 97 L 390.523438 97 L 390.523438 98 L 40.152344 98 Z M 40.152344 97 "/>
</clipPath>
<clipPath id="clip-11">
<path clip-rule="nonzero" d="M 40.152344 87 L 390.523438 87 L 390.523438 89 L 40.152344 89 Z M 40.152344 87 "/>
</clipPath>
<clipPath id="clip-12">
<path clip-rule="nonzero" d="M 40.152344 73 L 390.523438 73 L 390.523438 74 L 40.152344 74 Z M 40.152344 73 "/>
</clipPath>
<clipPath id="clip-13">
<path clip-rule="nonzero" d="M 40.152344 58 L 390.523438 58 L 390.523438 59 L 40.152344 59 Z M 40.152344 58 "/>
</clipPath>
<clipPath id="clip-14">
<path clip-rule="nonzero" d="M 40.152344 48 L 390.523438 48 L 390.523438 50 L 40.152344 50 Z M 40.152344 48 "/>
</clipPath>
<clipPath id="clip-15">
<path clip-rule="nonzero" d="M 40.152344 41 L 390.523438 41 L 390.523438 43 L 40.152344 43 Z M 40.152344 41 "/>
</clipPath>
<clipPath id="clip-16">
<path clip-rule="nonzero" d="M 40.152344 34 L 390.523438 34 L 390.523438 35 L 40.152344 35 Z M 40.152344 34 "/>
</clipPath>
<clipPath id="clip-17">
<path clip-rule="nonzero" d="M 87 23.246094 L 89 23.246094 L 89 217.847656 L 87 217.847656 Z M 87 23.246094 "/>
</clipPath>
<clipPath id="clip-18">
<path clip-rule="nonzero" d="M 151 23.246094 L 152 23.246094 L 152 217.847656 L 151 217.847656 Z M 151 23.246094 "/>
</clipPath>
<clipPath id="clip-19">
<path clip-rule="nonzero" d="M 215 23.246094 L 216 23.246094 L 216 217.847656 L 215 217.847656 Z M 215 23.246094 "/>
</clipPath>
<clipPath id="clip-20">
<path clip-rule="nonzero" d="M 278 23.246094 L 280 23.246094 L 280 217.847656 L 278 217.847656 Z M 278 23.246094 "/>
</clipPath>
<clipPath id="clip-21">
<path clip-rule="nonzero" d="M 342 23.246094 L 344 23.246094 L 344 217.847656 L 342 217.847656 Z M 342 23.246094 "/>
</clipPath>
<clipPath id="clip-22">
<path clip-rule="nonzero" d="M 40.152344 208 L 390.523438 208 L 390.523438 210 L 40.152344 210 Z M 40.152344 208 "/>
</clipPath>
<clipPath id="clip-23">
<path clip-rule="nonzero" d="M 40.152344 189 L 390.523438 189 L 390.523438 191 L 40.152344 191 Z M 40.152344 189 "/>
</clipPath>
<clipPath id="clip-24">
<path clip-rule="nonzero" d="M 40.152344 178 L 390.523438 178 L 390.523438 180 L 40.152344 180 Z M 40.152344 178 "/>
</clipPath>
<clipPath id="clip-25">
<path clip-rule="nonzero" d="M 40.152344 170 L 390.523438 170 L 390.523438 172 L 40.152344 172 Z M 40.152344 170 "/>
</clipPath>
<clipPath id="clip-26">
<path clip-rule="nonzero" d="M 40.152344 164 L 390.523438 164 L 390.523438 166 L 40.152344 166 Z M 40.152344 164 "/>
</clipPath>
<clipPath id="clip-27">
<path clip-rule="nonzero" d="M 40.152344 155 L 390.523438 155 L 390.523438 157 L 40.152344 157 Z M 40.152344 155 "/>
</clipPath>
<clipPath id="clip-28">
<path clip-rule="nonzero" d="M 40.152344 145 L 390.523438 145 L 390.523438 147 L 40.152344 147 Z M 40.152344 145 "/>
</clipPath>
<clipPath id="clip-29">
<path clip-rule="nonzero" d="M 40.152344 126 L 390.523438 126 L 390.523438 128 L 40.152344 128 Z M 40.152344 126 "/>
</clipPath>
<clipPath id="clip-30">
<path clip-rule="nonzero" d="M 40.152344 115 L 390.523438 115 L 390.523438 117 L 40.152344 117 Z M 40.152344 115 "/>
</clipPath>
<clipPath id="clip-31">
<path clip-rule="nonzero" d="M 40.152344 107 L 390.523438 107 L 390.523438 109 L 40.152344 109 Z M 40.152344 107 "/>
</clipPath>
<clipPath id="clip-32">
<path clip-rule="nonzero" d="M 40.152344 101 L 390.523438 101 L 390.523438 103 L 40.152344 103 Z M 40.152344 101 "/>
</clipPath>
<clipPath id="clip-33">
<path clip-rule="nonzero" d="M 40.152344 92 L 390.523438 92 L 390.523438 94 L 40.152344 94 Z M 40.152344 92 "/>
</clipPath>
<clipPath id="clip-34">
<path clip-rule="nonzero" d="M 40.152344 82 L 390.523438 82 L 390.523438 84 L 40.152344 84 Z M 40.152344 82 "/>
</clipPath>
<clipPath id="clip-35">
<path clip-rule="nonzero" d="M 40.152344 63 L 390.523438 63 L 390.523438 65 L 40.152344 65 Z M 40.152344 63 "/>
</clipPath>
<clipPath id="clip-36">
<path clip-rule="nonzero" d="M 40.152344 52 L 390.523438 52 L 390.523438 54 L 40.152344 54 Z M 40.152344 52 "/>
</clipPath>
<clipPath id="clip-37">
<path clip-rule="nonzero" d="M 40.152344 44 L 390.523438 44 L 390.523438 46 L 40.152344 46 Z M 40.152344 44 "/>
</clipPath>
<clipPath id="clip-38">
<path clip-rule="nonzero" d="M 40.152344 38 L 390.523438 38 L 390.523438 40 L 40.152344 40 Z M 40.152344 38 "/>
</clipPath>
<clipPath id="clip-39">
<path clip-rule="nonzero" d="M 40.152344 29 L 390.523438 29 L 390.523438 31 L 40.152344 31 Z M 40.152344 29 "/>
</clipPath>
<clipPath id="clip-40">
<path clip-rule="nonzero" d="M 55 23.246094 L 57 23.246094 L 57 217.847656 L 55 217.847656 Z M 55 23.246094 "/>
</clipPath>
<clipPath id="clip-41">
<path clip-rule="nonzero" d="M 119 23.246094 L 121 23.246094 L 121 217.847656 L 119 217.847656 Z M 119 23.246094 "/>
</clipPath>
<clipPath id="clip-42">
<path clip-rule="nonzero" d="M 182 23.246094 L 185 23.246094 L 185 217.847656 L 182 217.847656 Z M 182 23.246094 "/>
</clipPath>
<clipPath id="clip-43">
<path clip-rule="nonzero" d="M 246 23.246094 L 248 23.246094 L 248 217.847656 L 246 217.847656 Z M 246 23.246094 "/>
</clipPath>
<clipPath id="clip-44">
<path clip-rule="nonzero" d="M 310 23.246094 L 312 23.246094 L 312 217.847656 L 310 217.847656 Z M 310 23.246094 "/>
</clipPath>
<clipPath id="clip-45">
<path clip-rule="nonzero" d="M 374 23.246094 L 376 23.246094 L 376 217.847656 L 374 217.847656 Z M 374 23.246094 "/>
</clipPath>
<clipPath id="clip-46">
<path clip-rule="nonzero" d="M 55 31 L 376 31 L 376 217.847656 L 55 217.847656 Z M 55 31 "/>
</clipPath>
<clipPath id="clip-47">
<path clip-rule="nonzero" d="M 310 23.246094 L 312 23.246094 L 312 217.847656 L 310 217.847656 Z M 310 23.246094 "/>
</clipPath>
</defs>
<rect x="-39.6" y="-25.2" width="475.2" height="302.4" fill="rgb(100%, 100%, 100%)" fill-opacity="1"/>
<rect x="-39.6" y="-25.2" width="475.2" height="302.4" fill="rgb(100%, 100%, 100%)" fill-opacity="1"/>
<g clip-path="url(#clip-0)">
<path fill="none" stroke-width="0.533489" stroke-linecap="butt" stroke-linejoin="round" stroke="rgb(92.156863%, 92.156863%, 92.156863%)" stroke-opacity="1" stroke-miterlimit="10" d="M 40.152344 199.523438 L 390.519531 199.523438 "/>
</g>
<g clip-path="url(#clip-1)">
<path fill="none" stroke-width="0.533489" stroke-linecap="butt" stroke-linejoin="round" stroke="rgb(92.156863%, 92.156863%, 92.156863%)" stroke-opacity="1" stroke-miterlimit="10" d="M 40.152344 184.5 L 390.519531 184.5 "/>
</g>
<g clip-path="url(#clip-2)">
<path fill="none" stroke-width="0.533489" stroke-linecap="butt" stroke-linejoin="round" stroke="rgb(92.156863%, 92.156863%, 92.156863%)" stroke-opacity="1" stroke-miterlimit="10" d="M 40.152344 175.019531 L 390.519531 175.019531 "/>
</g>
<g clip-path="url(#clip-3)">
<path fill="none" stroke-width="0.533489" stroke-linecap="butt" stroke-linejoin="round" stroke="rgb(92.156863%, 92.156863%, 92.156863%)" stroke-opacity="1" stroke-miterlimit="10" d="M 40.152344 168.03125 L 390.519531 168.03125 "/>
</g>
<g clip-path="url(#clip-4)">
<path fill="none" stroke-width="0.533489" stroke-linecap="butt" stroke-linejoin="round" stroke="rgb(92.156863%, 92.156863%, 92.156863%)" stroke-opacity="1" stroke-miterlimit="10" d="M 40.152344 160.378906 L 390.519531 160.378906 "/>
</g>
<g clip-path="url(#clip-5)">
<path fill="none" stroke-width="0.533489" stroke-linecap="butt" stroke-linejoin="round" stroke="rgb(92.156863%, 92.156863%, 92.156863%)" stroke-opacity="1" stroke-miterlimit="10" d="M 40.152344 150.898438 L 390.519531 150.898438 "/>
</g>
<g clip-path="url(#clip-6)">
<path fill="none" stroke-width="0.533489" stroke-linecap="butt" stroke-linejoin="round" stroke="rgb(92.156863%, 92.156863%, 92.156863%)" stroke-opacity="1" stroke-miterlimit="10" d="M 40.152344 136.542969 L 390.519531 136.542969 "/>
</g>
<g clip-path="url(#clip-7)">
<path fill="none" stroke-width="0.533489" stroke-linecap="butt" stroke-linejoin="round" stroke="rgb(92.156863%, 92.156863%, 92.156863%)" stroke-opacity="1" stroke-miterlimit="10" d="M 40.152344 121.515625 L 390.519531 121.515625 "/>
</g>
<g clip-path="url(#clip-8)">
<path fill="none" stroke-width="0.533489" stroke-linecap="butt" stroke-linejoin="round" stroke="rgb(92.156863%, 92.156863%, 92.156863%)" stroke-opacity="1" stroke-miterlimit="10" d="M 40.152344 112.035156 L 390.519531 112.035156 "/>
</g>
<g clip-path="url(#clip-9)">
<path fill="none" stroke-width="0.533489" stroke-linecap="butt" stroke-linejoin="round" stroke="rgb(92.156863%, 92.156863%, 92.156863%)" stroke-opacity="1" stroke-miterlimit="10" d="M 40.152344 105.050781 L 390.519531 105.050781 "/>
</g>
<g clip-path="url(#clip-10)">
<path fill="none" stroke-width="0.533489" stroke-linecap="butt" stroke-linejoin="round" stroke="rgb(92.156863%, 92.156863%, 92.156863%)" stroke-opacity="1" stroke-miterlimit="10" d="M 40.152344 97.394531 L 390.519531 97.394531 "/>
</g>
<g clip-path="url(#clip-11)">
<path fill="none" stroke-width="0.533489" stroke-linecap="butt" stroke-linejoin="round" stroke="rgb(92.156863%, 92.156863%, 92.156863%)" stroke-opacity="1" stroke-miterlimit="10" d="M 40.152344 87.917969 L 390.519531 87.917969 "/>
</g>
<g clip-path="url(#clip-12)">
<path fill="none" stroke-width="0.533489" stroke-linecap="butt" stroke-linejoin="round" stroke="rgb(92.156863%, 92.156863%, 92.156863%)" stroke-opacity="1" stroke-miterlimit="10" d="M 40.152344 73.558594 L 390.519531 73.558594 "/>
</g>
<g clip-path="url(#clip-13)">
<path fill="none" stroke-width="0.533489" stroke-linecap="butt" stroke-linejoin="round" stroke="rgb(92.156863%, 92.156863%, 92.156863%)" stroke-opacity="1" stroke-miterlimit="10" d="M 40.152344 58.53125 L 390.519531 58.53125 "/>
</g>
<g clip-path="url(#clip-14)">
<path fill="none" stroke-width="0.533489" stroke-linecap="butt" stroke-linejoin="round" stroke="rgb(92.156863%, 92.156863%, 92.156863%)" stroke-opacity="1" stroke-miterlimit="10" d="M 40.152344 49.054688 L 390.519531 49.054688 "/>
</g>
<g clip-path="url(#clip-15)">
<path fill="none" stroke-width="0.533489" stroke-linecap="butt" stroke-linejoin="round" stroke="rgb(92.156863%, 92.156863%, 92.156863%)" stroke-opacity="1" stroke-miterlimit="10" d="M 40.152344 42.066406 L 390.519531 42.066406 "/>
</g>
<g clip-path="url(#clip-16)">
<path fill="none" stroke-width="0.533489" stroke-linecap="butt" stroke-linejoin="round" stroke="rgb(92.156863%, 92.156863%, 92.156863%)" stroke-opacity="1" stroke-miterlimit="10" d="M 40.152344 34.414062 L 390.519531 34.414062 "/>
</g>
<g clip-path="url(#clip-17)">
<path fill="none" stroke-width="0.533489" stroke-linecap="butt" stroke-linejoin="round" stroke="rgb(92.156863%, 92.156863%, 92.156863%)" stroke-opacity="1" stroke-miterlimit="10" d="M 87.929688 217.847656 L 87.929688 23.246094 "/>
</g>
<g clip-path="url(#clip-18)">
<path fill="none" stroke-width="0.533489" stroke-linecap="butt" stroke-linejoin="round" stroke="rgb(92.156863%, 92.156863%, 92.156863%)" stroke-opacity="1" stroke-miterlimit="10" d="M 151.632812 217.847656 L 151.632812 23.246094 "/>
</g>
<g clip-path="url(#clip-19)">
<path fill="none" stroke-width="0.533489" stroke-linecap="butt" stroke-linejoin="round" stroke="rgb(92.156863%, 92.156863%, 92.156863%)" stroke-opacity="1" stroke-miterlimit="10" d="M 215.335938 217.847656 L 215.335938 23.246094 "/>
</g>
<g clip-path="url(#clip-20)">
<path fill="none" stroke-width="0.533489" stroke-linecap="butt" stroke-linejoin="round" stroke="rgb(92.156863%, 92.156863%, 92.156863%)" stroke-opacity="1" stroke-miterlimit="10" d="M 279.039062 217.847656 L 279.039062 23.246094 "/>
</g>
<g clip-path="url(#clip-21)">
<path fill="none" stroke-width="0.533489" stroke-linecap="butt" stroke-linejoin="round" stroke="rgb(92.156863%, 92.156863%, 92.156863%)" stroke-opacity="1" stroke-miterlimit="10" d="M 342.742188 217.847656 L 342.742188 23.246094 "/>
</g>
<g clip-path="url(#clip-22)">
<path fill="none" stroke-width="1.066978" stroke-linecap="butt" stroke-linejoin="round" stroke="rgb(92.156863%, 92.156863%, 92.156863%)" stroke-opacity="1" stroke-miterlimit="10" d="M 40.152344 209.003906 L 390.519531 209.003906 "/>
</g>
<g clip-path="url(#clip-23)">
<path fill="none" stroke-width="1.066978" stroke-linecap="butt" stroke-linejoin="round" stroke="rgb(92.156863%, 92.156863%, 92.156863%)" stroke-opacity="1" stroke-miterlimit="10" d="M 40.152344 190.042969 L 390.519531 190.042969 "/>
</g>
<g clip-path="url(#clip-24)">
<path fill="none" stroke-width="1.066978" stroke-linecap="butt" stroke-linejoin="round" stroke="rgb(92.156863%, 92.156863%, 92.156863%)" stroke-opacity="1" stroke-miterlimit="10" d="M 40.152344 178.953125 L 390.519531 178.953125 "/>
</g>
<g clip-path="url(#clip-25)">
<path fill="none" stroke-width="1.066978" stroke-linecap="butt" stroke-linejoin="round" stroke="rgb(92.156863%, 92.156863%, 92.156863%)" stroke-opacity="1" stroke-miterlimit="10" d="M 40.152344 171.085938 L 390.519531 171.085938 "/>
</g>
<g clip-path="url(#clip-26)">
<path fill="none" stroke-width="1.066978" stroke-linecap="butt" stroke-linejoin="round" stroke="rgb(92.156863%, 92.156863%, 92.156863%)" stroke-opacity="1" stroke-miterlimit="10" d="M 40.152344 164.980469 L 390.519531 164.980469 "/>
</g>
<g clip-path="url(#clip-27)">
<path fill="none" stroke-width="1.066978" stroke-linecap="butt" stroke-linejoin="round" stroke="rgb(92.156863%, 92.156863%, 92.156863%)" stroke-opacity="1" stroke-miterlimit="10" d="M 40.152344 155.777344 L 390.519531 155.777344 "/>
</g>
<g clip-path="url(#clip-28)">
<path fill="none" stroke-width="1.066978" stroke-linecap="butt" stroke-linejoin="round" stroke="rgb(92.156863%, 92.156863%, 92.156863%)" stroke-opacity="1" stroke-miterlimit="10" d="M 40.152344 146.019531 L 390.519531 146.019531 "/>
</g>
<g clip-path="url(#clip-29)">
<path fill="none" stroke-width="1.066978" stroke-linecap="butt" stroke-linejoin="round" stroke="rgb(92.156863%, 92.156863%, 92.156863%)" stroke-opacity="1" stroke-miterlimit="10" d="M 40.152344 127.0625 L 390.519531 127.0625 "/>
</g>
<g clip-path="url(#clip-30)">
<path fill="none" stroke-width="1.066978" stroke-linecap="butt" stroke-linejoin="round" stroke="rgb(92.156863%, 92.156863%, 92.156863%)" stroke-opacity="1" stroke-miterlimit="10" d="M 40.152344 115.96875 L 390.519531 115.96875 "/>
</g>
<g clip-path="url(#clip-31)">
<path fill="none" stroke-width="1.066978" stroke-linecap="butt" stroke-linejoin="round" stroke="rgb(92.156863%, 92.156863%, 92.156863%)" stroke-opacity="1" stroke-miterlimit="10" d="M 40.152344 108.101562 L 390.519531 108.101562 "/>
</g>
<g clip-path="url(#clip-32)">
<path fill="none" stroke-width="1.066978" stroke-linecap="butt" stroke-linejoin="round" stroke="rgb(92.156863%, 92.156863%, 92.156863%)" stroke-opacity="1" stroke-miterlimit="10" d="M 40.152344 101.996094 L 390.519531 101.996094 "/>
</g>
<g clip-path="url(#clip-33)">
<path fill="none" stroke-width="1.066978" stroke-linecap="butt" stroke-linejoin="round" stroke="rgb(92.156863%, 92.156863%, 92.156863%)" stroke-opacity="1" stroke-miterlimit="10" d="M 40.152344 92.792969 L 390.519531 92.792969 "/>
</g>
<g clip-path="url(#clip-34)">
<path fill="none" stroke-width="1.066978" stroke-linecap="butt" stroke-linejoin="round" stroke="rgb(92.156863%, 92.156863%, 92.156863%)" stroke-opacity="1" stroke-miterlimit="10" d="M 40.152344 83.039062 L 390.519531 83.039062 "/>
</g>
<g clip-path="url(#clip-35)">
<path fill="none" stroke-width="1.066978" stroke-linecap="butt" stroke-linejoin="round" stroke="rgb(92.156863%, 92.156863%, 92.156863%)" stroke-opacity="1" stroke-miterlimit="10" d="M 40.152344 64.078125 L 390.519531 64.078125 "/>
</g>
<g clip-path="url(#clip-36)">
<path fill="none" stroke-width="1.066978" stroke-linecap="butt" stroke-linejoin="round" stroke="rgb(92.156863%, 92.156863%, 92.156863%)" stroke-opacity="1" stroke-miterlimit="10" d="M 40.152344 52.988281 L 390.519531 52.988281 "/>
</g>
<g clip-path="url(#clip-37)">
<path fill="none" stroke-width="1.066978" stroke-linecap="butt" stroke-linejoin="round" stroke="rgb(92.156863%, 92.156863%, 92.156863%)" stroke-opacity="1" stroke-miterlimit="10" d="M 40.152344 45.117188 L 390.519531 45.117188 "/>
</g>
<g clip-path="url(#clip-38)">
<path fill="none" stroke-width="1.066978" stroke-linecap="butt" stroke-linejoin="round" stroke="rgb(92.156863%, 92.156863%, 92.156863%)" stroke-opacity="1" stroke-miterlimit="10" d="M 40.152344 39.015625 L 390.519531 39.015625 "/>
</g>
<g clip-path="url(#clip-39)">
<path fill="none" stroke-width="1.066978" stroke-linecap="butt" stroke-linejoin="round" stroke="rgb(92.156863%, 92.156863%, 92.156863%)" stroke-opacity="1" stroke-miterlimit="10" d="M 40.152344 29.8125 L 390.519531 29.8125 "/>
</g>
<g clip-path="url(#clip-40)">
<path fill="none" stroke-width="1.066978" stroke-linecap="butt" stroke-linejoin="round" stroke="rgb(92.156863%, 92.156863%, 92.156863%)" stroke-opacity="1" stroke-miterlimit="10" d="M 56.078125 217.847656 L 56.078125 23.246094 "/>
</g>
<g clip-path="url(#clip-41)">
<path fill="none" stroke-width="1.066978" stroke-linecap="butt" stroke-linejoin="round" stroke="rgb(92.156863%, 92.156863%, 92.156863%)" stroke-opacity="1" stroke-miterlimit="10" d="M 119.78125 217.847656 L 119.78125 23.246094 "/>
</g>
<g clip-path="url(#clip-42)">
<path fill="none" stroke-width="1.066978" stroke-linecap="butt" stroke-linejoin="round" stroke="rgb(92.156863%, 92.156863%, 92.156863%)" stroke-opacity="1" stroke-miterlimit="10" d="M 183.484375 217.847656 L 183.484375 23.246094 "/>
</g>
<g clip-path="url(#clip-43)">
<path fill="none" stroke-width="1.066978" stroke-linecap="butt" stroke-linejoin="round" stroke="rgb(92.156863%, 92.156863%, 92.156863%)" stroke-opacity="1" stroke-miterlimit="10" d="M 247.1875 217.847656 L 247.1875 23.246094 "/>
</g>
<g clip-path="url(#clip-44)">
<path fill="none" stroke-width="1.066978" stroke-linecap="butt" stroke-linejoin="round" stroke="rgb(92.156863%, 92.156863%, 92.156863%)" stroke-opacity="1" stroke-miterlimit="10" d="M 310.890625 217.847656 L 310.890625 23.246094 "/>
</g>
<g clip-path="url(#clip-45)">
<path fill="none" stroke-width="1.066978" stroke-linecap="butt" stroke-linejoin="round" stroke="rgb(92.156863%, 92.156863%, 92.156863%)" stroke-opacity="1" stroke-miterlimit="10" d="M 374.59375 217.847656 L 374.59375 23.246094 "/>
</g>
<g clip-path="url(#clip-46)">
<path fill="none" stroke-width="1.066978" stroke-linecap="butt" stroke-linejoin="round" stroke="rgb(0%, 0%, 0%)" stroke-opacity="1" stroke-miterlimit="10" d="M 56.078125 217.847656 L 236.035156 217.847656 L 236.035156 209.003906 L 269.425781 209.003906 L 269.425781 190.042969 L 277.453125 190.042969 L 277.453125 178.953125 L 285.210938 178.953125 L 285.210938 171.085938 L 289.566406 171.085938 L 289.566406 164.980469 L 293.238281 164.980469 L 293.238281 159.992188 L 296.46875 159.992188 L 296.46875 155.777344 L 298.578125 155.777344 L 298.578125 152.125 L 300.484375 152.125 L 300.484375 148.902344 L 302.269531 148.902344 L 302.269531 146.019531 L 303.835938 146.019531 L 303.835938 143.414062 L 305.332031 143.414062 L 305.332031 141.035156 L 306.710938 141.035156 L 306.710938 138.84375 L 308.035156 138.84375 L 308.035156 136.816406 L 309.195312 136.816406 L 309.195312 134.929688 L 310.214844 134.929688 L 310.214844 133.164062 L 311.167969 133.164062 L 311.167969 131.507812 L 312.101562 131.507812 L 312.101562 129.941406 L 313.019531 129.941406 L 313.019531 128.464844 L 313.9375 128.464844 L 313.9375 127.0625 L 314.722656 127.0625 L 314.722656 125.726562 L 315.503906 125.726562 L 315.503906 124.453125 L 316.148438 124.453125 L 316.148438 123.238281 L 316.796875 123.238281 L 316.796875 122.074219 L 317.375 122.074219 L 317.375 120.957031 L 317.953125 120.957031 L 317.953125 119.882812 L 318.515625 119.882812 L 318.515625 118.851562 L 319.058594 118.851562 L 319.058594 117.859375 L 319.570312 117.859375 L 319.570312 116.898438 L 320.078125 116.898438 L 320.078125 115.96875 L 320.589844 115.96875 L 320.589844 115.074219 L 321.066406 115.074219 L 321.066406 114.207031 L 321.523438 114.207031 L 321.523438 113.363281 L 321.96875 113.363281 L 321.96875 112.546875 L 322.410156 112.546875 L 322.410156 111.753906 L 322.851562 111.753906 L 322.851562 110.984375 L 323.261719 110.984375 L 323.261719 110.234375 L 323.667969 110.234375 L 323.667969 109.503906 L 324.078125 109.503906 L 324.078125 108.792969 L 324.484375 108.792969 L 324.484375 108.101562 L 324.894531 108.101562 L 324.894531 107.425781 L 325.265625 107.425781 L 325.265625 106.765625 L 325.640625 106.765625 L 325.640625 106.125 L 326.015625 106.125 L 326.015625 105.496094 L 326.371094 105.496094 L 326.371094 104.878906 L 326.730469 104.878906 L 326.730469 104.277344 L 327.085938 104.277344 L 327.085938 103.691406 L 327.425781 103.691406 L 327.425781 103.113281 L 327.769531 103.113281 L 327.769531 102.550781 L 328.109375 102.550781 L 328.109375 101.996094 L 328.449219 101.996094 L 328.449219 101.457031 L 328.753906 101.457031 L 328.753906 100.925781 L 329.058594 100.925781 L 329.058594 100.402344 L 329.367188 100.402344 L 329.367188 99.894531 L 329.671875 99.894531 L 329.671875 99.390625 L 329.980469 99.390625 L 329.980469 98.898438 L 330.269531 98.898438 L 330.269531 98.414062 L 330.558594 98.414062 L 330.558594 97.9375 L 330.828125 97.9375 L 330.828125 97.46875 L 331.101562 97.46875 L 331.101562 97.011719 L 331.375 97.011719 L 331.375 96.558594 L 331.644531 96.558594 L 331.644531 96.113281 L 331.917969 96.113281 L 331.917969 95.675781 L 332.171875 95.675781 L 332.171875 95.246094 L 332.429688 95.246094 L 332.429688 94.820312 L 332.683594 94.820312 L 332.683594 94.402344 L 332.9375 94.402344 L 332.9375 93.992188 L 333.175781 93.992188 L 333.175781 93.585938 L 333.414062 93.585938 L 333.414062 93.1875 L 333.652344 93.1875 L 333.652344 92.792969 L 333.890625 92.792969 L 333.890625 92.40625 L 334.128906 92.40625 L 334.128906 92.023438 L 334.367188 92.023438 L 334.367188 91.644531 L 334.605469 91.644531 L 334.605469 91.273438 L 334.84375 91.273438 L 334.84375 90.90625 L 335.082031 90.90625 L 335.082031 90.542969 L 335.320312 90.542969 L 335.320312 90.1875 L 335.542969 90.1875 L 335.542969 89.835938 L 335.761719 89.835938 L 335.761719 89.484375 L 335.984375 89.484375 L 335.984375 89.140625 L 336.1875 89.140625 L 336.1875 88.800781 L 336.390625 88.800781 L 336.390625 88.464844 L 336.59375 88.464844 L 336.59375 88.136719 L 336.800781 88.136719 L 336.800781 87.808594 L 337.003906 87.808594 L 337.003906 87.484375 L 337.207031 87.484375 L 337.207031 87.164062 L 337.410156 87.164062 L 337.410156 86.847656 L 337.617188 86.847656 L 337.617188 86.535156 L 337.820312 86.535156 L 337.820312 86.226562 L 338.023438 86.226562 L 338.023438 85.921875 L 338.230469 85.921875 L 338.230469 85.617188 L 338.414062 85.617188 L 338.414062 85.320312 L 338.601562 85.320312 L 338.601562 85.023438 L 338.789062 85.023438 L 338.789062 84.730469 L 338.976562 84.730469 L 338.976562 84.441406 L 339.164062 84.441406 L 339.164062 84.15625 L 339.351562 84.15625 L 339.351562 83.871094 L 339.539062 83.871094 L 339.539062 83.589844 L 339.726562 83.589844 L 339.726562 83.3125 L 339.894531 83.3125 L 339.894531 83.039062 L 340.066406 83.039062 L 340.066406 82.765625 L 340.234375 82.765625 L 340.234375 82.496094 L 340.40625 82.496094 L 340.40625 82.230469 L 340.574219 82.230469 L 340.574219 81.964844 L 340.746094 81.964844 L 340.746094 81.703125 L 340.917969 81.703125 L 340.917969 81.445312 L 341.085938 81.445312 L 341.085938 81.1875 L 341.257812 81.1875 L 341.257812 80.933594 L 341.425781 80.933594 L 341.425781 80.679688 L 341.597656 80.679688 L 341.597656 80.429688 L 341.765625 80.429688 L 341.765625 80.183594 L 341.9375 80.183594 L 341.9375 79.9375 L 342.105469 79.9375 L 342.105469 79.695312 L 342.277344 79.695312 L 342.277344 79.453125 L 342.445312 79.453125 L 342.445312 79.214844 L 342.617188 79.214844 L 342.617188 78.976562 L 342.785156 78.976562 L 342.785156 78.742188 L 342.957031 78.742188 L 342.957031 78.511719 L 343.128906 78.511719 L 343.128906 78.28125 L 343.296875 78.28125 L 343.296875 78.050781 L 343.449219 78.050781 L 343.449219 77.824219 L 343.601562 77.824219 L 343.601562 77.597656 L 343.757812 77.597656 L 343.757812 77.375 L 343.910156 77.375 L 343.910156 77.152344 L 344.0625 77.152344 L 344.0625 76.933594 L 344.214844 76.933594 L 344.214844 76.714844 L 344.367188 76.714844 L 344.367188 76.5 L 344.523438 76.5 L 344.523438 76.285156 L 344.675781 76.285156 L 344.675781 76.074219 L 344.8125 76.074219 L 344.8125 75.863281 L 344.945312 75.863281 L 344.945312 75.652344 L 345.082031 75.652344 L 345.082031 75.445312 L 345.21875 75.445312 L 345.21875 75.238281 L 345.355469 75.238281 L 345.355469 75.03125 L 345.492188 75.03125 L 345.492188 74.828125 L 345.628906 74.828125 L 345.628906 74.628906 L 345.765625 74.628906 L 345.765625 74.425781 L 345.898438 74.425781 L 345.898438 74.226562 L 346.035156 74.226562 L 346.035156 74.03125 L 346.171875 74.03125 L 346.171875 73.835938 L 346.308594 73.835938 L 346.308594 73.640625 L 346.445312 73.640625 L 346.445312 73.445312 L 346.582031 73.445312 L 346.582031 73.253906 L 346.714844 73.253906 L 346.714844 73.0625 L 346.851562 73.0625 L 346.851562 72.875 L 346.988281 72.875 L 346.988281 72.6875 L 347.125 72.6875 L 347.125 72.5 L 347.261719 72.5 L 347.261719 72.316406 L 347.398438 72.316406 L 347.398438 72.128906 L 347.53125 72.128906 L 347.53125 71.949219 L 347.667969 71.949219 L 347.667969 71.765625 L 347.804688 71.765625 L 347.804688 71.585938 L 347.941406 71.585938 L 347.941406 71.40625 L 348.078125 71.40625 L 348.078125 71.226562 L 348.214844 71.226562 L 348.214844 71.050781 L 348.347656 71.050781 L 348.347656 70.875 L 348.484375 70.875 L 348.484375 70.699219 L 348.621094 70.699219 L 348.621094 70.527344 L 348.742188 70.527344 L 348.742188 70.351562 L 348.859375 70.351562 L 348.859375 70.183594 L 348.976562 70.183594 L 348.976562 70.011719 L 349.097656 70.011719 L 349.097656 69.84375 L 349.214844 69.84375 L 349.214844 69.675781 L 349.335938 69.675781 L 349.335938 69.507812 L 349.453125 69.507812 L 349.453125 69.339844 L 349.574219 69.339844 L 349.574219 69.175781 L 349.691406 69.175781 L 349.691406 69.011719 L 349.8125 69.011719 L 349.8125 68.847656 L 349.929688 68.847656 L 349.929688 68.683594 L 350.050781 68.683594 L 350.050781 68.523438 L 350.167969 68.523438 L 350.167969 68.363281 L 350.289062 68.363281 L 350.289062 68.203125 L 350.40625 68.203125 L 350.40625 68.046875 L 350.527344 68.046875 L 350.527344 67.886719 L 350.644531 67.886719 L 350.644531 67.730469 L 350.765625 67.730469 L 350.765625 67.574219 L 350.882812 67.574219 L 350.882812 67.421875 L 350.984375 67.421875 L 350.984375 67.265625 L 351.085938 67.265625 L 351.085938 67.113281 L 351.191406 67.113281 L 351.191406 66.960938 L 351.292969 66.960938 L 351.292969 66.808594 L 351.394531 66.808594 L 351.394531 66.65625 L 351.496094 66.65625 L 351.496094 66.507812 L 351.597656 66.507812 L 351.597656 66.359375 L 351.699219 66.359375 L 351.699219 66.210938 L 351.800781 66.210938 L 351.800781 66.0625 L 351.902344 66.0625 L 351.902344 65.917969 L 352.007812 65.917969 L 352.007812 65.769531 L 352.109375 65.769531 L 352.109375 65.625 L 352.210938 65.625 L 352.210938 65.480469 L 352.3125 65.480469 L 352.3125 65.335938 L 352.414062 65.335938 L 352.414062 65.195312 L 352.515625 65.195312 L 352.515625 65.054688 L 352.617188 65.054688 L 352.617188 64.910156 L 352.71875 64.910156 L 352.71875 64.769531 L 352.824219 64.769531 L 352.824219 64.632812 L 352.925781 64.632812 L 352.925781 64.492188 L 353.027344 64.492188 L 353.027344 64.351562 L 353.128906 64.351562 L 353.128906 64.214844 L 353.230469 64.214844 L 353.230469 64.078125 L 353.332031 64.078125 L 353.332031 63.941406 L 353.433594 63.941406 L 353.433594 63.804688 L 353.535156 63.804688 L 353.535156 63.671875 L 353.640625 63.671875 L 353.640625 63.535156 L 353.742188 63.535156 L 353.742188 63.402344 L 353.84375 63.402344 L 353.84375 63.269531 L 353.945312 63.269531 L 353.945312 63.136719 L 354.046875 63.136719 L 354.046875 63.003906 L 354.148438 63.003906 L 354.148438 62.875 L 354.25 62.875 L 354.25 62.742188 L 354.335938 62.742188 L 354.335938 62.613281 L 354.421875 62.613281 L 354.421875 62.484375 L 354.507812 62.484375 L 354.507812 62.355469 L 354.589844 62.355469 L 354.589844 62.226562 L 354.675781 62.226562 L 354.675781 62.101562 L 354.761719 62.101562 L 354.761719 61.972656 L 354.847656 61.972656 L 354.847656 61.847656 L 354.933594 61.847656 L 354.933594 61.722656 L 355.015625 61.722656 L 355.015625 61.597656 L 355.101562 61.597656 L 355.101562 61.472656 L 355.1875 61.472656 L 355.1875 61.347656 L 355.273438 61.347656 L 355.273438 61.222656 L 355.355469 61.222656 L 355.355469 61.101562 L 355.441406 61.101562 L 355.441406 60.976562 L 355.527344 60.976562 L 355.527344 60.855469 L 355.613281 60.855469 L 355.613281 60.734375 L 355.695312 60.734375 L 355.695312 60.613281 L 355.78125 60.613281 L 355.78125 60.496094 L 355.867188 60.496094 L 355.867188 60.375 L 355.953125 60.375 L 355.953125 60.253906 L 356.039062 60.253906 L 356.039062 60.136719 L 356.121094 60.136719 L 356.121094 60.019531 L 356.207031 60.019531 L 356.207031 59.902344 L 356.292969 59.902344 L 356.292969 59.785156 L 356.378906 59.785156 L 356.378906 59.667969 L 356.460938 59.667969 L 356.460938 59.550781 L 356.546875 59.550781 L 356.546875 59.433594 L 356.632812 59.433594 L 356.632812 59.320312 L 356.71875 59.320312 L 356.71875 59.207031 L 356.804688 59.207031 L 356.804688 59.089844 L 356.886719 59.089844 L 356.886719 58.976562 L 356.972656 58.976562 L 356.972656 58.863281 L 357.058594 58.863281 L 357.058594 58.75 L 357.144531 58.75 L 357.144531 58.640625 L 357.226562 58.640625 L 357.226562 58.527344 L 357.3125 58.527344 L 357.3125 58.414062 L 357.398438 58.414062 L 357.398438 58.304688 L 357.484375 58.304688 L 357.484375 58.195312 L 357.566406 58.195312 L 357.566406 58.085938 L 357.652344 58.085938 L 357.652344 57.976562 L 357.722656 57.976562 L 357.722656 57.867188 L 357.789062 57.867188 L 357.789062 57.757812 L 357.855469 57.757812 L 357.855469 57.648438 L 357.925781 57.648438 L 357.925781 57.539062 L 357.992188 57.539062 L 357.992188 57.433594 L 358.0625 57.433594 L 358.0625 57.324219 L 358.128906 57.324219 L 358.128906 57.21875 L 358.199219 57.21875 L 358.199219 57.113281 L 358.265625 57.113281 L 358.265625 57.007812 L 358.332031 57.007812 L 358.332031 56.902344 L 358.402344 56.902344 L 358.402344 56.796875 L 358.46875 56.796875 L 358.46875 56.691406 L 358.539062 56.691406 L 358.539062 56.589844 L 358.605469 56.589844 L 358.605469 56.484375 L 358.675781 56.484375 L 358.675781 56.378906 L 358.742188 56.378906 L 358.742188 56.277344 L 358.808594 56.277344 L 358.808594 56.175781 L 358.878906 56.175781 L 358.878906 56.074219 L 358.945312 56.074219 L 358.945312 55.972656 L 359.015625 55.972656 L 359.015625 55.871094 L 359.082031 55.871094 L 359.082031 55.769531 L 359.148438 55.769531 L 359.148438 55.667969 L 359.21875 55.667969 L 359.21875 55.566406 L 359.285156 55.566406 L 359.285156 55.46875 L 359.355469 55.46875 L 359.355469 55.367188 L 359.421875 55.367188 L 359.421875 55.269531 L 359.492188 55.269531 L 359.492188 55.167969 L 359.558594 55.167969 L 359.558594 55.070312 L 359.625 55.070312 L 359.625 54.972656 L 359.695312 54.972656 L 359.695312 54.875 L 359.761719 54.875 L 359.761719 54.777344 L 359.832031 54.777344 L 359.832031 54.679688 L 359.898438 54.679688 L 359.898438 54.582031 L 359.964844 54.582031 L 359.964844 54.488281 L 360.035156 54.488281 L 360.035156 54.390625 L 360.101562 54.390625 L 360.101562 54.292969 L 360.171875 54.292969 L 360.171875 54.199219 L 360.238281 54.199219 L 360.238281 54.105469 L 360.308594 54.105469 L 360.308594 54.007812 L 360.375 54.007812 L 360.375 53.914062 L 360.441406 53.914062 L 360.441406 53.820312 L 360.511719 53.820312 L 360.511719 53.726562 L 360.578125 53.726562 L 360.578125 53.632812 L 360.648438 53.632812 L 360.648438 53.539062 L 360.714844 53.539062 L 360.714844 53.449219 L 360.78125 53.449219 L 360.78125 53.355469 L 360.851562 53.355469 L 360.851562 53.261719 L 360.917969 53.261719 L 360.917969 53.171875 L 360.988281 53.171875 L 360.988281 53.078125 L 361.054688 53.078125 L 361.054688 52.988281 L 361.125 52.988281 L 361.125 52.898438 L 361.191406 52.898438 L 361.191406 52.804688 L 361.257812 52.804688 L 361.257812 52.714844 L 361.328125 52.714844 L 361.328125 52.625 L 361.394531 52.625 L 361.394531 52.535156 L 361.464844 52.535156 L 361.464844 52.445312 L 361.53125 52.445312 L 361.53125 52.355469 L 361.597656 52.355469 L 361.597656 52.269531 L 361.667969 52.269531 L 361.667969 52.179688 L 361.734375 52.179688 L 361.734375 52.089844 L 361.804688 52.089844 L 361.804688 52.003906 L 361.871094 52.003906 L 361.871094 51.914062 L 361.941406 51.914062 L 361.941406 51.828125 L 362.007812 51.828125 L 362.007812 51.738281 L 362.074219 51.738281 L 362.074219 51.652344 L 362.144531 51.652344 L 362.144531 51.566406 L 362.195312 51.566406 L 362.195312 51.480469 L 362.246094 51.480469 L 362.246094 51.394531 L 362.296875 51.394531 L 362.296875 51.308594 L 362.347656 51.308594 L 362.347656 51.222656 L 362.398438 51.222656 L 362.398438 51.136719 L 362.449219 51.136719 L 362.449219 51.050781 L 362.5 51.050781 L 362.5 50.96875 L 362.550781 50.96875 L 362.550781 50.882812 L 362.601562 50.882812 L 362.601562 50.796875 L 362.652344 50.796875 L 362.652344 50.714844 L 362.703125 50.714844 L 362.703125 50.628906 L 362.757812 50.628906 L 362.757812 50.546875 L 362.808594 50.546875 L 362.808594 50.464844 L 362.859375 50.464844 L 362.859375 50.378906 L 362.910156 50.378906 L 362.910156 50.296875 L 362.960938 50.296875 L 362.960938 50.214844 L 363.011719 50.214844 L 363.011719 50.132812 L 363.0625 50.132812 L 363.0625 50.050781 L 363.113281 50.050781 L 363.113281 49.96875 L 363.164062 49.96875 L 363.164062 49.886719 L 363.214844 49.886719 L 363.214844 49.804688 L 363.265625 49.804688 L 363.265625 49.726562 L 363.316406 49.726562 L 363.316406 49.644531 L 363.367188 49.644531 L 363.367188 49.5625 L 363.417969 49.5625 L 363.417969 49.484375 L 363.46875 49.484375 L 363.46875 49.402344 L 363.523438 49.402344 L 363.523438 49.324219 L 363.574219 49.324219 L 363.574219 49.242188 L 363.625 49.242188 L 363.625 49.164062 L 363.675781 49.164062 L 363.675781 49.085938 L 363.726562 49.085938 L 363.726562 49.007812 L 363.777344 49.007812 L 363.777344 48.929688 L 363.828125 48.929688 L 363.828125 48.847656 L 363.878906 48.847656 L 363.878906 48.769531 L 363.929688 48.769531 L 363.929688 48.691406 L 363.980469 48.691406 L 363.980469 48.617188 L 364.03125 48.617188 L 364.03125 48.539062 L 364.082031 48.539062 L 364.082031 48.460938 L 364.132812 48.460938 L 364.132812 48.382812 L 364.183594 48.382812 L 364.183594 48.304688 L 364.234375 48.304688 L 364.234375 48.230469 L 364.285156 48.230469 L 364.285156 48.152344 L 364.339844 48.152344 L 364.339844 48.078125 L 364.390625 48.078125 L 364.390625 48 L 364.441406 48 L 364.441406 47.925781 L 364.492188 47.925781 L 364.492188 47.847656 L 364.542969 47.847656 L 364.542969 47.773438 L 364.59375 47.773438 L 364.59375 47.699219 L 364.644531 47.699219 L 364.644531 47.625 L 364.695312 47.625 L 364.695312 47.546875 L 364.746094 47.546875 L 364.746094 47.472656 L 364.796875 47.472656 L 364.796875 47.398438 L 364.847656 47.398438 L 364.847656 47.324219 L 364.898438 47.324219 L 364.898438 47.25 L 364.949219 47.25 L 364.949219 47.175781 L 365 47.175781 L 365 47.105469 L 365.050781 47.105469 L 365.050781 47.03125 L 365.101562 47.03125 L 365.101562 46.957031 L 365.15625 46.957031 L 365.15625 46.882812 L 365.207031 46.882812 L 365.207031 46.8125 L 365.257812 46.8125 L 365.257812 46.738281 L 365.308594 46.738281 L 365.308594 46.664062 L 365.359375 46.664062 L 365.359375 46.59375 L 365.410156 46.59375 L 365.410156 46.523438 L 365.460938 46.523438 L 365.460938 46.449219 L 365.511719 46.449219 L 365.511719 46.378906 L 365.5625 46.378906 L 365.5625 46.304688 L 365.613281 46.304688 L 365.613281 46.234375 L 365.664062 46.234375 L 365.664062 46.164062 L 365.714844 46.164062 L 365.714844 46.09375 L 365.765625 46.09375 L 365.765625 46.023438 L 365.816406 46.023438 L 365.816406 45.953125 L 365.867188 45.953125 L 365.867188 45.882812 L 365.917969 45.882812 L 365.917969 45.8125 L 365.972656 45.8125 L 365.972656 45.742188 L 366.023438 45.742188 L 366.023438 45.671875 L 366.074219 45.671875 L 366.074219 45.601562 L 366.125 45.601562 L 366.125 45.53125 L 366.175781 45.53125 L 366.175781 45.460938 L 366.226562 45.460938 L 366.226562 45.394531 L 366.277344 45.394531 L 366.277344 45.324219 L 366.328125 45.324219 L 366.328125 45.253906 L 366.378906 45.253906 L 366.378906 45.1875 L 366.429688 45.1875 L 366.429688 45.117188 L 366.480469 45.117188 L 366.480469 45.050781 L 366.53125 45.050781 L 366.53125 44.980469 L 366.582031 44.980469 L 366.582031 44.914062 L 366.632812 44.914062 L 366.632812 44.847656 L 366.683594 44.847656 L 366.683594 44.777344 L 366.734375 44.777344 L 366.734375 44.710938 L 366.789062 44.710938 L 366.789062 44.644531 L 366.839844 44.644531 L 366.839844 44.578125 L 366.890625 44.578125 L 366.890625 44.511719 L 366.941406 44.511719 L 366.941406 44.441406 L 366.992188 44.441406 L 366.992188 44.375 L 367.042969 44.375 L 367.042969 44.308594 L 367.09375 44.308594 L 367.09375 44.242188 L 367.144531 44.242188 L 367.144531 44.175781 L 367.195312 44.175781 L 367.195312 44.113281 L 367.246094 44.113281 L 367.246094 44.046875 L 367.296875 44.046875 L 367.296875 43.980469 L 367.347656 43.980469 L 367.347656 43.914062 L 367.398438 43.914062 L 367.398438 43.847656 L 367.449219 43.847656 L 367.449219 43.785156 L 367.5 43.785156 L 367.5 43.71875 L 367.554688 43.71875 L 367.554688 43.652344 L 367.605469 43.652344 L 367.605469 43.589844 L 367.65625 43.589844 L 367.65625 43.523438 L 367.707031 43.523438 L 367.707031 43.460938 L 367.757812 43.460938 L 367.757812 43.394531 L 367.808594 43.394531 L 367.808594 43.332031 L 367.859375 43.332031 L 367.859375 43.269531 L 367.910156 43.269531 L 367.910156 43.203125 L 367.960938 43.203125 L 367.960938 43.140625 L 368.011719 43.140625 L 368.011719 43.078125 L 368.0625 43.078125 L 368.0625 43.011719 L 368.113281 43.011719 L 368.113281 42.949219 L 368.164062 42.949219 L 368.164062 42.886719 L 368.214844 42.886719 L 368.214844 42.824219 L 368.265625 42.824219 L 368.265625 42.761719 L 368.316406 42.761719 L 368.316406 42.699219 L 368.371094 42.699219 L 368.371094 42.636719 L 368.421875 42.636719 L 368.421875 42.574219 L 368.472656 42.574219 L 368.472656 42.511719 L 368.523438 42.511719 L 368.523438 42.449219 L 368.574219 42.449219 L 368.574219 42.386719 L 368.625 42.386719 L 368.625 42.324219 L 368.675781 42.324219 L 368.675781 42.265625 L 368.710938 42.265625 L 368.710938 42.203125 L 368.742188 42.203125 L 368.742188 42.140625 L 368.777344 42.140625 L 368.777344 42.078125 L 368.8125 42.078125 L 368.8125 42.019531 L 368.84375 42.019531 L 368.84375 41.957031 L 368.878906 41.957031 L 368.878906 41.898438 L 368.914062 41.898438 L 368.914062 41.835938 L 368.949219 41.835938 L 368.949219 41.777344 L 368.980469 41.777344 L 368.980469 41.714844 L 369.015625 41.714844 L 369.015625 41.65625 L 369.050781 41.65625 L 369.050781 41.59375 L 369.082031 41.59375 L 369.082031 41.535156 L 369.117188 41.535156 L 369.117188 41.476562 L 369.152344 41.476562 L 369.152344 41.414062 L 369.1875 41.414062 L 369.1875 41.355469 L 369.21875 41.355469 L 369.21875 41.296875 L 369.253906 41.296875 L 369.253906 41.234375 L 369.289062 41.234375 L 369.289062 41.175781 L 369.320312 41.175781 L 369.320312 41.117188 L 369.355469 41.117188 L 369.355469 41.058594 L 369.390625 41.058594 L 369.390625 41 L 369.421875 41 L 369.421875 40.941406 L 369.457031 40.941406 L 369.457031 40.882812 L 369.492188 40.882812 L 369.492188 40.824219 L 369.527344 40.824219 L 369.527344 40.765625 L 369.558594 40.765625 L 369.558594 40.707031 L 369.59375 40.707031 L 369.59375 40.648438 L 369.628906 40.648438 L 369.628906 40.589844 L 369.660156 40.589844 L 369.660156 40.535156 L 369.695312 40.535156 L 369.695312 40.476562 L 369.730469 40.476562 L 369.730469 40.417969 L 369.765625 40.417969 L 369.765625 40.359375 L 369.796875 40.359375 L 369.796875 40.304688 L 369.832031 40.304688 L 369.832031 40.246094 L 369.867188 40.246094 L 369.867188 40.1875 L 369.898438 40.1875 L 369.898438 40.132812 L 369.933594 40.132812 L 369.933594 40.074219 L 369.96875 40.074219 L 369.96875 40.019531 L 370.003906 40.019531 L 370.003906 39.960938 L 370.035156 39.960938 L 370.035156 39.90625 L 370.070312 39.90625 L 370.070312 39.847656 L 370.105469 39.847656 L 370.105469 39.792969 L 370.136719 39.792969 L 370.136719 39.734375 L 370.171875 39.734375 L 370.171875 39.679688 L 370.207031 39.679688 L 370.207031 39.625 L 370.242188 39.625 L 370.242188 39.566406 L 370.273438 39.566406 L 370.273438 39.511719 L 370.308594 39.511719 L 370.308594 39.457031 L 370.34375 39.457031 L 370.34375 39.402344 L 370.375 39.402344 L 370.375 39.34375 L 370.410156 39.34375 L 370.410156 39.289062 L 370.445312 39.289062 L 370.445312 39.234375 L 370.476562 39.234375 L 370.476562 39.179688 L 370.511719 39.179688 L 370.511719 39.125 L 370.546875 39.125 L 370.546875 39.070312 L 370.582031 39.070312 L 370.582031 39.015625 L 370.613281 39.015625 L 370.613281 38.960938 L 370.648438 38.960938 L 370.648438 38.90625 L 370.683594 38.90625 L 370.683594 38.851562 L 370.714844 38.851562 L 370.714844 38.796875 L 370.75 38.796875 L 370.75 38.742188 L 370.785156 38.742188 L 370.785156 38.6875 L 370.820312 38.6875 L 370.820312 38.632812 L 370.851562 38.632812 L 370.851562 38.582031 L 370.886719 38.582031 L 370.886719 38.527344 L 370.921875 38.527344 L 370.921875 38.472656 L 370.953125 38.472656 L 370.953125 38.417969 L 370.988281 38.417969 L 370.988281 38.367188 L 371.023438 38.367188 L 371.023438 38.3125 L 371.058594 38.3125 L 371.058594 38.257812 L 371.089844 38.257812 L 371.089844 38.207031 L 371.125 38.207031 L 371.125 38.152344 L 371.160156 38.152344 L 371.160156 38.101562 L 371.191406 38.101562 L 371.191406 38.046875 L 371.226562 38.046875 L 371.226562 37.996094 L 371.261719 37.996094 L 371.261719 37.941406 L 371.292969 37.941406 L 371.292969 37.890625 L 371.328125 37.890625 L 371.328125 37.835938 L 371.363281 37.835938 L 371.363281 37.785156 L 371.398438 37.785156 L 371.398438 37.734375 L 371.429688 37.734375 L 371.429688 37.679688 L 371.464844 37.679688 L 371.464844 37.628906 L 371.5 37.628906 L 371.5 37.578125 L 371.53125 37.578125 L 371.53125 37.523438 L 371.566406 37.523438 L 371.566406 37.472656 L 371.601562 37.472656 L 371.601562 37.421875 L 371.636719 37.421875 L 371.636719 37.371094 L 371.667969 37.371094 L 371.667969 37.316406 L 371.703125 37.316406 L 371.703125 37.265625 L 371.738281 37.265625 L 371.738281 37.214844 L 371.769531 37.214844 L 371.769531 37.164062 L 371.804688 37.164062 L 371.804688 37.113281 L 371.839844 37.113281 L 371.839844 37.0625 L 371.875 37.0625 L 371.875 37.011719 L 371.90625 37.011719 L 371.90625 36.960938 L 371.941406 36.960938 L 371.941406 36.910156 L 371.976562 36.910156 L 371.976562 36.859375 L 372.007812 36.859375 L 372.007812 36.808594 L 372.042969 36.808594 L 372.042969 36.757812 L 372.078125 36.757812 L 372.078125 36.707031 L 372.109375 36.707031 L 372.109375 36.65625 L 372.144531 36.65625 L 372.144531 36.609375 L 372.179688 36.609375 L 372.179688 36.558594 L 372.214844 36.558594 L 372.214844 36.507812 L 372.246094 36.507812 L 372.246094 36.457031 L 372.28125 36.457031 L 372.28125 36.40625 L 372.316406 36.40625 L 372.316406 36.359375 L 372.347656 36.359375 L 372.347656 36.308594 L 372.382812 36.308594 L 372.382812 36.257812 L 372.417969 36.257812 L 372.417969 36.210938 L 372.453125 36.210938 L 372.453125 36.160156 L 372.484375 36.160156 L 372.484375 36.109375 L 372.519531 36.109375 L 372.519531 36.0625 L 372.554688 36.0625 L 372.554688 36.011719 L 372.585938 36.011719 L 372.585938 35.964844 L 372.621094 35.964844 L 372.621094 35.914062 L 372.65625 35.914062 L 372.65625 35.867188 L 372.691406 35.867188 L 372.691406 35.816406 L 372.722656 35.816406 L 372.722656 35.769531 L 372.757812 35.769531 L 372.757812 35.71875 L 372.792969 35.71875 L 372.792969 35.671875 L 372.824219 35.671875 L 372.824219 35.625 L 372.859375 35.625 L 372.859375 35.574219 L 372.894531 35.574219 L 372.894531 35.527344 L 372.925781 35.527344 L 372.925781 35.480469 L 372.960938 35.480469 L 372.960938 35.429688 L 372.996094 35.429688 L 372.996094 35.382812 L 373.03125 35.382812 L 373.03125 35.335938 L 373.0625 35.335938 L 373.0625 35.289062 L 373.097656 35.289062 L 373.097656 35.238281 L 373.132812 35.238281 L 373.132812 35.191406 L 373.164062 35.191406 L 373.164062 35.144531 L 373.199219 35.144531 L 373.199219 35.097656 L 373.234375 35.097656 L 373.234375 35.050781 L 373.269531 35.050781 L 373.269531 35.003906 L 373.300781 35.003906 L 373.300781 34.957031 L 373.335938 34.957031 L 373.335938 34.90625 L 373.371094 34.90625 L 373.371094 34.859375 L 373.402344 34.859375 L 373.402344 34.8125 L 373.4375 34.8125 L 373.4375 34.765625 L 373.472656 34.765625 L 373.472656 34.71875 L 373.507812 34.71875 L 373.507812 34.671875 L 373.539062 34.671875 L 373.539062 34.628906 L 373.574219 34.628906 L 373.574219 34.582031 L 373.609375 34.582031 L 373.609375 34.535156 L 373.640625 34.535156 L 373.640625 34.488281 L 373.675781 34.488281 L 373.675781 34.441406 L 373.710938 34.441406 L 373.710938 34.394531 L 373.726562 34.394531 L 373.726562 34.347656 L 373.746094 34.347656 L 373.746094 34.304688 L 373.761719 34.304688 L 373.761719 34.257812 L 373.777344 34.257812 L 373.777344 34.210938 L 373.796875 34.210938 L 373.796875 34.164062 L 373.8125 34.164062 L 373.8125 34.121094 L 373.828125 34.121094 L 373.828125 34.074219 L 373.847656 34.074219 L 373.847656 34.027344 L 373.863281 34.027344 L 373.863281 33.980469 L 373.878906 33.980469 L 373.878906 33.9375 L 373.898438 33.9375 L 373.898438 33.890625 L 373.914062 33.890625 L 373.914062 33.847656 L 373.929688 33.847656 L 373.929688 33.800781 L 373.949219 33.800781 L 373.949219 33.753906 L 373.964844 33.753906 L 373.964844 33.710938 L 373.980469 33.710938 L 373.980469 33.664062 L 374 33.664062 L 374 33.621094 L 374.015625 33.621094 L 374.015625 33.574219 L 374.035156 33.574219 L 374.035156 33.53125 L 374.050781 33.53125 L 374.050781 33.484375 L 374.066406 33.484375 L 374.066406 33.441406 L 374.085938 33.441406 L 374.085938 33.398438 L 374.101562 33.398438 L 374.101562 33.351562 L 374.117188 33.351562 L 374.117188 33.308594 L 374.136719 33.308594 L 374.136719 33.265625 L 374.152344 33.265625 L 374.152344 33.21875 L 374.167969 33.21875 L 374.167969 33.175781 L 374.1875 33.175781 L 374.1875 33.132812 L 374.203125 33.132812 L 374.203125 33.085938 L 374.21875 33.085938 L 374.21875 33.042969 L 374.238281 33.042969 L 374.238281 33 L 374.253906 33 L 374.253906 32.957031 L 374.269531 32.957031 L 374.269531 32.910156 L 374.289062 32.910156 L 374.289062 32.867188 L 374.304688 32.867188 L 374.304688 32.824219 L 374.324219 32.824219 L 374.324219 32.78125 L 374.339844 32.78125 L 374.339844 32.738281 L 374.355469 32.738281 L 374.355469 32.691406 L 374.375 32.691406 L 374.375 32.648438 L 374.390625 32.648438 L 374.390625 32.605469 L 374.40625 32.605469 L 374.40625 32.5625 L 374.425781 32.5625 L 374.425781 32.519531 L 374.441406 32.519531 L 374.441406 32.476562 L 374.457031 32.476562 L 374.457031 32.433594 L 374.476562 32.433594 L 374.476562 32.390625 L 374.492188 32.390625 L 374.492188 32.347656 L 374.507812 32.347656 L 374.507812 32.304688 L 374.527344 32.304688 L 374.527344 32.261719 L 374.542969 32.261719 L 374.542969 32.21875 L 374.5625 32.21875 L 374.5625 32.175781 L 374.578125 32.175781 L 374.578125 32.132812 L 374.59375 32.132812 L 374.59375 32.09375 "/>
</g>
<g clip-path="url(#clip-47)">
<path fill="none" stroke-width="1.066978" stroke-linecap="butt" stroke-linejoin="round" stroke="rgb(66.27451%, 66.27451%, 66.27451%)" stroke-opacity="1" stroke-dasharray="4.267913 4.267913" stroke-miterlimit="10" d="M 310.890625 217.847656 L 310.890625 23.246094 "/>
</g>
<g fill="rgb(10.196078%, 10.196078%, 10.196078%)" fill-opacity="1">
<use xlink:href="#glyph-0-0" x="198.335938" y="17.27832"/>
<use xlink:href="#glyph-0-1" x="205.335938" y="17.27832"/>
<use xlink:href="#glyph-0-2" x="210.335938" y="17.27832"/>
<use xlink:href="#glyph-0-1" x="212.335938" y="17.27832"/>
<use xlink:href="#glyph-0-3" x="217.335938" y="17.27832"/>
<use xlink:href="#glyph-0-4" x="221.335938" y="17.27832"/>
<use xlink:href="#glyph-0-5" x="225.335938" y="17.27832"/>
<use xlink:href="#glyph-0-1" x="227.335938" y="17.27832"/>
</g>
<g fill="rgb(30.196078%, 30.196078%, 30.196078%)" fill-opacity="1">
<use xlink:href="#glyph-0-6" x="49.578125" y="229.196289"/>
<use xlink:href="#glyph-0-7" x="54.578125" y="229.196289"/>
</g>
<g fill="rgb(30.196078%, 30.196078%, 30.196078%)" fill-opacity="1">
<use xlink:href="#glyph-0-8" x="110.78125" y="229.196289"/>
<use xlink:href="#glyph-0-6" x="115.78125" y="229.196289"/>
<use xlink:href="#glyph-0-7" x="120.78125" y="229.196289"/>
</g>
<g fill="rgb(30.196078%, 30.196078%, 30.196078%)" fill-opacity="1">
<use xlink:href="#glyph-0-9" x="174.484375" y="229.196289"/>
<use xlink:href="#glyph-0-6" x="179.484375" y="229.196289"/>
<use xlink:href="#glyph-0-7" x="184.484375" y="229.196289"/>
</g>
<g fill="rgb(30.196078%, 30.196078%, 30.196078%)" fill-opacity="1">
<use xlink:href="#glyph-0-10" x="238.1875" y="229.196289"/>
<use xlink:href="#glyph-0-6" x="243.1875" y="229.196289"/>
<use xlink:href="#glyph-0-7" x="248.1875" y="229.196289"/>
</g>
<g fill="rgb(30.196078%, 30.196078%, 30.196078%)" fill-opacity="1">
<use xlink:href="#glyph-0-11" x="301.890625" y="229.196289"/>
<use xlink:href="#glyph-0-6" x="306.890625" y="229.196289"/>
<use xlink:href="#glyph-0-7" x="311.890625" y="229.196289"/>
</g>
<g fill="rgb(30.196078%, 30.196078%, 30.196078%)" fill-opacity="1">
<use xlink:href="#glyph-0-12" x="363.09375" y="229.196289"/>
<use xlink:href="#glyph-0-6" x="368.09375" y="229.196289"/>
<use xlink:href="#glyph-0-6" x="373.09375" y="229.196289"/>
<use xlink:href="#glyph-0-7" x="378.09375" y="229.196289"/>
</g>
<g fill="rgb(30.196078%, 30.196078%, 30.196078%)" fill-opacity="1">
<use xlink:href="#glyph-0-12" x="30.21875" y="211.918945"/>
</g>
<g fill="rgb(30.196078%, 30.196078%, 30.196078%)" fill-opacity="1">
<use xlink:href="#glyph-0-8" x="30.21875" y="192.958008"/>
</g>
<g fill="rgb(30.196078%, 30.196078%, 30.196078%)" fill-opacity="1">
<use xlink:href="#glyph-0-13" x="30.21875" y="181.868164"/>
</g>
<g fill="rgb(30.196078%, 30.196078%, 30.196078%)" fill-opacity="1">
<use xlink:href="#glyph-0-9" x="30.21875" y="174.000977"/>
</g>
<g fill="rgb(30.196078%, 30.196078%, 30.196078%)" fill-opacity="1">
<use xlink:href="#glyph-0-14" x="30.21875" y="167.895508"/>
</g>
<g fill="rgb(30.196078%, 30.196078%, 30.196078%)" fill-opacity="1">
<use xlink:href="#glyph-0-15" x="30.21875" y="158.692383"/>
</g>
<g fill="rgb(30.196078%, 30.196078%, 30.196078%)" fill-opacity="1">
<use xlink:href="#glyph-0-12" x="25.21875" y="148.93457"/>
<use xlink:href="#glyph-0-6" x="30.21875" y="148.93457"/>
</g>
<g fill="rgb(30.196078%, 30.196078%, 30.196078%)" fill-opacity="1">
<use xlink:href="#glyph-0-8" x="25.21875" y="129.977539"/>
<use xlink:href="#glyph-0-6" x="30.21875" y="129.977539"/>
</g>
<g fill="rgb(30.196078%, 30.196078%, 30.196078%)" fill-opacity="1">
<use xlink:href="#glyph-0-13" x="25.21875" y="118.883789"/>
<use xlink:href="#glyph-0-6" x="30.21875" y="118.883789"/>
</g>
<g fill="rgb(30.196078%, 30.196078%, 30.196078%)" fill-opacity="1">
<use xlink:href="#glyph-0-9" x="25.21875" y="111.016602"/>
<use xlink:href="#glyph-0-6" x="30.21875" y="111.016602"/>
</g>
<g fill="rgb(30.196078%, 30.196078%, 30.196078%)" fill-opacity="1">
<use xlink:href="#glyph-0-14" x="25.21875" y="104.911133"/>
<use xlink:href="#glyph-0-6" x="30.21875" y="104.911133"/>
</g>
<g fill="rgb(30.196078%, 30.196078%, 30.196078%)" fill-opacity="1">
<use xlink:href="#glyph-0-15" x="25.21875" y="95.708008"/>
<use xlink:href="#glyph-0-6" x="30.21875" y="95.708008"/>
</g>
<g fill="rgb(30.196078%, 30.196078%, 30.196078%)" fill-opacity="1">
<use xlink:href="#glyph-0-12" x="20.21875" y="85.954102"/>
<use xlink:href="#glyph-0-6" x="25.21875" y="85.954102"/>
<use xlink:href="#glyph-0-6" x="30.21875" y="85.954102"/>
</g>
<g fill="rgb(30.196078%, 30.196078%, 30.196078%)" fill-opacity="1">
<use xlink:href="#glyph-0-8" x="20.21875" y="66.993164"/>
<use xlink:href="#glyph-0-6" x="25.21875" y="66.993164"/>
<use xlink:href="#glyph-0-6" x="30.21875" y="66.993164"/>
</g>
<g fill="rgb(30.196078%, 30.196078%, 30.196078%)" fill-opacity="1">
<use xlink:href="#glyph-0-13" x="20.21875" y="55.90332"/>
<use xlink:href="#glyph-0-6" x="25.21875" y="55.90332"/>
<use xlink:href="#glyph-0-6" x="30.21875" y="55.90332"/>
</g>
<g fill="rgb(30.196078%, 30.196078%, 30.196078%)" fill-opacity="1">
<use xlink:href="#glyph-0-9" x="20.21875" y="48.032227"/>
<use xlink:href="#glyph-0-6" x="25.21875" y="48.032227"/>
<use xlink:href="#glyph-0-6" x="30.21875" y="48.032227"/>
</g>
<g fill="rgb(30.196078%, 30.196078%, 30.196078%)" fill-opacity="1">
<use xlink:href="#glyph-0-14" x="20.21875" y="41.930664"/>
<use xlink:href="#glyph-0-6" x="25.21875" y="41.930664"/>
<use xlink:href="#glyph-0-6" x="30.21875" y="41.930664"/>
</g>
<g fill="rgb(30.196078%, 30.196078%, 30.196078%)" fill-opacity="1">
<use xlink:href="#glyph-0-15" x="20.21875" y="32.727539"/>
<use xlink:href="#glyph-0-6" x="25.21875" y="32.727539"/>
<use xlink:href="#glyph-0-6" x="30.21875" y="32.727539"/>
</g>
<g fill="rgb(0%, 0%, 0%)" fill-opacity="1">
<use xlink:href="#glyph-1-0" x="152.835938" y="242.538086"/>
<use xlink:href="#glyph-1-1" x="162.835938" y="242.538086"/>
<use xlink:href="#glyph-1-2" x="165.835938" y="242.538086"/>
<use xlink:href="#glyph-1-3" x="169.835938" y="242.538086"/>
<use xlink:href="#glyph-1-4" x="175.835938" y="242.538086"/>
<use xlink:href="#glyph-1-3" x="177.835938" y="242.538086"/>
<use xlink:href="#glyph-1-5" x="183.835938" y="242.538086"/>
<use xlink:href="#glyph-1-6" x="188.835938" y="242.538086"/>
<use xlink:href="#glyph-1-7" x="194.835938" y="242.538086"/>
<use xlink:href="#glyph-1-8" x="200.835938" y="242.538086"/>
<use xlink:href="#glyph-1-3" x="206.835938" y="242.538086"/>
<use xlink:href="#glyph-1-1" x="212.835938" y="242.538086"/>
<use xlink:href="#glyph-1-6" x="215.835938" y="242.538086"/>
<use xlink:href="#glyph-1-8" x="221.835938" y="242.538086"/>
<use xlink:href="#glyph-1-8" x="227.835938" y="242.538086"/>
<use xlink:href="#glyph-1-9" x="233.835938" y="242.538086"/>
<use xlink:href="#glyph-1-10" x="239.835938" y="242.538086"/>
<use xlink:href="#glyph-1-9" x="248.835938" y="242.538086"/>
<use xlink:href="#glyph-1-4" x="254.835938" y="242.538086"/>
<use xlink:href="#glyph-1-6" x="256.835938" y="242.538086"/>
<use xlink:href="#glyph-1-11" x="262.835938" y="242.538086"/>
<use xlink:href="#glyph-1-3" x="265.835938" y="242.538086"/>
<use xlink:href="#glyph-1-12" x="271.835938" y="242.538086"/>
</g>
<g fill="rgb(0%, 0%, 0%)" fill-opacity="1">
<use xlink:href="#glyph-2-0" x="13.499023" y="178.046875"/>
<use xlink:href="#glyph-2-1" x="13.499023" y="171.046875"/>
<use xlink:href="#glyph-2-2" x="13.499023" y="165.046875"/>
<use xlink:href="#glyph-2-3" x="13.499023" y="162.046875"/>
<use xlink:href="#glyph-2-4" x="13.499023" y="156.046875"/>
<use xlink:href="#glyph-2-1" x="13.499023" y="153.046875"/>
<use xlink:href="#glyph-2-5" x="13.499023" y="147.046875"/>
<use xlink:href="#glyph-2-6" x="13.499023" y="141.046875"/>
<use xlink:href="#glyph-2-3" x="13.499023" y="135.046875"/>
<use xlink:href="#glyph-2-7" x="13.499023" y="129.046875"/>
<use xlink:href="#glyph-2-8" x="13.499023" y="123.046875"/>
<use xlink:href="#glyph-2-4" x="13.499023" y="117.046875"/>
<use xlink:href="#glyph-2-9" x="13.499023" y="114.046875"/>
<use xlink:href="#glyph-2-10" x="13.499023" y="110.046875"/>
<use xlink:href="#glyph-2-6" x="13.499023" y="108.046875"/>
<use xlink:href="#glyph-2-11" x="13.499023" y="102.046875"/>
<use xlink:href="#glyph-2-4" x="13.499023" y="96.046875"/>
<use xlink:href="#glyph-2-3" x="13.499023" y="93.046875"/>
<use xlink:href="#glyph-2-1" x="13.499023" y="87.046875"/>
<use xlink:href="#glyph-2-12" x="13.499023" y="81.046875"/>
<use xlink:href="#glyph-2-10" x="13.499023" y="75.046875"/>
<use xlink:href="#glyph-2-7" x="13.499023" y="73.046875"/>
<use xlink:href="#glyph-2-13" x="13.499023" y="67.046875"/>
</g>
</svg>
