<?xml version="1.0" encoding="UTF-8"?>
<svg xmlns="http://www.w3.org/2000/svg" xmlns:xlink="http://www.w3.org/1999/xlink" width="396" height="252" viewBox="0 0 396 252">
<defs>
<g>
<g id="glyph-0-0">
<path d="M 2.421875 -6.359375 C 1.84375 -6.359375 1.3125 -6.09375 0.984375 -5.671875 C 0.578125 -5.109375 0.375 -4.25 0.375 -3.078125 C 0.375 -0.9375 1.078125 0.203125 2.421875 0.203125 C 3.734375 0.203125 4.453125 -0.9375 4.453125 -3.03125 C 4.453125 -4.25 4.265625 -5.078125 3.859375 -5.671875 C 3.53125 -6.109375 3.015625 -6.359375 2.421875 -6.359375 Z M 2.421875 -5.671875 C 3.25 -5.671875 3.671875 -4.828125 3.671875 -3.09375 C 3.671875 -1.28125 3.265625 -0.4375 2.40625 -0.4375 C 1.578125 -0.4375 1.171875 -1.3125 1.171875 -3.0625 C 1.171875 -4.828125 1.578125 -5.671875 2.421875 -5.671875 Z M 2.421875 -5.671875 "/>
</g>
<g id="glyph-0-1">
<path d="M 2.28125 -4.53125 L 2.28125 0 L 3.046875 0 L 3.046875 -6.359375 L 2.546875 -6.359375 C 2.265625 -5.390625 2.09375 -5.25 0.890625 -5.09375 L 0.890625 -4.53125 Z M 2.28125 -4.53125 "/>
</g>
<g id="glyph-0-2">
<path d="M 4.453125 -0.765625 L 1.171875 -0.765625 C 1.25 -1.296875 1.53125 -1.625 2.296875 -2.09375 L 3.171875 -2.59375 C 4.046875 -3.0625 4.5 -3.71875 4.5 -4.5 C 4.5 -5.03125 4.28125 -5.53125 3.921875 -5.875 C 3.546875 -6.203125 3.09375 -6.359375 2.5 -6.359375 C 1.703125 -6.359375 1.125 -6.078125 0.78125 -5.53125 C 0.546875 -5.203125 0.453125 -4.796875 0.4375 -4.15625 L 1.21875 -4.15625 C 1.234375 -4.59375 1.296875 -4.84375 1.40625 -5.0625 C 1.59375 -5.4375 2 -5.6875 2.46875 -5.6875 C 3.171875 -5.6875 3.703125 -5.171875 3.703125 -4.484375 C 3.703125 -3.96875 3.40625 -3.53125 2.859375 -3.21875 L 2.046875 -2.75 C 0.75 -2 0.375 -1.40625 0.296875 -0.015625 L 4.453125 -0.015625 Z M 4.453125 -0.765625 "/>
</g>
<g id="glyph-0-3">
<path d="M 1.9375 -2.921875 L 2.359375 -2.921875 C 3.203125 -2.921875 3.65625 -2.53125 3.65625 -1.765625 C 3.65625 -0.96875 3.171875 -0.484375 2.375 -0.484375 C 1.515625 -0.484375 1.109375 -0.921875 1.0625 -1.84375 L 0.28125 -1.84375 C 0.3125 -1.34375 0.40625 -1 0.546875 -0.71875 C 0.875 -0.109375 1.484375 0.203125 2.34375 0.203125 C 3.625 0.203125 4.453125 -0.578125 4.453125 -1.78125 C 4.453125 -2.59375 4.140625 -3.03125 3.390625 -3.296875 C 3.96875 -3.53125 4.265625 -3.96875 4.265625 -4.609375 C 4.265625 -5.703125 3.546875 -6.359375 2.359375 -6.359375 C 1.109375 -6.359375 0.4375 -5.65625 0.40625 -4.3125 L 1.1875 -4.3125 C 1.203125 -4.703125 1.234375 -4.921875 1.328125 -5.109375 C 1.5 -5.46875 1.890625 -5.6875 2.375 -5.6875 C 3.0625 -5.6875 3.46875 -5.265625 3.46875 -4.578125 C 3.46875 -4.140625 3.3125 -3.859375 2.96875 -3.71875 C 2.765625 -3.625 2.484375 -3.59375 1.9375 -3.578125 Z M 1.9375 -2.921875 "/>
</g>
<g id="glyph-0-4">
<path d="M 2.875 -1.546875 L 2.875 0 L 3.65625 0 L 3.65625 -1.546875 L 4.578125 -1.546875 L 4.578125 -2.234375 L 3.65625 -2.234375 L 3.65625 -6.359375 L 3.078125 -6.359375 L 0.25 -2.359375 L 0.25 -1.546875 Z M 2.875 -2.234375 L 0.921875 -2.234375 L 2.875 -5.046875 Z M 2.875 -2.234375 "/>
</g>
<g id="glyph-0-5">
<path d="M 4.1875 -6.234375 L 0.96875 -6.234375 L 0.5 -2.84375 L 1.21875 -2.84375 C 1.578125 -3.265625 1.875 -3.421875 2.359375 -3.421875 C 3.203125 -3.421875 3.71875 -2.84375 3.71875 -1.921875 C 3.71875 -1.03125 3.203125 -0.484375 2.359375 -0.484375 C 1.6875 -0.484375 1.265625 -0.828125 1.078125 -1.53125 L 0.3125 -1.53125 C 0.40625 -1.015625 0.5 -0.78125 0.6875 -0.546875 C 1.03125 -0.078125 1.671875 0.203125 2.375 0.203125 C 3.640625 0.203125 4.515625 -0.71875 4.515625 -2.03125 C 4.515625 -3.265625 3.6875 -4.109375 2.5 -4.109375 C 2.0625 -4.109375 1.703125 -4 1.34375 -3.734375 L 1.59375 -5.46875 L 4.1875 -5.46875 Z M 4.1875 -6.234375 "/>
</g>
<g id="glyph-0-6">
<path d="M 1.75 -6.03125 C 0.921875 -6.03125 0.25 -5.34375 0.25 -4.515625 C 0.25 -3.6875 0.921875 -3.015625 1.765625 -3.015625 C 2.578125 -3.015625 3.25 -3.6875 3.25 -4.5 C 3.25 -5.359375 2.59375 -6.03125 1.75 -6.03125 Z M 1.75 -5.40625 C 2.25 -5.40625 2.640625 -5.015625 2.640625 -4.515625 C 2.640625 -4.03125 2.25 -3.640625 1.765625 -3.640625 C 1.265625 -3.640625 0.859375 -4.03125 0.859375 -4.515625 C 0.859375 -5.015625 1.265625 -5.40625 1.75 -5.40625 Z M 5.359375 -6.234375 L 1.875 0.171875 L 2.46875 0.171875 L 5.9375 -6.234375 Z M 6.046875 -2.828125 C 5.21875 -2.828125 4.5625 -2.15625 4.5625 -1.34375 C 4.5625 -0.5 5.21875 0.171875 6.0625 0.171875 C 6.875 0.171875 7.5625 -0.5 7.5625 -1.3125 C 7.5625 -2.15625 6.890625 -2.828125 6.046875 -2.828125 Z M 6.046875 -2.21875 C 6.546875 -2.21875 6.953125 -1.828125 6.953125 -1.3125 C 6.953125 -0.84375 6.546875 -0.453125 6.0625 -0.453125 C 5.5625 -0.453125 5.15625 -0.84375 5.15625 -1.34375 C 5.15625 -1.828125 5.5625 -2.21875 6.046875 -2.21875 Z M 6.046875 -2.21875 "/>
</g>
<g id="glyph-0-7">
<path d="M 4.375 -4.703125 C 4.234375 -5.75 3.5625 -6.359375 2.609375 -6.359375 C 1.921875 -6.359375 1.3125 -6.03125 0.9375 -5.453125 C 0.546875 -4.828125 0.375 -4.0625 0.375 -2.90625 C 0.375 -1.828125 0.53125 -1.15625 0.90625 -0.59375 C 1.234375 -0.078125 1.78125 0.203125 2.46875 0.203125 C 3.65625 0.203125 4.515625 -0.6875 4.515625 -1.921875 C 4.515625 -3.09375 3.71875 -3.921875 2.609375 -3.921875 C 1.984375 -3.921875 1.5 -3.6875 1.171875 -3.234375 C 1.171875 -4.796875 1.671875 -5.671875 2.5625 -5.671875 C 3.109375 -5.671875 3.484375 -5.328125 3.609375 -4.703125 Z M 2.5 -3.234375 C 3.25 -3.234375 3.71875 -2.703125 3.71875 -1.859375 C 3.71875 -1.0625 3.1875 -0.484375 2.484375 -0.484375 C 1.765625 -0.484375 1.21875 -1.09375 1.21875 -1.90625 C 1.21875 -2.6875 1.734375 -3.234375 2.5 -3.234375 Z M 2.5 -3.234375 "/>
</g>
<g id="glyph-0-8">
<path d="M 4.578125 -6.234375 L 0.40625 -6.234375 L 0.40625 -5.46875 L 3.78125 -5.46875 C 2.28125 -3.359375 1.6875 -2.046875 1.21875 0 L 2.046875 0 C 2.390625 -2 3.171875 -3.71875 4.578125 -5.59375 Z M 4.578125 -6.234375 "/>
</g>
<g id="glyph-0-9">
<path d="M 3.4375 -3.359375 C 4.09375 -3.75 4.296875 -4.0625 4.296875 -4.65625 C 4.296875 -5.671875 3.53125 -6.359375 2.421875 -6.359375 C 1.3125 -6.359375 0.546875 -5.671875 0.546875 -4.671875 C 0.546875 -4.0625 0.75 -3.75 1.390625 -3.359375 C 0.671875 -2.984375 0.328125 -2.46875 0.328125 -1.765625 C 0.328125 -0.609375 1.171875 0.203125 2.421875 0.203125 C 3.65625 0.203125 4.515625 -0.609375 4.515625 -1.765625 C 4.515625 -2.46875 4.15625 -2.984375 3.4375 -3.359375 Z M 2.421875 -5.671875 C 3.078125 -5.671875 3.5 -5.28125 3.5 -4.640625 C 3.5 -4.046875 3.0625 -3.65625 2.421875 -3.65625 C 1.765625 -3.65625 1.34375 -4.046875 1.34375 -4.65625 C 1.34375 -5.28125 1.765625 -5.671875 2.421875 -5.671875 Z M 2.421875 -3 C 3.1875 -3 3.71875 -2.484375 3.71875 -1.75 C 3.71875 -0.984375 3.203125 -0.484375 2.40625 -0.484375 C 1.640625 -0.484375 1.125 -1 1.125 -1.734375 C 1.125 -2.5 1.640625 -3 2.421875 -3 Z M 2.421875 -3 "/>
</g>
<g id="glyph-0-10">
<path d="M 0.46875 -1.453125 C 0.609375 -0.40625 1.28125 0.203125 2.234375 0.203125 C 2.921875 0.203125 3.546875 -0.125 3.921875 -0.703125 C 4.296875 -1.328125 4.484375 -2.109375 4.484375 -3.25 C 4.484375 -4.328125 4.3125 -5 3.953125 -5.5625 C 3.609375 -6.09375 3.0625 -6.359375 2.375 -6.359375 C 1.1875 -6.359375 0.328125 -5.46875 0.328125 -4.234375 C 0.328125 -3.0625 1.125 -2.25 2.25 -2.25 C 2.84375 -2.25 3.28125 -2.453125 3.671875 -2.9375 C 3.671875 -1.359375 3.171875 -0.484375 2.28125 -0.484375 C 1.734375 -0.484375 1.359375 -0.828125 1.234375 -1.453125 Z M 2.359375 -5.6875 C 3.09375 -5.6875 3.640625 -5.078125 3.640625 -4.25 C 3.640625 -3.46875 3.109375 -2.921875 2.34375 -2.921875 C 1.59375 -2.921875 1.125 -3.453125 1.125 -4.296875 C 1.125 -5.109375 1.640625 -5.6875 2.359375 -5.6875 Z M 2.359375 -5.6875 "/>
</g>
<g id="glyph-0-11">
<path d="M 1.609375 -2.921875 L 4.671875 -2.921875 L 4.671875 -3.640625 L 1.609375 -3.640625 L 1.609375 -5.6875 L 5.09375 -5.6875 L 5.09375 -6.40625 L 0.796875 -6.40625 L 0.796875 0 L 1.609375 0 Z M 1.609375 -2.921875 "/>
</g>
<g id="glyph-0-12">
<path d="M 4.703125 -0.4375 C 4.625 -0.40625 4.59375 -0.40625 4.546875 -0.40625 C 4.296875 -0.40625 4.15625 -0.546875 4.15625 -0.78125 L 4.15625 -3.484375 C 4.15625 -4.296875 3.546875 -4.734375 2.421875 -4.734375 C 1.734375 -4.734375 1.203125 -4.546875 0.890625 -4.203125 C 0.671875 -3.96875 0.59375 -3.703125 0.578125 -3.25 L 1.3125 -3.25 C 1.375 -3.8125 1.703125 -4.0625 2.390625 -4.0625 C 3.0625 -4.0625 3.421875 -3.8125 3.421875 -3.375 L 3.421875 -3.1875 C 3.40625 -2.875 3.25 -2.75 2.65625 -2.671875 C 1.625 -2.546875 1.453125 -2.5 1.171875 -2.390625 C 0.640625 -2.15625 0.375 -1.765625 0.375 -1.15625 C 0.375 -0.328125 0.953125 0.203125 1.875 0.203125 C 2.46875 0.203125 2.921875 0 3.453125 -0.46875 C 3.5 0 3.734375 0.203125 4.203125 0.203125 C 4.359375 0.203125 4.453125 0.1875 4.703125 0.125 Z M 3.421875 -1.453125 C 3.421875 -1.203125 3.359375 -1.0625 3.125 -0.859375 C 2.828125 -0.578125 2.46875 -0.4375 2.046875 -0.4375 C 1.46875 -0.4375 1.140625 -0.71875 1.140625 -1.171875 C 1.140625 -1.65625 1.453125 -1.90625 2.25 -2.015625 C 3.03125 -2.125 3.171875 -2.15625 3.421875 -2.28125 Z M 3.421875 -1.453125 "/>
</g>
<g id="glyph-0-13">
<path d="M 1.34375 -6.40625 L 0.59375 -6.40625 L 0.59375 0 L 1.34375 0 Z M 1.34375 -6.40625 "/>
</g>
<g id="glyph-0-14">
<path d="M 3.859375 -3.328125 C 3.84375 -4.234375 3.25 -4.734375 2.1875 -4.734375 C 1.109375 -4.734375 0.40625 -4.1875 0.40625 -3.328125 C 0.40625 -2.609375 0.78125 -2.265625 1.875 -2 L 2.5625 -1.84375 C 3.0625 -1.71875 3.265625 -1.53125 3.265625 -1.203125 C 3.265625 -0.765625 2.84375 -0.46875 2.203125 -0.46875 C 1.796875 -0.46875 1.46875 -0.59375 1.28125 -0.78125 C 1.171875 -0.921875 1.125 -1.046875 1.078125 -1.375 L 0.296875 -1.375 C 0.328125 -0.3125 0.9375 0.203125 2.140625 0.203125 C 3.296875 0.203125 4.03125 -0.375 4.03125 -1.265625 C 4.03125 -1.9375 3.65625 -2.328125 2.734375 -2.546875 L 2.03125 -2.703125 C 1.4375 -2.84375 1.171875 -3.046875 1.171875 -3.375 C 1.171875 -3.796875 1.5625 -4.0625 2.15625 -4.0625 C 2.75 -4.0625 3.0625 -3.8125 3.078125 -3.328125 Z M 3.859375 -3.328125 "/>
</g>
<g id="glyph-0-15">
<path d="M 4.515625 -2.0625 C 4.515625 -2.765625 4.453125 -3.1875 4.328125 -3.53125 C 4.03125 -4.28125 3.328125 -4.734375 2.46875 -4.734375 C 1.171875 -4.734375 0.359375 -3.765625 0.359375 -2.25 C 0.359375 -0.71875 1.140625 0.203125 2.453125 0.203125 C 3.5 0.203125 4.234375 -0.390625 4.421875 -1.40625 L 3.671875 -1.40625 C 3.46875 -0.796875 3.0625 -0.46875 2.46875 -0.46875 C 2 -0.46875 1.609375 -0.6875 1.359375 -1.078125 C 1.1875 -1.34375 1.125 -1.59375 1.125 -2.0625 Z M 1.140625 -2.65625 C 1.203125 -3.515625 1.71875 -4.0625 2.453125 -4.0625 C 3.203125 -4.0625 3.71875 -3.484375 3.71875 -2.65625 Z M 1.140625 -2.65625 "/>
</g>
<g id="glyph-0-16">
</g>
<g id="glyph-0-17">
<path d="M 1.625 -2.71875 L 3.640625 -2.71875 C 4.140625 -2.71875 4.53125 -2.875 4.875 -3.171875 C 5.265625 -3.53125 5.421875 -3.9375 5.421875 -4.53125 C 5.421875 -5.734375 4.71875 -6.40625 3.453125 -6.40625 L 0.796875 -6.40625 L 0.796875 0 L 1.625 0 Z M 1.625 -3.4375 L 1.625 -5.6875 L 3.328125 -5.6875 C 4.109375 -5.6875 4.578125 -5.265625 4.578125 -4.5625 C 4.578125 -3.859375 4.109375 -3.4375 3.328125 -3.4375 Z M 1.625 -3.4375 "/>
</g>
<g id="glyph-0-18">
<path d="M 2.390625 -4.734375 C 1.09375 -4.734375 0.3125 -3.8125 0.3125 -2.265625 C 0.3125 -0.71875 1.09375 0.203125 2.40625 0.203125 C 3.703125 0.203125 4.484375 -0.71875 4.484375 -2.234375 C 4.484375 -3.828125 3.734375 -4.734375 2.390625 -4.734375 Z M 2.40625 -4.0625 C 3.234375 -4.0625 3.71875 -3.390625 3.71875 -2.25 C 3.71875 -1.15625 3.203125 -0.46875 2.40625 -0.46875 C 1.578125 -0.46875 1.078125 -1.15625 1.078125 -2.265625 C 1.078125 -3.390625 1.578125 -4.0625 2.40625 -4.0625 Z M 2.40625 -4.0625 "/>
</g>
<g id="glyph-0-19">
<path d="M 1.3125 -4.609375 L 0.59375 -4.609375 L 0.59375 0 L 1.3125 0 Z M 1.3125 -6.40625 L 0.578125 -6.40625 L 0.578125 -5.484375 L 1.3125 -5.484375 Z M 1.3125 -6.40625 "/>
</g>
<g id="glyph-0-20">
<path d="M 2.234375 -4.609375 L 1.484375 -4.609375 L 1.484375 -5.875 L 0.75 -5.875 L 0.75 -4.609375 L 0.125 -4.609375 L 0.125 -4.015625 L 0.75 -4.015625 L 0.75 -0.53125 C 0.75 -0.046875 1.0625 0.203125 1.640625 0.203125 C 1.828125 0.203125 1.984375 0.1875 2.234375 0.140625 L 2.234375 -0.46875 C 2.125 -0.453125 2.03125 -0.4375 1.875 -0.4375 C 1.5625 -0.4375 1.484375 -0.53125 1.484375 -0.859375 L 1.484375 -4.015625 L 2.234375 -4.015625 Z M 2.234375 -4.609375 "/>
</g>
<g id="glyph-0-21">
<path d="M 2.5 0 L 4.28125 -4.609375 L 3.453125 -4.609375 L 2.140625 -0.875 L 0.921875 -4.609375 L 0.09375 -4.609375 L 1.703125 0 Z M 2.5 0 "/>
</g>
<g id="glyph-0-22">
<path d="M 5.6875 -6.40625 L 4.90625 -6.40625 L 4.90625 -1.171875 L 1.5625 -6.40625 L 0.671875 -6.40625 L 0.671875 0 L 1.4375 0 L 1.4375 -5.203125 L 4.765625 0 L 5.6875 0 Z M 5.6875 -6.40625 "/>
</g>
<g id="glyph-0-23">
<path d="M 3.546875 -4.609375 L 3.546875 -3.9375 C 3.1875 -4.5 2.78125 -4.734375 2.203125 -4.734375 C 1.078125 -4.734375 0.3125 -3.703125 0.3125 -2.21875 C 0.3125 -1.453125 0.5 -0.890625 0.890625 -0.421875 C 1.234375 -0.015625 1.671875 0.203125 2.140625 0.203125 C 2.703125 0.203125 3.09375 -0.046875 3.484375 -0.625 L 3.484375 -0.390625 C 3.484375 0.84375 3.140625 1.296875 2.21875 1.296875 C 1.59375 1.296875 1.28125 1.0625 1.203125 0.53125 L 0.453125 0.53125 C 0.53125 1.375 1.203125 1.921875 2.203125 1.921875 C 2.890625 1.921875 3.453125 1.703125 3.75 1.328125 C 4.09375 0.890625 4.234375 0.328125 4.234375 -0.75 L 4.234375 -4.609375 Z M 2.265625 -4.0625 C 3.046875 -4.0625 3.484375 -3.40625 3.484375 -2.25 C 3.484375 -1.125 3.03125 -0.46875 2.265625 -0.46875 C 1.515625 -0.46875 1.078125 -1.140625 1.078125 -2.265625 C 1.078125 -3.390625 1.515625 -4.0625 2.265625 -4.0625 Z M 2.265625 -4.0625 "/>
</g>
<g id="glyph-0-24">
<path d="M 3.109375 -5.6875 L 5.21875 -5.6875 L 5.21875 -6.40625 L 0.1875 -6.40625 L 0.1875 -5.6875 L 2.296875 -5.6875 L 2.296875 0 L 3.109375 0 Z M 3.109375 -5.6875 "/>
</g>
<g id="glyph-0-25">
<path d="M 4.140625 -3.0625 C 4.109375 -3.515625 4.015625 -3.796875 3.828125 -4.0625 C 3.515625 -4.484375 2.96875 -4.734375 2.328125 -4.734375 C 1.078125 -4.734375 0.265625 -3.75 0.265625 -2.21875 C 0.265625 -0.734375 1.0625 0.203125 2.3125 0.203125 C 3.40625 0.203125 4.109375 -0.453125 4.203125 -1.578125 L 3.453125 -1.578125 C 3.328125 -0.84375 2.953125 -0.46875 2.328125 -0.46875 C 1.515625 -0.46875 1.03125 -1.140625 1.03125 -2.21875 C 1.03125 -3.375 1.515625 -4.0625 2.3125 -4.0625 C 2.921875 -4.0625 3.3125 -3.703125 3.40625 -3.0625 Z M 4.140625 -3.0625 "/>
</g>
<g id="glyph-0-26">
<path d="M 0.609375 -6.40625 L 0.609375 0 L 1.34375 0 L 1.34375 -2.546875 C 1.34375 -3.484375 1.84375 -4.09375 2.59375 -4.09375 C 2.84375 -4.09375 3.0625 -4.03125 3.25 -3.890625 C 3.453125 -3.734375 3.546875 -3.515625 3.546875 -3.1875 L 3.546875 0 L 4.28125 0 L 4.28125 -3.484375 C 4.28125 -4.25 3.71875 -4.734375 2.828125 -4.734375 C 2.171875 -4.734375 1.78125 -4.546875 1.34375 -3.96875 L 1.34375 -6.40625 Z M 0.609375 -6.40625 "/>
</g>
<g id="glyph-0-27">
<path d="M 0.609375 -4.609375 L 0.609375 0 L 1.359375 0 L 1.359375 -2.546875 C 1.359375 -3.484375 1.84375 -4.09375 2.609375 -4.09375 C 3.1875 -4.09375 3.546875 -3.75 3.546875 -3.1875 L 3.546875 0 L 4.28125 0 L 4.28125 -3.484375 C 4.28125 -4.25 3.71875 -4.734375 2.828125 -4.734375 C 2.140625 -4.734375 1.703125 -4.484375 1.296875 -3.828125 L 1.296875 -4.609375 Z M 0.609375 -4.609375 "/>
</g>
<g id="glyph-1-0">
<path d="M 7.28125 -5.53125 C 6.96875 -7.296875 5.953125 -8.15625 4.1875 -8.15625 C 3.109375 -8.15625 2.25 -7.8125 1.65625 -7.15625 C 0.921875 -6.359375 0.53125 -5.21875 0.53125 -3.921875 C 0.53125 -2.59375 0.9375 -1.46875 1.6875 -0.6875 C 2.3125 -0.046875 3.109375 0.25 4.140625 0.25 C 6.109375 0.25 7.203125 -0.796875 7.453125 -2.921875 L 6.390625 -2.921875 C 6.296875 -2.375 6.1875 -2 6.03125 -1.6875 C 5.703125 -1.015625 5.015625 -0.65625 4.15625 -0.65625 C 2.5625 -0.65625 1.546875 -1.921875 1.546875 -3.921875 C 1.546875 -5.984375 2.515625 -7.25 4.0625 -7.25 C 4.71875 -7.25 5.328125 -7.0625 5.65625 -6.75 C 5.953125 -6.46875 6.109375 -6.140625 6.234375 -5.53125 Z M 7.28125 -5.53125 "/>
</g>
<g id="glyph-1-1">
<path d="M 0.765625 -8.015625 L 0.765625 0 L 1.6875 0 L 1.6875 -3.171875 C 1.6875 -4.359375 2.296875 -5.125 3.25 -5.125 C 3.546875 -5.125 3.84375 -5.03125 4.0625 -4.875 C 4.328125 -4.671875 4.4375 -4.40625 4.4375 -4 L 4.4375 0 L 5.34375 0 L 5.34375 -4.359375 C 5.34375 -5.328125 4.65625 -5.921875 3.53125 -5.921875 C 2.71875 -5.921875 2.21875 -5.671875 1.6875 -4.96875 L 1.6875 -8.015625 Z M 0.765625 -8.015625 "/>
</g>
<g id="glyph-1-2">
<path d="M 5.296875 0 L 5.296875 -5.765625 L 4.390625 -5.765625 L 4.390625 -2.5 C 4.390625 -1.3125 3.765625 -0.546875 2.8125 -0.546875 C 2.09375 -0.546875 1.625 -0.984375 1.625 -1.6875 L 1.625 -5.765625 L 0.71875 -5.765625 L 0.71875 -1.3125 C 0.71875 -0.359375 1.4375 0.25 2.546875 0.25 C 3.40625 0.25 3.9375 -0.046875 4.484375 -0.796875 L 4.484375 0 Z M 5.296875 0 "/>
</g>
<g id="glyph-1-3">
<path d="M 0.765625 -5.765625 L 0.765625 0 L 1.6875 0 L 1.6875 -3.171875 C 1.6875 -4.359375 2.3125 -5.125 3.25 -5.125 C 3.984375 -5.125 4.4375 -4.6875 4.4375 -4 L 4.4375 0 L 5.359375 0 L 5.359375 -4.359375 C 5.359375 -5.3125 4.640625 -5.921875 3.53125 -5.921875 C 2.671875 -5.921875 2.125 -5.59375 1.609375 -4.796875 L 1.609375 -5.765625 Z M 0.765625 -5.765625 "/>
</g>
<g id="glyph-1-4">
<path d="M 1.546875 -8.015625 L 0.640625 -8.015625 L 0.640625 0 L 1.546875 0 L 1.546875 -2.25 L 2.4375 -3.125 L 4.390625 0 L 5.515625 0 L 3.171875 -3.765625 L 5.171875 -5.765625 L 4 -5.765625 L 1.546875 -3.328125 Z M 1.546875 -8.015625 "/>
</g>
<g id="glyph-1-5">
</g>
<g id="glyph-1-6">
<path d="M 2.84375 -5.765625 L 1.875 -5.765625 L 1.875 -6.671875 C 1.875 -7.046875 2.09375 -7.25 2.515625 -7.25 C 2.59375 -7.25 2.625 -7.25 2.84375 -7.234375 L 2.84375 -8 C 2.625 -8.046875 2.515625 -8.046875 2.328125 -8.046875 C 1.46875 -8.046875 0.96875 -7.5625 0.96875 -6.75 L 0.96875 -5.765625 L 0.203125 -5.765625 L 0.203125 -5.015625 L 0.96875 -5.015625 L 0.96875 0 L 1.875 0 L 1.875 -5.015625 L 2.84375 -5.015625 Z M 2.84375 -5.765625 "/>
</g>
<g id="glyph-1-7">
<path d="M 0.765625 -5.765625 L 0.765625 0 L 1.6875 0 L 1.6875 -2.984375 C 1.6875 -4.375 2.265625 -5 3.53125 -4.96875 L 3.53125 -5.890625 C 3.375 -5.921875 3.28125 -5.921875 3.171875 -5.921875 C 2.578125 -5.921875 2.140625 -5.578125 1.609375 -4.71875 L 1.609375 -5.765625 Z M 0.765625 -5.765625 "/>
</g>
<g id="glyph-1-8">
<path d="M 5.640625 -2.578125 C 5.640625 -3.453125 5.578125 -3.984375 5.40625 -4.40625 C 5.03125 -5.359375 4.15625 -5.921875 3.078125 -5.921875 C 1.46875 -5.921875 0.4375 -4.703125 0.4375 -2.8125 C 0.4375 -0.90625 1.4375 0.25 3.0625 0.25 C 4.375 0.25 5.296875 -0.5 5.515625 -1.75 L 4.59375 -1.75 C 4.34375 -0.984375 3.828125 -0.59375 3.09375 -0.59375 C 2.515625 -0.59375 2.015625 -0.859375 1.703125 -1.34375 C 1.484375 -1.671875 1.40625 -2 1.390625 -2.578125 Z M 1.421875 -3.328125 C 1.5 -4.390625 2.140625 -5.078125 3.0625 -5.078125 C 4 -5.078125 4.65625 -4.359375 4.65625 -3.328125 Z M 1.421875 -3.328125 "/>
</g>
<g id="glyph-1-9">
<path d="M 5.4375 2.390625 L 5.4375 -5.765625 L 4.625 -5.765625 L 4.625 -5 C 4.203125 -5.59375 3.546875 -5.921875 2.796875 -5.921875 C 1.28125 -5.921875 0.28125 -4.6875 0.28125 -2.765625 C 0.28125 -0.90625 1.21875 0.25 2.75 0.25 C 3.546875 0.25 4.109375 -0.03125 4.53125 -0.65625 L 4.53125 2.390625 Z M 2.921875 -5.078125 C 3.90625 -5.078125 4.53125 -4.203125 4.53125 -2.8125 C 4.53125 -1.484375 3.890625 -0.609375 2.921875 -0.609375 C 1.90625 -0.609375 1.25 -1.5 1.25 -2.84375 C 1.25 -4.1875 1.90625 -5.078125 2.921875 -5.078125 Z M 2.921875 -5.078125 "/>
</g>
<g id="glyph-1-10">
<path d="M 5.1875 -3.828125 C 5.140625 -4.390625 5.015625 -4.75 4.796875 -5.078125 C 4.40625 -5.609375 3.703125 -5.921875 2.90625 -5.921875 C 1.34375 -5.921875 0.34375 -4.703125 0.34375 -2.78125 C 0.34375 -0.921875 1.328125 0.25 2.890625 0.25 C 4.265625 0.25 5.140625 -0.578125 5.25 -1.984375 L 4.328125 -1.984375 C 4.171875 -1.0625 3.703125 -0.59375 2.921875 -0.59375 C 1.90625 -0.59375 1.296875 -1.421875 1.296875 -2.78125 C 1.296875 -4.21875 1.890625 -5.078125 2.890625 -5.078125 C 3.65625 -5.078125 4.140625 -4.625 4.25 -3.828125 Z M 5.1875 -3.828125 "/>
</g>
<g id="glyph-1-11">
<path d="M 4.265625 -5.765625 L 2.671875 -1.28125 L 1.203125 -5.765625 L 0.21875 -5.765625 L 2.171875 0.015625 L 1.8125 0.9375 C 1.65625 1.34375 1.46875 1.5 1.078125 1.5 C 0.921875 1.5 0.796875 1.46875 0.59375 1.4375 L 0.59375 2.25 C 0.78125 2.359375 0.96875 2.390625 1.203125 2.390625 C 1.5 2.390625 1.828125 2.296875 2.0625 2.125 C 2.359375 1.90625 2.515625 1.671875 2.6875 1.203125 L 5.265625 -5.765625 Z M 4.265625 -5.765625 "/>
</g>
<g id="glyph-1-12">
<path d="M 2.796875 -5.765625 L 1.84375 -5.765625 L 1.84375 -7.34375 L 0.9375 -7.34375 L 0.9375 -5.765625 L 0.15625 -5.765625 L 0.15625 -5.015625 L 0.9375 -5.015625 L 0.9375 -0.65625 C 0.9375 -0.0625 1.328125 0.25 2.046875 0.25 C 2.28125 0.25 2.484375 0.234375 2.796875 0.171875 L 2.796875 -0.59375 C 2.65625 -0.5625 2.546875 -0.546875 2.359375 -0.546875 C 1.953125 -0.546875 1.84375 -0.65625 1.84375 -1.0625 L 1.84375 -5.015625 L 2.796875 -5.015625 Z M 2.796875 -5.765625 "/>
</g>
<g id="glyph-1-13">
<path d="M 4.8125 -4.15625 C 4.8125 -5.296875 4.0625 -5.921875 2.734375 -5.921875 C 1.390625 -5.921875 0.515625 -5.234375 0.515625 -4.171875 C 0.515625 -3.265625 0.984375 -2.84375 2.34375 -2.515625 L 3.203125 -2.296875 C 3.84375 -2.140625 4.09375 -1.90625 4.09375 -1.5 C 4.09375 -0.953125 3.546875 -0.59375 2.75 -0.59375 C 2.25 -0.59375 1.84375 -0.734375 1.609375 -0.984375 C 1.46875 -1.140625 1.390625 -1.3125 1.34375 -1.71875 L 0.375 -1.71875 C 0.421875 -0.390625 1.171875 0.25 2.671875 0.25 C 4.125 0.25 5.046875 -0.46875 5.046875 -1.578125 C 5.046875 -2.4375 4.5625 -2.90625 3.421875 -3.171875 L 2.546875 -3.390625 C 1.796875 -3.5625 1.46875 -3.8125 1.46875 -4.21875 C 1.46875 -4.75 1.953125 -5.078125 2.6875 -5.078125 C 3.4375 -5.078125 3.828125 -4.765625 3.84375 -4.15625 Z M 4.8125 -4.15625 "/>
</g>
<g id="glyph-1-14">
<path d="M 2.984375 -5.921875 C 1.359375 -5.921875 0.390625 -4.78125 0.390625 -2.84375 C 0.390625 -0.890625 1.359375 0.25 3 0.25 C 4.625 0.25 5.609375 -0.90625 5.609375 -2.796875 C 5.609375 -4.796875 4.65625 -5.921875 2.984375 -5.921875 Z M 3 -5.078125 C 4.03125 -5.078125 4.65625 -4.234375 4.65625 -2.8125 C 4.65625 -1.4375 4.015625 -0.59375 3 -0.59375 C 1.984375 -0.59375 1.359375 -1.4375 1.359375 -2.84375 C 1.359375 -4.234375 1.984375 -5.078125 3 -5.078125 Z M 3 -5.078125 "/>
</g>
<g id="glyph-1-15">
<path d="M 1.671875 -8.015625 L 0.75 -8.015625 L 0.75 0 L 1.671875 0 Z M 1.671875 -8.015625 "/>
</g>
<g id="glyph-1-16">
<path d="M 5.4375 -8.015625 L 4.53125 -8.015625 L 4.53125 -5.03125 C 4.140625 -5.625 3.53125 -5.921875 2.765625 -5.921875 C 1.265625 -5.921875 0.28125 -4.734375 0.28125 -2.890625 C 0.28125 -0.953125 1.234375 0.25 2.796875 0.25 C 3.59375 0.25 4.140625 -0.046875 4.625 -0.765625 L 4.625 0 L 5.4375 0 Z M 2.921875 -5.078125 C 3.90625 -5.078125 4.53125 -4.203125 4.53125 -2.8125 C 4.53125 -1.484375 3.890625 -0.609375 2.921875 -0.609375 C 1.90625 -0.609375 1.25 -1.5 1.25 -2.84375 C 1.25 -4.1875 1.90625 -5.078125 2.921875 -5.078125 Z M 2.921875 -5.078125 "/>
</g>
<g id="glyph-2-0">
<path d="M -7.671875 -5.328125 L -7.671875 -4.484375 L -5.515625 -4.109375 L -5.515625 -2.734375 L -7.671875 -3.125 L -7.671875 -2.28125 L -5.515625 -1.890625 L -5.515625 -0.5625 L -4.765625 -0.5625 L -4.765625 -1.75 L -2.84375 -1.40625 L -2.84375 -0.15625 L -2.09375 -0.15625 L -2.09375 -1.265625 L 0.21875 -0.84375 L 0.21875 -1.6875 L -2.09375 -2.109375 L -2.09375 -3.46875 L 0.21875 -3.0625 L 0.21875 -3.890625 L -2.09375 -4.328125 L -2.09375 -5.609375 L -2.84375 -5.609375 L -2.84375 -4.453125 L -4.765625 -4.796875 L -4.765625 -5.96875 L -5.515625 -5.96875 L -5.515625 -4.9375 Z M -4.765625 -3.953125 L -2.84375 -3.625 L -2.84375 -2.25 L -4.765625 -2.59375 Z M -4.765625 -3.953125 "/>
</g>
<g id="glyph-2-1">
</g>
<g id="glyph-2-2">
<path d="M -5.671875 -6.5625 C -6.21875 -6.5625 -6.375 -6.515625 -6.75 -6.34375 C -7.671875 -5.90625 -8.15625 -4.96875 -8.15625 -3.625 C -8.15625 -1.859375 -7.25 -0.765625 -5.796875 -0.765625 C -4.8125 -0.765625 -4.203125 -1.28125 -3.921875 -2.34375 L -3.40625 -4.328125 C -3.140625 -5.359375 -2.734375 -5.8125 -2.09375 -5.8125 C -1.671875 -5.8125 -1.234375 -5.578125 -0.984375 -5.234375 C -0.765625 -4.921875 -0.65625 -4.40625 -0.65625 -3.765625 C -0.65625 -2.875 -0.859375 -2.296875 -1.3125 -1.90625 C -1.671875 -1.609375 -2.0625 -1.484375 -2.546875 -1.5 L -2.546875 -0.53125 C -1.8125 -0.53125 -1.328125 -0.6875 -0.890625 -1 C -0.125 -1.546875 0.25 -2.46875 0.25 -3.703125 C 0.25 -4.65625 0.03125 -5.4375 -0.359375 -5.953125 C -0.796875 -6.484375 -1.5 -6.828125 -2.203125 -6.828125 C -3.1875 -6.828125 -3.921875 -6.21875 -4.21875 -5.125 L -4.75 -3.109375 C -5.015625 -2.140625 -5.328125 -1.796875 -5.9375 -1.796875 C -6.75 -1.796875 -7.296875 -2.515625 -7.296875 -3.59375 C -7.296875 -4.859375 -6.71875 -5.578125 -5.671875 -5.59375 Z M -5.671875 -6.5625 "/>
</g>
<g id="glyph-2-3">
<path d="M 0 -5.296875 L -5.765625 -5.296875 L -5.765625 -4.390625 L -2.5 -4.390625 C -1.3125 -4.390625 -0.546875 -3.765625 -0.546875 -2.8125 C -0.546875 -2.09375 -0.984375 -1.625 -1.6875 -1.625 L -5.765625 -1.625 L -5.765625 -0.71875 L -1.3125 -0.71875 C -0.359375 -0.71875 0.25 -1.4375 0.25 -2.546875 C 0.25 -3.40625 -0.046875 -3.9375 -0.796875 -4.484375 L 0 -4.484375 Z M 0 -5.296875 "/>
</g>
<g id="glyph-2-4">
<path d="M -5.765625 -0.765625 L 0 -0.765625 L 0 -1.6875 L -2.984375 -1.6875 C -4.375 -1.6875 -5 -2.265625 -4.96875 -3.53125 L -5.890625 -3.53125 C -5.921875 -3.375 -5.921875 -3.28125 -5.921875 -3.171875 C -5.921875 -2.578125 -5.578125 -2.140625 -4.71875 -1.609375 L -5.765625 -1.609375 Z M -5.765625 -0.765625 "/>
</g>
<g id="glyph-2-5">
<path d="M -5.765625 -2.84375 L -5.765625 -1.875 L -6.671875 -1.875 C -7.046875 -1.875 -7.25 -2.09375 -7.25 -2.515625 C -7.25 -2.59375 -7.25 -2.625 -7.234375 -2.84375 L -8 -2.84375 C -8.046875 -2.625 -8.046875 -2.515625 -8.046875 -2.328125 C -8.046875 -1.46875 -7.5625 -0.96875 -6.75 -0.96875 L -5.765625 -0.96875 L -5.765625 -0.203125 L -5.015625 -0.203125 L -5.015625 -0.96875 L 0 -0.96875 L 0 -1.875 L -5.015625 -1.875 L -5.015625 -2.84375 Z M -5.765625 -2.84375 "/>
</g>
<g id="glyph-2-6">
<path d="M -0.53125 -5.890625 C -0.515625 -5.78125 -0.515625 -5.734375 -0.515625 -5.6875 C -0.515625 -5.375 -0.6875 -5.1875 -0.96875 -5.1875 L -4.359375 -5.1875 C -5.375 -5.1875 -5.921875 -4.4375 -5.921875 -3.03125 C -5.921875 -2.171875 -5.6875 -1.5 -5.265625 -1.109375 C -4.96875 -0.84375 -4.625 -0.734375 -4.0625 -0.71875 L -4.0625 -1.640625 C -4.765625 -1.71875 -5.078125 -2.140625 -5.078125 -2.984375 C -5.078125 -3.828125 -4.78125 -4.28125 -4.21875 -4.28125 L -3.984375 -4.28125 C -3.59375 -4.265625 -3.4375 -4.0625 -3.34375 -3.328125 C -3.171875 -2.03125 -3.140625 -1.828125 -2.984375 -1.46875 C -2.703125 -0.796875 -2.203125 -0.46875 -1.453125 -0.46875 C -0.40625 -0.46875 0.25 -1.1875 0.25 -2.359375 C 0.25 -3.078125 0 -3.65625 -0.59375 -4.3125 C 0 -4.375 0.25 -4.65625 0.25 -5.265625 C 0.25 -5.453125 0.234375 -5.578125 0.15625 -5.890625 Z M -1.8125 -4.28125 C -1.5 -4.28125 -1.3125 -4.1875 -1.0625 -3.921875 C -0.71875 -3.546875 -0.546875 -3.09375 -0.546875 -2.546875 C -0.546875 -1.84375 -0.890625 -1.421875 -1.46875 -1.421875 C -2.078125 -1.421875 -2.390625 -1.8125 -2.53125 -2.8125 C -2.65625 -3.78125 -2.703125 -3.96875 -2.84375 -4.28125 Z M -1.8125 -4.28125 "/>
</g>
<g id="glyph-2-7">
<path d="M -3.828125 -5.1875 C -4.390625 -5.140625 -4.75 -5.015625 -5.078125 -4.796875 C -5.609375 -4.40625 -5.921875 -3.703125 -5.921875 -2.90625 C -5.921875 -1.34375 -4.703125 -0.34375 -2.78125 -0.34375 C -0.921875 -0.34375 0.25 -1.328125 0.25 -2.890625 C 0.25 -4.265625 -0.578125 -5.140625 -1.984375 -5.25 L -1.984375 -4.328125 C -1.0625 -4.171875 -0.59375 -3.703125 -0.59375 -2.921875 C -0.59375 -1.90625 -1.421875 -1.296875 -2.78125 -1.296875 C -4.21875 -1.296875 -5.078125 -1.890625 -5.078125 -2.890625 C -5.078125 -3.65625 -4.625 -4.140625 -3.828125 -4.25 Z M -3.828125 -5.1875 "/>
</g>
<g id="glyph-2-8">
<path d="M -2.578125 -5.640625 C -3.453125 -5.640625 -3.984375 -5.578125 -4.40625 -5.40625 C -5.359375 -5.03125 -5.921875 -4.15625 -5.921875 -3.078125 C -5.921875 -1.46875 -4.703125 -0.4375 -2.8125 -0.4375 C -0.90625 -0.4375 0.25 -1.4375 0.25 -3.0625 C 0.25 -4.375 -0.5 -5.296875 -1.75 -5.515625 L -1.75 -4.59375 C -0.984375 -4.34375 -0.59375 -3.828125 -0.59375 -3.09375 C -0.59375 -2.515625 -0.859375 -2.015625 -1.34375 -1.703125 C -1.671875 -1.484375 -2 -1.40625 -2.578125 -1.390625 Z M -3.328125 -1.421875 C -4.390625 -1.5 -5.078125 -2.140625 -5.078125 -3.0625 C -5.078125 -4 -4.359375 -4.65625 -3.328125 -4.65625 Z M -3.328125 -1.421875 "/>
</g>
<g id="glyph-2-9">
<path d="M -8.015625 -5.4375 L -8.015625 -4.53125 L -5.03125 -4.53125 C -5.625 -4.140625 -5.921875 -3.53125 -5.921875 -2.765625 C -5.921875 -1.265625 -4.734375 -0.28125 -2.890625 -0.28125 C -0.953125 -0.28125 0.25 -1.234375 0.25 -2.796875 C 0.25 -3.59375 -0.046875 -4.140625 -0.765625 -4.625 L 0 -4.625 L 0 -5.4375 Z M -5.078125 -2.921875 C -5.078125 -3.90625 -4.203125 -4.53125 -2.8125 -4.53125 C -1.484375 -4.53125 -0.609375 -3.890625 -0.609375 -2.921875 C -0.609375 -1.90625 -1.5 -1.25 -2.84375 -1.25 C -4.1875 -1.25 -5.078125 -1.90625 -5.078125 -2.921875 Z M -5.078125 -2.921875 "/>
</g>
<g id="glyph-2-10">
<path d="M -5.765625 -2.796875 L -5.765625 -1.84375 L -7.34375 -1.84375 L -7.34375 -0.9375 L -5.765625 -0.9375 L -5.765625 -0.15625 L -5.015625 -0.15625 L -5.015625 -0.9375 L -0.65625 -0.9375 C -0.0625 -0.9375 0.25 -1.328125 0.25 -2.046875 C 0.25 -2.28125 0.234375 -2.484375 0.171875 -2.796875 L -0.59375 -2.796875 C -0.5625 -2.65625 -0.546875 -2.546875 -0.546875 -2.359375 C -0.546875 -1.953125 -0.65625 -1.84375 -1.0625 -1.84375 L -5.015625 -1.84375 L -5.015625 -2.796875 Z M -5.765625 -2.796875 "/>
</g>
<g id="glyph-2-11">
<path d="M -4.15625 -4.8125 C -5.296875 -4.8125 -5.921875 -4.0625 -5.921875 -2.734375 C -5.921875 -1.390625 -5.234375 -0.515625 -4.171875 -0.515625 C -3.265625 -0.515625 -2.84375 -0.984375 -2.515625 -2.34375 L -2.296875 -3.203125 C -2.140625 -3.84375 -1.90625 -4.09375 -1.5 -4.09375 C -0.953125 -4.09375 -0.59375 -3.546875 -0.59375 -2.75 C -0.59375 -2.25 -0.734375 -1.84375 -0.984375 -1.609375 C -1.140625 -1.46875 -1.3125 -1.390625 -1.71875 -1.34375 L -1.71875 -0.375 C -0.390625 -0.421875 0.25 -1.171875 0.25 -2.671875 C 0.25 -4.125 -0.46875 -5.046875 -1.578125 -5.046875 C -2.4375 -5.046875 -2.90625 -4.5625 -3.171875 -3.421875 L -3.390625 -2.546875 C -3.5625 -1.796875 -3.8125 -1.46875 -4.21875 -1.46875 C -4.75 -1.46875 -5.078125 -1.953125 -5.078125 -2.6875 C -5.078125 -3.4375 -4.765625 -3.828125 -4.15625 -3.84375 Z M -4.15625 -4.8125 "/>
</g>
</g>
<clipPath id="clip-0">
<path clip-rule="nonzero" d="M 35.152344 188 L 279.84375 188 L 279.84375 190 L 35.152344 190 Z M 35.152344 188 "/>
</clipPath>
<clipPath id="clip-1">
<path clip-rule="nonzero" d="M 35.152344 150 L 279.84375 150 L 279.84375 151 L 35.152344 151 Z M 35.152344 150 "/>
</clipPath>
<clipPath id="clip-2">
<path clip-rule="nonzero" d="M 35.152344 111 L 279.84375 111 L 279.84375 112 L 35.152344 112 Z M 35.152344 111 "/>
</clipPath>
<clipPath id="clip-3">
<path clip-rule="nonzero" d="M 35.152344 72 L 279.84375 72 L 279.84375 74 L 35.152344 74 Z M 35.152344 72 "/>
</clipPath>
<clipPath id="clip-4">
<path clip-rule="nonzero" d="M 35.152344 34 L 279.84375 34 L 279.84375 35 L 35.152344 35 Z M 35.152344 34 "/>
</clipPath>
<clipPath id="clip-5">
<path clip-rule="nonzero" d="M 46 5.480469 L 47 5.480469 L 47 217.851562 L 46 217.851562 Z M 46 5.480469 "/>
</clipPath>
<clipPath id="clip-6">
<path clip-rule="nonzero" d="M 69 5.480469 L 70 5.480469 L 70 217.851562 L 69 217.851562 Z M 69 5.480469 "/>
</clipPath>
<clipPath id="clip-7">
<path clip-rule="nonzero" d="M 92 5.480469 L 94 5.480469 L 94 217.851562 L 92 217.851562 Z M 92 5.480469 "/>
</clipPath>
<clipPath id="clip-8">
<path clip-rule="nonzero" d="M 116 5.480469 L 117 5.480469 L 117 217.851562 L 116 217.851562 Z M 116 5.480469 "/>
</clipPath>
<clipPath id="clip-9">
<path clip-rule="nonzero" d="M 139 5.480469 L 141 5.480469 L 141 217.851562 L 139 217.851562 Z M 139 5.480469 "/>
</clipPath>
<clipPath id="clip-10">
<path clip-rule="nonzero" d="M 163 5.480469 L 164 5.480469 L 164 217.851562 L 163 217.851562 Z M 163 5.480469 "/>
</clipPath>
<clipPath id="clip-11">
<path clip-rule="nonzero" d="M 186 5.480469 L 188 5.480469 L 188 217.851562 L 186 217.851562 Z M 186 5.480469 "/>
</clipPath>
<clipPath id="clip-12">
<path clip-rule="nonzero" d="M 209 5.480469 L 211 5.480469 L 211 217.851562 L 209 217.851562 Z M 209 5.480469 "/>
</clipPath>
<clipPath id="clip-13">
<path clip-rule="nonzero" d="M 233 5.480469 L 234 5.480469 L 234 217.851562 L 233 217.851562 Z M 233 5.480469 "/>
</clipPath>
<clipPath id="clip-14">
<path clip-rule="nonzero" d="M 256 5.480469 L 258 5.480469 L 258 217.851562 L 256 217.851562 Z M 256 5.480469 "/>
</clipPath>
<clipPath id="clip-15">
<path clip-rule="nonzero" d="M 35.152344 207 L 279.84375 207 L 279.84375 209 L 35.152344 209 Z M 35.152344 207 "/>
</clipPath>
<clipPath id="clip-16">
<path clip-rule="nonzero" d="M 35.152344 169 L 279.84375 169 L 279.84375 171 L 35.152344 171 Z M 35.152344 169 "/>
</clipPath>
<clipPath id="clip-17">
<path clip-rule="nonzero" d="M 35.152344 130 L 279.84375 130 L 279.84375 132 L 35.152344 132 Z M 35.152344 130 "/>
</clipPath>
<clipPath id="clip-18">
<path clip-rule="nonzero" d="M 35.152344 91 L 279.84375 91 L 279.84375 93 L 35.152344 93 Z M 35.152344 91 "/>
</clipPath>
<clipPath id="clip-19">
<path clip-rule="nonzero" d="M 35.152344 53 L 279.84375 53 L 279.84375 55 L 35.152344 55 Z M 35.152344 53 "/>
</clipPath>
<clipPath id="clip-20">
<path clip-rule="nonzero" d="M 35.152344 14 L 279.84375 14 L 279.84375 16 L 35.152344 16 Z M 35.152344 14 "/>
</clipPath>
<clipPath id="clip-21">
<path clip-rule="nonzero" d="M 57 5.480469 L 59 5.480469 L 59 217.851562 L 57 217.851562 Z M 57 5.480469 "/>
</clipPath>
<clipPath id="clip-22">
<path clip-rule="nonzero" d="M 80 5.480469 L 82 5.480469 L 82 217.851562 L 80 217.851562 Z M 80 5.480469 "/>
</clipPath>
<clipPath id="clip-23">
<path clip-rule="nonzero" d="M 104 5.480469 L 106 5.480469 L 106 217.851562 L 104 217.851562 Z M 104 5.480469 "/>
</clipPath>
<clipPath id="clip-24">
<path clip-rule="nonzero" d="M 127 5.480469 L 129 5.480469 L 129 217.851562 L 127 217.851562 Z M 127 5.480469 "/>
</clipPath>
<clipPath id="clip-25">
<path clip-rule="nonzero" d="M 151 5.480469 L 153 5.480469 L 153 217.851562 L 151 217.851562 Z M 151 5.480469 "/>
</clipPath>
<clipPath id="clip-26">
<path clip-rule="nonzero" d="M 174 5.480469 L 176 5.480469 L 176 217.851562 L 174 217.851562 Z M 174 5.480469 "/>
</clipPath>
<clipPath id="clip-27">
<path clip-rule="nonzero" d="M 197 5.480469 L 200 5.480469 L 200 217.851562 L 197 217.851562 Z M 197 5.480469 "/>
</clipPath>
<clipPath id="clip-28">
<path clip-rule="nonzero" d="M 221 5.480469 L 223 5.480469 L 223 217.851562 L 221 217.851562 Z M 221 5.480469 "/>
</clipPath>
<clipPath id="clip-29">
<path clip-rule="nonzero" d="M 244 5.480469 L 246 5.480469 L 246 217.851562 L 244 217.851562 Z M 244 5.480469 "/>
</clipPath>
<clipPath id="clip-30">
<path clip-rule="nonzero" d="M 268 5.480469 L 270 5.480469 L 270 217.851562 L 268 217.851562 Z M 268 5.480469 "/>
</clipPath>
<clipPath id="clip-31">
<path clip-rule="nonzero" d="M 42 5.480469 L 270 5.480469 L 270 209 L 42 209 Z M 42 5.480469 "/>
</clipPath>
<clipPath id="clip-32">
<path clip-rule="nonzero" d="M 42 5.480469 L 270 5.480469 L 270 205 L 42 205 Z M 42 5.480469 "/>
</clipPath>
</defs>
<rect x="-39.6" y="-25.2" width="475.2" height="302.4" fill="rgb(100%, 100%, 100%)" fill-opacity="1"/>
<rect x="-39.6" y="-25.2" width="475.2" height="302.4" fill="rgb(100%, 100%, 100%)" fill-opacity="1"/>
<g clip-path="url(#clip-0)">
<path fill="none" stroke-width="0.533489" stroke-linecap="butt" stroke-linejoin="round" stroke="rgb(92.156863%, 92.156863%, 92.156863%)" stroke-opacity="1" stroke-miterlimit="10" d="M 35.152344 188.890625 L 279.84375 188.890625 "/>
</g>
<g clip-path="url(#clip-1)">
<path fill="none" stroke-width="0.533489" stroke-linecap="butt" stroke-linejoin="round" stroke="rgb(92.156863%, 92.156863%, 92.156863%)" stroke-opacity="1" stroke-miterlimit="10" d="M 35.152344 150.277344 L 279.84375 150.277344 "/>
</g>
<g clip-path="url(#clip-2)">
<path fill="none" stroke-width="0.533489" stroke-linecap="butt" stroke-linejoin="round" stroke="rgb(92.156863%, 92.156863%, 92.156863%)" stroke-opacity="1" stroke-miterlimit="10" d="M 35.152344 111.664062 L 279.84375 111.664062 "/>
</g>
<g clip-path="url(#clip-3)">
<path fill="none" stroke-width="0.533489" stroke-linecap="butt" stroke-linejoin="round" stroke="rgb(92.156863%, 92.156863%, 92.156863%)" stroke-opacity="1" stroke-miterlimit="10" d="M 35.152344 73.050781 L 279.84375 73.050781 "/>
</g>
<g clip-path="url(#clip-4)">
<path fill="none" stroke-width="0.533489" stroke-linecap="butt" stroke-linejoin="round" stroke="rgb(92.156863%, 92.156863%, 92.156863%)" stroke-opacity="1" stroke-miterlimit="10" d="M 35.152344 34.4375 L 279.84375 34.4375 "/>
</g>
<g clip-path="url(#clip-5)">
<path fill="none" stroke-width="0.533489" stroke-linecap="butt" stroke-linejoin="round" stroke="rgb(92.156863%, 92.156863%, 92.156863%)" stroke-opacity="1" stroke-miterlimit="10" d="M 46.273438 217.847656 L 46.273438 5.480469 "/>
</g>
<g clip-path="url(#clip-6)">
<path fill="none" stroke-width="0.533489" stroke-linecap="butt" stroke-linejoin="round" stroke="rgb(92.156863%, 92.156863%, 92.156863%)" stroke-opacity="1" stroke-miterlimit="10" d="M 69.6875 217.847656 L 69.6875 5.480469 "/>
</g>
<g clip-path="url(#clip-7)">
<path fill="none" stroke-width="0.533489" stroke-linecap="butt" stroke-linejoin="round" stroke="rgb(92.156863%, 92.156863%, 92.156863%)" stroke-opacity="1" stroke-miterlimit="10" d="M 93.105469 217.847656 L 93.105469 5.480469 "/>
</g>
<g clip-path="url(#clip-8)">
<path fill="none" stroke-width="0.533489" stroke-linecap="butt" stroke-linejoin="round" stroke="rgb(92.156863%, 92.156863%, 92.156863%)" stroke-opacity="1" stroke-miterlimit="10" d="M 116.519531 217.847656 L 116.519531 5.480469 "/>
</g>
<g clip-path="url(#clip-9)">
<path fill="none" stroke-width="0.533489" stroke-linecap="butt" stroke-linejoin="round" stroke="rgb(92.156863%, 92.156863%, 92.156863%)" stroke-opacity="1" stroke-miterlimit="10" d="M 139.933594 217.847656 L 139.933594 5.480469 "/>
</g>
<g clip-path="url(#clip-10)">
<path fill="none" stroke-width="0.533489" stroke-linecap="butt" stroke-linejoin="round" stroke="rgb(92.156863%, 92.156863%, 92.156863%)" stroke-opacity="1" stroke-miterlimit="10" d="M 163.351562 217.847656 L 163.351562 5.480469 "/>
</g>
<g clip-path="url(#clip-11)">
<path fill="none" stroke-width="0.533489" stroke-linecap="butt" stroke-linejoin="round" stroke="rgb(92.156863%, 92.156863%, 92.156863%)" stroke-opacity="1" stroke-miterlimit="10" d="M 186.765625 217.847656 L 186.765625 5.480469 "/>
</g>
<g clip-path="url(#clip-12)">
<path fill="none" stroke-width="0.533489" stroke-linecap="butt" stroke-linejoin="round" stroke="rgb(92.156863%, 92.156863%, 92.156863%)" stroke-opacity="1" stroke-miterlimit="10" d="M 210.183594 217.847656 L 210.183594 5.480469 "/>
</g>
<g clip-path="url(#clip-13)">
<path fill="none" stroke-width="0.533489" stroke-linecap="butt" stroke-linejoin="round" stroke="rgb(92.156863%, 92.156863%, 92.156863%)" stroke-opacity="1" stroke-miterlimit="10" d="M 233.597656 217.847656 L 233.597656 5.480469 "/>
</g>
<g clip-path="url(#clip-14)">
<path fill="none" stroke-width="0.533489" stroke-linecap="butt" stroke-linejoin="round" stroke="rgb(92.156863%, 92.156863%, 92.156863%)" stroke-opacity="1" stroke-miterlimit="10" d="M 257.011719 217.847656 L 257.011719 5.480469 "/>
</g>
<g clip-path="url(#clip-15)">
<path fill="none" stroke-width="1.066978" stroke-linecap="butt" stroke-linejoin="round" stroke="rgb(92.156863%, 92.156863%, 92.156863%)" stroke-opacity="1" stroke-miterlimit="10" d="M 35.152344 208.195312 L 279.84375 208.195312 "/>
</g>
<g clip-path="url(#clip-16)">
<path fill="none" stroke-width="1.066978" stroke-linecap="butt" stroke-linejoin="round" stroke="rgb(92.156863%, 92.156863%, 92.156863%)" stroke-opacity="1" stroke-miterlimit="10" d="M 35.152344 169.582031 L 279.84375 169.582031 "/>
</g>
<g clip-path="url(#clip-17)">
<path fill="none" stroke-width="1.066978" stroke-linecap="butt" stroke-linejoin="round" stroke="rgb(92.156863%, 92.156863%, 92.156863%)" stroke-opacity="1" stroke-miterlimit="10" d="M 35.152344 130.972656 L 279.84375 130.972656 "/>
</g>
<g clip-path="url(#clip-18)">
<path fill="none" stroke-width="1.066978" stroke-linecap="butt" stroke-linejoin="round" stroke="rgb(92.156863%, 92.156863%, 92.156863%)" stroke-opacity="1" stroke-miterlimit="10" d="M 35.152344 92.359375 L 279.84375 92.359375 "/>
</g>
<g clip-path="url(#clip-19)">
<path fill="none" stroke-width="1.066978" stroke-linecap="butt" stroke-linejoin="round" stroke="rgb(92.156863%, 92.156863%, 92.156863%)" stroke-opacity="1" stroke-miterlimit="10" d="M 35.152344 53.746094 L 279.84375 53.746094 "/>
</g>
<g clip-path="url(#clip-20)">
<path fill="none" stroke-width="1.066978" stroke-linecap="butt" stroke-linejoin="round" stroke="rgb(92.156863%, 92.156863%, 92.156863%)" stroke-opacity="1" stroke-miterlimit="10" d="M 35.152344 15.132812 L 279.84375 15.132812 "/>
</g>
<g clip-path="url(#clip-21)">
<path fill="none" stroke-width="1.066978" stroke-linecap="butt" stroke-linejoin="round" stroke="rgb(92.156863%, 92.156863%, 92.156863%)" stroke-opacity="1" stroke-miterlimit="10" d="M 57.980469 217.847656 L 57.980469 5.480469 "/>
</g>
<g clip-path="url(#clip-22)">
<path fill="none" stroke-width="1.066978" stroke-linecap="butt" stroke-linejoin="round" stroke="rgb(92.156863%, 92.156863%, 92.156863%)" stroke-opacity="1" stroke-miterlimit="10" d="M 81.394531 217.847656 L 81.394531 5.480469 "/>
</g>
<g clip-path="url(#clip-23)">
<path fill="none" stroke-width="1.066978" stroke-linecap="butt" stroke-linejoin="round" stroke="rgb(92.156863%, 92.156863%, 92.156863%)" stroke-opacity="1" stroke-miterlimit="10" d="M 104.8125 217.847656 L 104.8125 5.480469 "/>
</g>
<g clip-path="url(#clip-24)">
<path fill="none" stroke-width="1.066978" stroke-linecap="butt" stroke-linejoin="round" stroke="rgb(92.156863%, 92.156863%, 92.156863%)" stroke-opacity="1" stroke-miterlimit="10" d="M 128.226562 217.847656 L 128.226562 5.480469 "/>
</g>
<g clip-path="url(#clip-25)">
<path fill="none" stroke-width="1.066978" stroke-linecap="butt" stroke-linejoin="round" stroke="rgb(92.156863%, 92.156863%, 92.156863%)" stroke-opacity="1" stroke-miterlimit="10" d="M 151.644531 217.847656 L 151.644531 5.480469 "/>
</g>
<g clip-path="url(#clip-26)">
<path fill="none" stroke-width="1.066978" stroke-linecap="butt" stroke-linejoin="round" stroke="rgb(92.156863%, 92.156863%, 92.156863%)" stroke-opacity="1" stroke-miterlimit="10" d="M 175.058594 217.847656 L 175.058594 5.480469 "/>
</g>
<g clip-path="url(#clip-27)">
<path fill="none" stroke-width="1.066978" stroke-linecap="butt" stroke-linejoin="round" stroke="rgb(92.156863%, 92.156863%, 92.156863%)" stroke-opacity="1" stroke-miterlimit="10" d="M 198.472656 217.847656 L 198.472656 5.480469 "/>
</g>
<g clip-path="url(#clip-28)">
<path fill="none" stroke-width="1.066978" stroke-linecap="butt" stroke-linejoin="round" stroke="rgb(92.156863%, 92.156863%, 92.156863%)" stroke-opacity="1" stroke-miterlimit="10" d="M 221.890625 217.847656 L 221.890625 5.480469 "/>
</g>
<g clip-path="url(#clip-29)">
<path fill="none" stroke-width="1.066978" stroke-linecap="butt" stroke-linejoin="round" stroke="rgb(92.156863%, 92.156863%, 92.156863%)" stroke-opacity="1" stroke-miterlimit="10" d="M 245.304688 217.847656 L 245.304688 5.480469 "/>
</g>
<g clip-path="url(#clip-30)">
<path fill="none" stroke-width="1.066978" stroke-linecap="butt" stroke-linejoin="round" stroke="rgb(92.156863%, 92.156863%, 92.156863%)" stroke-opacity="1" stroke-miterlimit="10" d="M 268.722656 217.847656 L 268.722656 5.480469 "/>
</g>
<g clip-path="url(#clip-31)">
<path fill="none" stroke-width="1.066978" stroke-linecap="butt" stroke-linejoin="round" stroke="rgb(97.254902%, 46.27451%, 42.745098%)" stroke-opacity="1" stroke-miterlimit="10" d="M 43 208.195312 L 186.113281 208.195312 L 188.4375 204.335938 L 190.183594 200.472656 L 191.929688 196.613281 L 193.675781 196.613281 L 195.128906 192.75 L 196.582031 188.890625 L 197.746094 185.027344 L 198.910156 185.027344 L 200.074219 181.167969 L 201.238281 177.304688 L 202.402344 177.304688 L 203.566406 173.445312 L 204.726562 169.582031 L 205.890625 165.722656 L 207.054688 161.859375 L 208.21875 158 L 209.089844 154.136719 L 209.964844 150.277344 L 210.835938 146.414062 L 211.710938 142.554688 L 212.582031 138.691406 L 214.328125 138.691406 L 216.070312 130.972656 L 216.945312 127.109375 L 217.816406 127.109375 L 218.398438 123.25 L 218.980469 119.386719 L 219.5625 115.527344 L 220.144531 111.664062 L 220.726562 107.804688 L 221.308594 103.941406 L 221.890625 100.082031 L 222.472656 96.21875 L 223.054688 92.359375 L 223.636719 88.496094 L 224.214844 84.636719 L 224.796875 80.773438 L 225.378906 76.914062 L 225.960938 73.050781 L 226.542969 69.191406 L 227.125 65.328125 L 227.707031 61.46875 L 228.289062 61.46875 L 228.871094 57.605469 L 229.453125 53.746094 L 230.035156 49.882812 L 230.617188 46.023438 L 231.199219 42.160156 L 231.78125 38.300781 L 232.363281 34.4375 L 232.941406 30.578125 L 233.523438 26.714844 L 234.105469 22.855469 L 234.6875 18.992188 L 234.980469 15.132812 L 235.269531 11.269531 L 235.5625 7.410156 L 235.851562 3.546875 L 236.144531 -0.3125 L 236.433594 -4.171875 L 236.722656 -8.035156 L 237.015625 -11.894531 L 237.304688 -15.757812 L 237.597656 -19.617188 L 237.886719 -23.480469 L 238.179688 -27.339844 L 238.46875 -31.203125 L 238.761719 -35.0625 L 239.050781 -38.925781 L 239.34375 -42.785156 L 239.632812 -46.648438 L 239.925781 -50.507812 L 240.214844 -54.371094 L 240.507812 -58.230469 L 240.796875 -62.09375 L 241.085938 -65.953125 L 241.378906 -69.816406 L 241.667969 -73.675781 L 241.960938 -77.539062 L 242.25 -81.398438 L 242.542969 -85.261719 L 242.832031 -85.261719 L 243.125 -89.121094 L 243.414062 -92.984375 L 243.707031 -96.84375 L 243.996094 -96.84375 L 244.289062 -100.707031 L 244.578125 -100.707031 L 244.867188 -104.566406 L 245.160156 -108.429688 L 245.449219 -112.289062 L 245.742188 -116.152344 L 246.03125 -120.011719 L 246.324219 -123.875 L 246.613281 -127.734375 L 246.90625 -131.59375 L 247.195312 -135.457031 L 247.488281 -139.316406 L 247.777344 -143.179688 L 248.070312 -147.039062 L 248.359375 -150.902344 L 248.652344 -154.761719 L 248.941406 -158.625 L 249.230469 -162.484375 L 249.523438 -166.347656 L 249.8125 -170.207031 L 250.105469 -174.070312 L 250.394531 -177.929688 L 250.6875 -181.792969 L 250.976562 -185.652344 L 251.269531 -189.515625 L 251.558594 -193.375 L 251.851562 -197.238281 L 252.140625 -201.097656 L 252.433594 -204.960938 L 252.722656 -208.820312 L 253.011719 -212.683594 L 253.304688 -216.542969 L 253.59375 -220.40625 L 253.886719 -224.265625 L 254.175781 -228.128906 L 254.46875 -231.988281 L 254.757812 -235.851562 L 255.050781 -239.710938 L 255.339844 -243.574219 L 255.632812 -247.433594 L 255.921875 -251.296875 L 256.214844 -255.15625 L 256.503906 -259.015625 L 256.796875 -262.878906 L 257.085938 -262.878906 L 257.375 -266.738281 L 257.667969 -270.601562 L 257.957031 -274.460938 L 258.25 -278.324219 L 258.539062 -282.183594 L 258.832031 -286.046875 L 259.121094 -289.90625 L 259.414062 -289.90625 L 259.703125 -293.769531 L 259.996094 -297.628906 L 260.285156 -301.492188 L 260.578125 -305.351562 L 260.867188 -309.214844 L 261.15625 -313.074219 L 261.449219 -316.9375 L 261.738281 -320.796875 L 262.03125 -324.660156 L 262.320312 -328.519531 L 262.613281 -332.382812 L 262.902344 -336.242188 L 263.195312 -340.105469 L 263.484375 -343.964844 L 263.777344 -347.828125 L 264.066406 -351.6875 L 264.359375 -355.550781 L 264.648438 -359.410156 L 264.941406 -363.273438 L 265.230469 -367.132812 L 265.519531 -370.996094 L 265.8125 -374.855469 L 266.101562 -378.71875 L 266.394531 -382.578125 L 266.683594 -386.441406 L 266.976562 -390.300781 L 267.265625 -394.160156 L 267.558594 -398.023438 L 267.847656 -401.882812 L 268.140625 -405.746094 L 268.429688 -409.605469 L 268.722656 -413.46875 "/>
</g>
<path fill="none" stroke-width="1.066978" stroke-linecap="butt" stroke-linejoin="round" stroke="rgb(0%, 72.941176%, 21.960784%)" stroke-opacity="1" stroke-miterlimit="10" d="M 43 38.300781 L 49.691406 42.160156 L 56.089844 46.023438 L 62.488281 49.882812 L 68.597656 53.746094 L 74.707031 57.605469 L 80.816406 61.46875 L 86.632812 65.328125 L 92.160156 69.191406 L 97.683594 73.050781 L 102.921875 76.914062 L 108.15625 80.773438 L 113.101562 84.636719 L 118.046875 88.496094 L 122.699219 92.359375 L 127.355469 96.21875 L 131.71875 100.082031 L 136.082031 103.941406 L 140.152344 107.804688 L 144.226562 111.664062 L 148.296875 115.527344 L 152.371094 119.386719 L 156.441406 123.25 L 160.515625 127.109375 L 164.585938 130.972656 L 172.148438 138.691406 L 175.640625 142.554688 L 178.839844 146.414062 L 181.457031 150.277344 L 183.785156 154.136719 L 186.113281 158 L 188.4375 161.859375 L 193.675781 161.859375 L 195.128906 165.722656 L 198.910156 165.722656 L 200.074219 169.582031 L 202.402344 169.582031 L 203.566406 173.445312 L 213.453125 173.445312 L 214.328125 177.304688 L 215.199219 181.167969 L 217.816406 181.167969 L 218.398438 185.027344 L 228.289062 185.027344 L 228.871094 188.890625 L 242.832031 188.890625 L 243.125 192.75 L 243.996094 192.75 L 244.289062 196.613281 L 244.578125 196.613281 L 244.867188 200.472656 L 257.085938 200.472656 L 257.375 204.335938 L 259.414062 204.335938 L 259.703125 208.195312 L 268.722656 208.195312 "/>
<g clip-path="url(#clip-32)">
<path fill="none" stroke-width="1.066978" stroke-linecap="butt" stroke-linejoin="round" stroke="rgb(38.039216%, 61.176471%, 100%)" stroke-opacity="1" stroke-miterlimit="10" d="M 43 204.335938 L 49.691406 200.472656 L 56.089844 196.613281 L 62.488281 192.75 L 68.597656 188.890625 L 74.707031 185.027344 L 80.816406 181.167969 L 86.632812 177.304688 L 92.160156 173.445312 L 97.683594 169.582031 L 102.921875 165.722656 L 108.15625 161.859375 L 113.101562 158 L 118.046875 154.136719 L 122.699219 150.277344 L 127.355469 146.414062 L 131.71875 142.554688 L 136.082031 138.691406 L 140.152344 134.832031 L 144.226562 130.972656 L 148.296875 127.109375 L 152.371094 123.25 L 156.441406 119.386719 L 160.515625 115.527344 L 164.585938 111.664062 L 168.367188 107.804688 L 172.148438 103.941406 L 175.640625 100.082031 L 178.839844 96.21875 L 181.457031 92.359375 L 183.785156 88.496094 L 186.113281 84.636719 L 188.4375 80.773438 L 190.183594 76.914062 L 191.929688 73.050781 L 193.675781 69.191406 L 195.128906 65.328125 L 196.582031 61.46875 L 197.746094 57.605469 L 198.910156 53.746094 L 200.074219 49.882812 L 201.238281 46.023438 L 202.402344 42.160156 L 203.566406 38.300781 L 204.726562 34.4375 L 205.890625 30.578125 L 207.054688 26.714844 L 208.21875 22.855469 L 209.089844 18.992188 L 209.964844 15.132812 L 210.835938 11.269531 L 211.710938 7.410156 L 212.582031 3.546875 L 213.453125 -0.3125 L 214.328125 -4.171875 L 215.199219 -8.035156 L 216.070312 -11.894531 L 216.945312 -15.757812 L 217.816406 -19.617188 L 218.398438 -23.480469 L 218.980469 -27.339844 L 219.5625 -31.203125 L 220.144531 -35.0625 L 220.726562 -38.925781 L 221.308594 -42.785156 L 221.890625 -46.648438 L 222.472656 -50.507812 L 223.054688 -54.371094 L 223.636719 -58.230469 L 224.214844 -62.09375 L 224.796875 -65.953125 L 225.378906 -69.816406 L 225.960938 -73.675781 L 226.542969 -77.539062 L 227.125 -81.398438 L 227.707031 -85.261719 L 228.289062 -89.121094 L 228.871094 -92.984375 L 229.453125 -96.84375 L 230.035156 -100.707031 L 230.617188 -104.566406 L 231.199219 -108.429688 L 231.78125 -112.289062 L 232.363281 -116.152344 L 232.941406 -120.011719 L 233.523438 -123.875 L 234.6875 -131.59375 L 234.980469 -135.457031 L 235.269531 -139.316406 L 235.5625 -143.179688 L 235.851562 -147.039062 L 236.144531 -150.902344 L 236.433594 -154.761719 L 236.722656 -158.625 L 237.015625 -162.484375 L 237.304688 -166.347656 L 237.597656 -170.207031 L 237.886719 -174.070312 L 238.179688 -177.929688 L 238.46875 -181.792969 L 238.761719 -185.652344 L 239.050781 -189.515625 L 239.34375 -193.375 L 239.632812 -197.238281 L 239.925781 -201.097656 L 240.214844 -204.960938 L 240.507812 -208.820312 L 240.796875 -212.683594 L 241.085938 -216.542969 L 241.378906 -220.40625 L 241.667969 -224.265625 L 241.960938 -228.128906 L 242.25 -231.988281 L 242.542969 -235.851562 L 242.832031 -239.710938 L 243.125 -243.574219 L 243.414062 -247.433594 L 243.707031 -251.296875 L 243.996094 -255.15625 L 244.289062 -259.015625 L 244.578125 -262.878906 L 244.867188 -266.738281 L 245.160156 -270.601562 L 245.449219 -274.460938 L 245.742188 -278.324219 L 246.03125 -282.183594 L 246.324219 -286.046875 L 246.613281 -289.90625 L 246.90625 -293.769531 L 247.195312 -297.628906 L 247.488281 -301.492188 L 247.777344 -305.351562 L 248.070312 -309.214844 L 248.359375 -313.074219 L 248.652344 -316.9375 L 248.941406 -320.796875 L 249.230469 -324.660156 L 249.523438 -328.519531 L 249.8125 -332.382812 L 250.105469 -336.242188 L 250.394531 -340.105469 L 250.6875 -343.964844 L 250.976562 -347.828125 L 251.269531 -351.6875 L 251.558594 -355.550781 L 251.851562 -359.410156 L 252.140625 -363.273438 L 252.433594 -367.132812 L 252.722656 -370.996094 L 253.011719 -374.855469 L 253.304688 -378.71875 L 253.59375 -382.578125 L 253.886719 -386.441406 L 254.175781 -390.300781 L 254.46875 -394.160156 L 254.757812 -398.023438 L 255.050781 -401.882812 L 255.339844 -405.746094 L 255.632812 -409.605469 L 255.921875 -413.46875 L 256.214844 -417.328125 L 256.503906 -421.191406 L 256.796875 -425.050781 L 257.085938 -428.914062 L 257.375 -432.773438 L 257.667969 -436.636719 L 257.957031 -440.496094 L 258.25 -444.359375 L 258.539062 -448.21875 L 258.832031 -452.082031 L 259.121094 -455.941406 L 259.414062 -459.804688 L 259.703125 -463.664062 L 259.996094 -467.527344 L 260.285156 -471.386719 L 260.578125 -475.25 L 260.867188 -479.109375 L 261.15625 -482.972656 L 261.449219 -486.832031 L 261.738281 -490.695312 L 262.03125 -494.554688 L 262.320312 -498.417969 L 262.613281 -502.277344 L 262.902344 -506.140625 L 263.195312 -510 L 263.484375 -513.863281 L 263.777344 -517.722656 L 264.066406 -521.582031 L 264.359375 -525.445312 L 264.648438 -529.304688 L 264.941406 -533.167969 L 265.230469 -537.027344 L 265.519531 -540.890625 L 265.8125 -544.75 L 266.101562 -548.613281 L 266.394531 -552.472656 L 266.683594 -556.335938 L 266.976562 -560.195312 L 267.265625 -564.058594 L 267.558594 -567.917969 L 267.847656 -571.78125 L 268.140625 -575.640625 L 268.429688 -579.503906 L 268.722656 -583.363281 "/>
</g>
<g fill="rgb(30.196078%, 30.196078%, 30.196078%)" fill-opacity="1">
<use xlink:href="#glyph-0-0" x="25.21875" y="211.110352"/>
</g>
<g fill="rgb(30.196078%, 30.196078%, 30.196078%)" fill-opacity="1">
<use xlink:href="#glyph-0-1" x="20.21875" y="172.49707"/>
<use xlink:href="#glyph-0-0" x="25.21875" y="172.49707"/>
</g>
<g fill="rgb(30.196078%, 30.196078%, 30.196078%)" fill-opacity="1">
<use xlink:href="#glyph-0-2" x="20.21875" y="133.887695"/>
<use xlink:href="#glyph-0-0" x="25.21875" y="133.887695"/>
</g>
<g fill="rgb(30.196078%, 30.196078%, 30.196078%)" fill-opacity="1">
<use xlink:href="#glyph-0-3" x="20.21875" y="95.274414"/>
<use xlink:href="#glyph-0-0" x="25.21875" y="95.274414"/>
</g>
<g fill="rgb(30.196078%, 30.196078%, 30.196078%)" fill-opacity="1">
<use xlink:href="#glyph-0-4" x="20.21875" y="56.661133"/>
<use xlink:href="#glyph-0-0" x="25.21875" y="56.661133"/>
</g>
<g fill="rgb(30.196078%, 30.196078%, 30.196078%)" fill-opacity="1">
<use xlink:href="#glyph-0-5" x="20.21875" y="18.047852"/>
<use xlink:href="#glyph-0-0" x="25.21875" y="18.047852"/>
</g>
<g fill="rgb(30.196078%, 30.196078%, 30.196078%)" fill-opacity="1">
<use xlink:href="#glyph-0-1" x="48.980469" y="229.196289"/>
<use xlink:href="#glyph-0-0" x="53.980469" y="229.196289"/>
<use xlink:href="#glyph-0-6" x="58.980469" y="229.196289"/>
</g>
<g fill="rgb(30.196078%, 30.196078%, 30.196078%)" fill-opacity="1">
<use xlink:href="#glyph-0-2" x="72.394531" y="229.196289"/>
<use xlink:href="#glyph-0-0" x="77.394531" y="229.196289"/>
<use xlink:href="#glyph-0-6" x="82.394531" y="229.196289"/>
</g>
<g fill="rgb(30.196078%, 30.196078%, 30.196078%)" fill-opacity="1">
<use xlink:href="#glyph-0-3" x="95.8125" y="229.196289"/>
<use xlink:href="#glyph-0-0" x="100.8125" y="229.196289"/>
<use xlink:href="#glyph-0-6" x="105.8125" y="229.196289"/>
</g>
<g fill="rgb(30.196078%, 30.196078%, 30.196078%)" fill-opacity="1">
<use xlink:href="#glyph-0-4" x="119.226562" y="229.196289"/>
<use xlink:href="#glyph-0-0" x="124.226562" y="229.196289"/>
<use xlink:href="#glyph-0-6" x="129.226562" y="229.196289"/>
</g>
<g fill="rgb(30.196078%, 30.196078%, 30.196078%)" fill-opacity="1">
<use xlink:href="#glyph-0-5" x="142.644531" y="229.196289"/>
<use xlink:href="#glyph-0-0" x="147.644531" y="229.196289"/>
<use xlink:href="#glyph-0-6" x="152.644531" y="229.196289"/>
</g>
<g fill="rgb(30.196078%, 30.196078%, 30.196078%)" fill-opacity="1">
<use xlink:href="#glyph-0-7" x="166.058594" y="229.196289"/>
<use xlink:href="#glyph-0-0" x="171.058594" y="229.196289"/>
<use xlink:href="#glyph-0-6" x="176.058594" y="229.196289"/>
</g>
<g fill="rgb(30.196078%, 30.196078%, 30.196078%)" fill-opacity="1">
<use xlink:href="#glyph-0-8" x="189.472656" y="229.196289"/>
<use xlink:href="#glyph-0-0" x="194.472656" y="229.196289"/>
<use xlink:href="#glyph-0-6" x="199.472656" y="229.196289"/>
</g>
<g fill="rgb(30.196078%, 30.196078%, 30.196078%)" fill-opacity="1">
<use xlink:href="#glyph-0-9" x="212.890625" y="229.196289"/>
<use xlink:href="#glyph-0-0" x="217.890625" y="229.196289"/>
<use xlink:href="#glyph-0-6" x="222.890625" y="229.196289"/>
</g>
<g fill="rgb(30.196078%, 30.196078%, 30.196078%)" fill-opacity="1">
<use xlink:href="#glyph-0-10" x="236.304688" y="229.196289"/>
<use xlink:href="#glyph-0-0" x="241.304688" y="229.196289"/>
<use xlink:href="#glyph-0-6" x="246.304688" y="229.196289"/>
</g>
<g fill="rgb(30.196078%, 30.196078%, 30.196078%)" fill-opacity="1">
<use xlink:href="#glyph-0-1" x="257.222656" y="229.196289"/>
<use xlink:href="#glyph-0-0" x="262.222656" y="229.196289"/>
<use xlink:href="#glyph-0-0" x="267.222656" y="229.196289"/>
<use xlink:href="#glyph-0-6" x="272.222656" y="229.196289"/>
</g>
<g fill="rgb(0%, 0%, 0%)" fill-opacity="1">
<use xlink:href="#glyph-1-0" x="91.996094" y="242.538086"/>
<use xlink:href="#glyph-1-1" x="99.996094" y="242.538086"/>
<use xlink:href="#glyph-1-2" x="105.996094" y="242.538086"/>
<use xlink:href="#glyph-1-3" x="111.996094" y="242.538086"/>
<use xlink:href="#glyph-1-4" x="117.996094" y="242.538086"/>
<use xlink:href="#glyph-1-5" x="123.996094" y="242.538086"/>
<use xlink:href="#glyph-1-6" x="126.996094" y="242.538086"/>
<use xlink:href="#glyph-1-7" x="129.996094" y="242.538086"/>
<use xlink:href="#glyph-1-8" x="133.996094" y="242.538086"/>
<use xlink:href="#glyph-1-9" x="139.996094" y="242.538086"/>
<use xlink:href="#glyph-1-2" x="145.996094" y="242.538086"/>
<use xlink:href="#glyph-1-8" x="151.996094" y="242.538086"/>
<use xlink:href="#glyph-1-3" x="157.996094" y="242.538086"/>
<use xlink:href="#glyph-1-10" x="163.996094" y="242.538086"/>
<use xlink:href="#glyph-1-11" x="168.996094" y="242.538086"/>
<use xlink:href="#glyph-1-5" x="174.996094" y="242.538086"/>
<use xlink:href="#glyph-1-12" x="177.996094" y="242.538086"/>
<use xlink:href="#glyph-1-1" x="180.996094" y="242.538086"/>
<use xlink:href="#glyph-1-7" x="186.996094" y="242.538086"/>
<use xlink:href="#glyph-1-8" x="190.996094" y="242.538086"/>
<use xlink:href="#glyph-1-13" x="196.996094" y="242.538086"/>
<use xlink:href="#glyph-1-1" x="202.996094" y="242.538086"/>
<use xlink:href="#glyph-1-14" x="208.996094" y="242.538086"/>
<use xlink:href="#glyph-1-15" x="214.996094" y="242.538086"/>
<use xlink:href="#glyph-1-16" x="216.996094" y="242.538086"/>
</g>
<g fill="rgb(0%, 0%, 0%)" fill-opacity="1">
<use xlink:href="#glyph-2-0" x="13.499023" y="150.164062"/>
<use xlink:href="#glyph-2-1" x="13.499023" y="144.164062"/>
<use xlink:href="#glyph-2-2" x="13.499023" y="141.164062"/>
<use xlink:href="#glyph-2-3" x="13.499023" y="134.164062"/>
<use xlink:href="#glyph-2-4" x="13.499023" y="128.164062"/>
<use xlink:href="#glyph-2-5" x="13.499023" y="124.164062"/>
<use xlink:href="#glyph-2-6" x="13.499023" y="121.164062"/>
<use xlink:href="#glyph-2-7" x="13.499023" y="115.164062"/>
<use xlink:href="#glyph-2-8" x="13.499023" y="109.164062"/>
<use xlink:href="#glyph-2-9" x="13.499023" y="103.164062"/>
<use xlink:href="#glyph-2-1" x="13.499023" y="97.164062"/>
<use xlink:href="#glyph-2-6" x="13.499023" y="94.164062"/>
<use xlink:href="#glyph-2-7" x="13.499023" y="88.164062"/>
<use xlink:href="#glyph-2-10" x="13.499023" y="82.164062"/>
<use xlink:href="#glyph-2-11" x="13.499023" y="79.164062"/>
</g>
<path fill="none" stroke-width="1.066978" stroke-linecap="butt" stroke-linejoin="round" stroke="rgb(97.254902%, 46.27451%, 42.745098%)" stroke-opacity="1" stroke-miterlimit="10" d="M 298.007812 103.125 L 311.832031 103.125 "/>
<path fill="none" stroke-width="1.066978" stroke-linecap="butt" stroke-linejoin="round" stroke="rgb(0%, 72.941176%, 21.960784%)" stroke-opacity="1" stroke-miterlimit="10" d="M 298.007812 120.402344 L 311.832031 120.402344 "/>
<path fill="none" stroke-width="1.066978" stroke-linecap="butt" stroke-linejoin="round" stroke="rgb(38.039216%, 61.176471%, 100%)" stroke-opacity="1" stroke-miterlimit="10" d="M 298.007812 137.683594 L 311.832031 137.683594 "/>
<g fill="rgb(0%, 0%, 0%)" fill-opacity="1">
<use xlink:href="#glyph-0-11" x="319.042969" y="106.040039"/>
<use xlink:href="#glyph-0-12" x="324.042969" y="106.040039"/>
<use xlink:href="#glyph-0-13" x="329.042969" y="106.040039"/>
<use xlink:href="#glyph-0-14" x="331.042969" y="106.040039"/>
<use xlink:href="#glyph-0-15" x="335.042969" y="106.040039"/>
<use xlink:href="#glyph-0-16" x="340.042969" y="106.040039"/>
<use xlink:href="#glyph-0-17" x="342.042969" y="106.040039"/>
<use xlink:href="#glyph-0-18" x="348.042969" y="106.040039"/>
<use xlink:href="#glyph-0-14" x="353.042969" y="106.040039"/>
<use xlink:href="#glyph-0-19" x="357.042969" y="106.040039"/>
<use xlink:href="#glyph-0-20" x="359.042969" y="106.040039"/>
<use xlink:href="#glyph-0-19" x="361.042969" y="106.040039"/>
<use xlink:href="#glyph-0-21" x="363.042969" y="106.040039"/>
<use xlink:href="#glyph-0-15" x="367.042969" y="106.040039"/>
</g>
<g fill="rgb(0%, 0%, 0%)" fill-opacity="1">
<use xlink:href="#glyph-0-11" x="319.042969" y="123.317383"/>
<use xlink:href="#glyph-0-12" x="324.042969" y="123.317383"/>
<use xlink:href="#glyph-0-13" x="329.042969" y="123.317383"/>
<use xlink:href="#glyph-0-14" x="331.042969" y="123.317383"/>
<use xlink:href="#glyph-0-15" x="335.042969" y="123.317383"/>
<use xlink:href="#glyph-0-16" x="340.042969" y="123.317383"/>
<use xlink:href="#glyph-0-22" x="342.042969" y="123.317383"/>
<use xlink:href="#glyph-0-15" x="348.042969" y="123.317383"/>
<use xlink:href="#glyph-0-23" x="353.042969" y="123.317383"/>
<use xlink:href="#glyph-0-12" x="358.042969" y="123.317383"/>
<use xlink:href="#glyph-0-20" x="363.042969" y="123.317383"/>
<use xlink:href="#glyph-0-19" x="365.042969" y="123.317383"/>
<use xlink:href="#glyph-0-21" x="367.042969" y="123.317383"/>
<use xlink:href="#glyph-0-15" x="371.042969" y="123.317383"/>
</g>
<g fill="rgb(0%, 0%, 0%)" fill-opacity="1">
<use xlink:href="#glyph-0-24" x="319.042969" y="140.598633"/>
<use xlink:href="#glyph-0-18" x="324.042969" y="140.598633"/>
<use xlink:href="#glyph-0-20" x="329.042969" y="140.598633"/>
<use xlink:href="#glyph-0-12" x="331.042969" y="140.598633"/>
<use xlink:href="#glyph-0-13" x="336.042969" y="140.598633"/>
<use xlink:href="#glyph-0-16" x="338.042969" y="140.598633"/>
<use xlink:href="#glyph-0-12" x="340.042969" y="140.598633"/>
<use xlink:href="#glyph-0-25" x="345.042969" y="140.598633"/>
<use xlink:href="#glyph-0-20" x="349.042969" y="140.598633"/>
<use xlink:href="#glyph-0-14" x="351.042969" y="140.598633"/>
<use xlink:href="#glyph-0-16" x="355.042969" y="140.598633"/>
<use xlink:href="#glyph-0-25" x="357.042969" y="140.598633"/>
<use xlink:href="#glyph-0-26" x="361.042969" y="140.598633"/>
<use xlink:href="#glyph-0-18" x="366.042969" y="140.598633"/>
<use xlink:href="#glyph-0-14" x="371.042969" y="140.598633"/>
<use xlink:href="#glyph-0-15" x="375.042969" y="140.598633"/>
<use xlink:href="#glyph-0-27" x="380.042969" y="140.598633"/>
</g>
</svg>
