<?xml version="1.0" encoding="UTF-8"?>
<svg xmlns="http://www.w3.org/2000/svg" xmlns:xlink="http://www.w3.org/1999/xlink" width="648" height="648" viewBox="0 0 648 648">
<defs>
<g>
<g id="glyph-0-0">
<path d="M 1.375 -2.046875 L 2.328125 -2.984375 L 4.390625 0 L 5.265625 0 L 2.859375 -3.453125 L 5.234375 -5.828125 L 4.28125 -5.828125 L 1.375 -2.875 L 1.375 -5.828125 L 0.625 -5.828125 L 0.625 0 L 1.375 0 Z M 1.375 -2.046875 "/>
</g>
<g id="glyph-0-1">
<path d="M 4.109375 -1.875 C 4.109375 -2.515625 4.0625 -2.890625 3.9375 -3.203125 C 3.65625 -3.890625 3.03125 -4.3125 2.234375 -4.3125 C 1.078125 -4.3125 0.3125 -3.421875 0.3125 -2.046875 C 0.3125 -0.65625 1.046875 0.1875 2.21875 0.1875 C 3.1875 0.1875 3.84375 -0.359375 4.015625 -1.265625 L 3.34375 -1.265625 C 3.15625 -0.71875 2.78125 -0.4375 2.25 -0.4375 C 1.828125 -0.4375 1.46875 -0.625 1.234375 -0.96875 C 1.078125 -1.21875 1.03125 -1.453125 1.015625 -1.875 Z M 1.03125 -2.421875 C 1.09375 -3.1875 1.5625 -3.703125 2.234375 -3.703125 C 2.90625 -3.703125 3.390625 -3.171875 3.390625 -2.421875 Z M 1.03125 -2.421875 "/>
</g>
<g id="glyph-0-2">
<path d="M 3.109375 -4.1875 L 1.9375 -0.921875 L 0.875 -4.1875 L 0.15625 -4.1875 L 1.578125 0.015625 L 1.3125 0.6875 C 1.203125 0.96875 1.0625 1.09375 0.78125 1.09375 C 0.671875 1.09375 0.578125 1.078125 0.4375 1.046875 L 0.4375 1.640625 C 0.5625 1.71875 0.703125 1.75 0.875 1.75 C 1.09375 1.75 1.328125 1.671875 1.5 1.546875 C 1.71875 1.390625 1.828125 1.21875 1.953125 0.875 L 3.828125 -4.1875 Z M 3.109375 -4.1875 "/>
</g>
<g id="glyph-0-3">
<path d="M 4.4375 0 L 5.65625 -4.1875 L 4.90625 -4.1875 L 4.078125 -0.921875 L 3.25 -4.1875 L 2.4375 -4.1875 L 1.640625 -0.921875 L 0.78125 -4.1875 L 0.046875 -4.1875 L 1.265625 0 L 2.015625 0 L 2.828125 -3.28125 L 3.671875 0 Z M 4.4375 0 "/>
</g>
<g id="glyph-0-4">
<path d="M 2.171875 -4.3125 C 0.984375 -4.3125 0.28125 -3.46875 0.28125 -2.0625 C 0.28125 -0.640625 0.984375 0.1875 2.1875 0.1875 C 3.375 0.1875 4.078125 -0.65625 4.078125 -2.03125 C 4.078125 -3.484375 3.390625 -4.3125 2.171875 -4.3125 Z M 2.1875 -3.703125 C 2.9375 -3.703125 3.390625 -3.078125 3.390625 -2.046875 C 3.390625 -1.046875 2.921875 -0.4375 2.1875 -0.4375 C 1.4375 -0.4375 0.984375 -1.046875 0.984375 -2.0625 C 0.984375 -3.078125 1.4375 -3.703125 2.1875 -3.703125 Z M 2.1875 -3.703125 "/>
</g>
<g id="glyph-0-5">
<path d="M 0.546875 -4.1875 L 0.546875 0 L 1.21875 0 L 1.21875 -2.171875 C 1.234375 -3.1875 1.640625 -3.625 2.5625 -3.609375 L 2.5625 -4.28125 C 2.453125 -4.296875 2.390625 -4.3125 2.3125 -4.3125 C 1.875 -4.3125 1.546875 -4.0625 1.171875 -3.4375 L 1.171875 -4.1875 Z M 0.546875 -4.1875 "/>
</g>
<g id="glyph-0-6">
<path d="M 3.953125 -5.828125 L 3.296875 -5.828125 L 3.296875 -3.65625 C 3.015625 -4.09375 2.5625 -4.3125 2.015625 -4.3125 C 0.921875 -4.3125 0.203125 -3.4375 0.203125 -2.109375 C 0.203125 -0.6875 0.890625 0.1875 2.03125 0.1875 C 2.609375 0.1875 3.015625 -0.03125 3.375 -0.546875 L 3.375 0 L 3.953125 0 Z M 2.125 -3.6875 C 2.84375 -3.6875 3.296875 -3.0625 3.296875 -2.046875 C 3.296875 -1.078125 2.828125 -0.4375 2.125 -0.4375 C 1.390625 -0.4375 0.90625 -1.09375 0.90625 -2.0625 C 0.90625 -3.046875 1.390625 -3.6875 2.125 -3.6875 Z M 2.125 -3.6875 "/>
</g>
<g id="glyph-0-7">
</g>
<g id="glyph-0-8">
<path d="M 3.234375 -4.1875 L 3.234375 -3.578125 C 2.890625 -4.09375 2.53125 -4.3125 2 -4.3125 C 0.984375 -4.3125 0.28125 -3.375 0.28125 -2.03125 C 0.28125 -1.3125 0.453125 -0.8125 0.8125 -0.390625 C 1.125 -0.015625 1.515625 0.1875 1.953125 0.1875 C 2.453125 0.1875 2.8125 -0.046875 3.171875 -0.5625 L 3.171875 -0.359375 C 3.171875 0.765625 2.859375 1.1875 2.03125 1.1875 C 1.453125 1.1875 1.15625 0.953125 1.09375 0.484375 L 0.421875 0.484375 C 0.484375 1.25 1.09375 1.75 2.015625 1.75 C 2.625 1.75 3.140625 1.546875 3.40625 1.203125 C 3.734375 0.8125 3.84375 0.296875 3.84375 -0.6875 L 3.84375 -4.1875 Z M 2.0625 -3.703125 C 2.765625 -3.703125 3.171875 -3.109375 3.171875 -2.046875 C 3.171875 -1.03125 2.765625 -0.4375 2.0625 -0.4375 C 1.375 -0.4375 0.96875 -1.03125 0.96875 -2.0625 C 0.96875 -3.09375 1.375 -3.703125 2.0625 -3.703125 Z M 2.0625 -3.703125 "/>
</g>
<g id="glyph-0-9">
<path d="M 4.28125 -0.390625 C 4.203125 -0.375 4.171875 -0.375 4.140625 -0.375 C 3.90625 -0.375 3.78125 -0.5 3.78125 -0.703125 L 3.78125 -3.171875 C 3.78125 -3.90625 3.234375 -4.3125 2.203125 -4.3125 C 1.578125 -4.3125 1.09375 -4.140625 0.8125 -3.828125 C 0.609375 -3.609375 0.53125 -3.375 0.515625 -2.953125 L 1.1875 -2.953125 C 1.25 -3.46875 1.546875 -3.703125 2.171875 -3.703125 C 2.78125 -3.703125 3.109375 -3.46875 3.109375 -3.078125 L 3.109375 -2.890625 C 3.109375 -2.609375 2.953125 -2.5 2.421875 -2.4375 C 1.46875 -2.3125 1.328125 -2.28125 1.078125 -2.171875 C 0.578125 -1.96875 0.34375 -1.59375 0.34375 -1.0625 C 0.34375 -0.296875 0.859375 0.1875 1.71875 0.1875 C 2.234375 0.1875 2.65625 0 3.140625 -0.4375 C 3.1875 0 3.390625 0.1875 3.828125 0.1875 C 3.96875 0.1875 4.0625 0.171875 4.28125 0.109375 Z M 3.109375 -1.3125 C 3.109375 -1.09375 3.046875 -0.953125 2.84375 -0.78125 C 2.578125 -0.53125 2.25 -0.40625 1.859375 -0.40625 C 1.34375 -0.40625 1.03125 -0.640625 1.03125 -1.078125 C 1.03125 -1.515625 1.3125 -1.734375 2.046875 -1.84375 C 2.75 -1.9375 2.890625 -1.96875 3.109375 -2.078125 Z M 3.109375 -1.3125 "/>
</g>
<g id="glyph-0-10">
<path d="M 2.03125 -4.1875 L 1.34375 -4.1875 L 1.34375 -5.34375 L 0.6875 -5.34375 L 0.6875 -4.1875 L 0.109375 -4.1875 L 0.109375 -3.640625 L 0.6875 -3.640625 L 0.6875 -0.484375 C 0.6875 -0.046875 0.96875 0.1875 1.484375 0.1875 C 1.65625 0.1875 1.8125 0.171875 2.03125 0.125 L 2.03125 -0.4375 C 1.9375 -0.40625 1.84375 -0.40625 1.71875 -0.40625 C 1.421875 -0.40625 1.34375 -0.484375 1.34375 -0.78125 L 1.34375 -3.640625 L 2.03125 -3.640625 Z M 2.03125 -4.1875 "/>
</g>
<g id="glyph-0-11">
<path d="M 2.65625 -5.828125 L 2.65625 -1.734375 C 2.65625 -1.265625 2.609375 -1 2.484375 -0.796875 C 2.34375 -0.578125 2.0625 -0.4375 1.765625 -0.4375 C 1.203125 -0.4375 0.890625 -0.8125 0.890625 -1.5 L 0.890625 -1.875 L 0.140625 -1.875 L 0.140625 -1.359375 C 0.140625 -0.421875 0.765625 0.1875 1.765625 0.1875 C 2.78125 0.1875 3.40625 -0.453125 3.40625 -1.453125 L 3.40625 -5.828125 Z M 2.65625 -5.828125 "/>
</g>
<g id="glyph-0-12">
<path d="M 5.953125 0 L 7.4375 -5.828125 L 6.59375 -5.828125 L 5.53125 -1.09375 L 4.203125 -5.828125 L 3.40625 -5.828125 L 2.109375 -1.09375 L 1.015625 -5.828125 L 0.171875 -5.828125 L 1.671875 0 L 2.484375 0 L 3.796875 -4.796875 L 5.140625 0 Z M 5.953125 0 "/>
</g>
<g id="glyph-0-13">
<path d="M 2.265625 -2.5 L 0.375 -2.5 L 0.375 -1.921875 L 2.265625 -1.921875 Z M 2.265625 -2.5 "/>
</g>
<g id="glyph-0-14">
<path d="M 0.5625 -4.1875 L 0.5625 0 L 1.234375 0 L 1.234375 -2.625 C 1.234375 -3.234375 1.671875 -3.734375 2.21875 -3.734375 C 2.71875 -3.734375 2.984375 -3.421875 2.984375 -2.890625 L 2.984375 0 L 3.65625 0 L 3.65625 -2.625 C 3.65625 -3.234375 4.109375 -3.734375 4.640625 -3.734375 C 5.140625 -3.734375 5.421875 -3.421875 5.421875 -2.890625 L 5.421875 0 L 6.09375 0 L 6.09375 -3.140625 C 6.09375 -3.890625 5.65625 -4.3125 4.875 -4.3125 C 4.3125 -4.3125 3.984375 -4.140625 3.59375 -3.671875 C 3.34375 -4.125 3.015625 -4.3125 2.46875 -4.3125 C 1.90625 -4.3125 1.53125 -4.109375 1.171875 -3.59375 L 1.171875 -4.1875 Z M 0.5625 -4.1875 "/>
</g>
<g id="glyph-0-15">
<path d="M 1.203125 -4.1875 L 0.53125 -4.1875 L 0.53125 0 L 1.203125 0 Z M 1.203125 -5.828125 L 0.53125 -5.828125 L 0.53125 -4.984375 L 1.203125 -4.984375 Z M 1.203125 -5.828125 "/>
</g>
<g id="glyph-0-16">
<path d="M 0.5625 -4.1875 L 0.5625 0 L 1.234375 0 L 1.234375 -2.3125 C 1.234375 -3.171875 1.6875 -3.734375 2.375 -3.734375 C 2.890625 -3.734375 3.234375 -3.40625 3.234375 -2.90625 L 3.234375 0 L 3.890625 0 L 3.890625 -3.171875 C 3.890625 -3.859375 3.375 -4.3125 2.5625 -4.3125 C 1.9375 -4.3125 1.546875 -4.078125 1.171875 -3.484375 L 1.171875 -4.1875 Z M 0.5625 -4.1875 "/>
</g>
<g id="glyph-0-17">
<path d="M 4.140625 -0.453125 L 0.21875 -0.453125 L 0.21875 0.09375 L 4.140625 0.09375 Z M 0.21875 -2.90625 L 4.140625 -1.25 L 4.140625 -1.875 L 0.984375 -3.1875 L 4.140625 -4.484375 L 4.140625 -5.109375 L 0.21875 -3.453125 Z M 0.21875 -2.90625 "/>
</g>
<g id="glyph-0-18">
<path d="M 2.203125 -5.78125 C 1.671875 -5.78125 1.1875 -5.546875 0.890625 -5.15625 C 0.53125 -4.640625 0.34375 -3.875 0.34375 -2.796875 C 0.34375 -0.84375 0.984375 0.1875 2.203125 0.1875 C 3.40625 0.1875 4.0625 -0.84375 4.0625 -2.75 C 4.0625 -3.875 3.875 -4.625 3.5 -5.15625 C 3.203125 -5.546875 2.734375 -5.78125 2.203125 -5.78125 Z M 2.203125 -5.15625 C 2.953125 -5.15625 3.34375 -4.390625 3.34375 -2.8125 C 3.34375 -1.171875 2.96875 -0.40625 2.1875 -0.40625 C 1.4375 -0.40625 1.0625 -1.203125 1.0625 -2.796875 C 1.0625 -4.390625 1.4375 -5.15625 2.203125 -5.15625 Z M 2.203125 -5.15625 "/>
</g>
<g id="glyph-0-19">
<path d="M 1.53125 -0.828125 L 0.703125 -0.828125 L 0.703125 0 L 1.53125 0 Z M 1.53125 -0.828125 "/>
</g>
<g id="glyph-0-20">
<path d="M 1.765625 -2.65625 L 2.15625 -2.65625 C 2.921875 -2.65625 3.328125 -2.296875 3.328125 -1.609375 C 3.328125 -0.875 2.890625 -0.4375 2.15625 -0.4375 C 1.390625 -0.4375 1.015625 -0.828125 0.953125 -1.6875 L 0.25 -1.6875 C 0.28125 -1.21875 0.375 -0.90625 0.5 -0.65625 C 0.796875 -0.09375 1.359375 0.1875 2.125 0.1875 C 3.296875 0.1875 4.046875 -0.515625 4.046875 -1.609375 C 4.046875 -2.359375 3.765625 -2.75 3.09375 -2.984375 C 3.609375 -3.203125 3.875 -3.609375 3.875 -4.1875 C 3.875 -5.1875 3.234375 -5.78125 2.15625 -5.78125 C 1.015625 -5.78125 0.40625 -5.140625 0.375 -3.921875 L 1.078125 -3.921875 C 1.09375 -4.265625 1.125 -4.46875 1.203125 -4.640625 C 1.375 -4.96875 1.71875 -5.171875 2.15625 -5.171875 C 2.78125 -5.171875 3.15625 -4.796875 3.15625 -4.171875 C 3.15625 -3.765625 3.015625 -3.515625 2.703125 -3.375 C 2.515625 -3.296875 2.25 -3.265625 1.765625 -3.25 Z M 1.765625 -2.65625 "/>
</g>
<g id="glyph-0-21">
<path d="M 4.046875 -0.703125 L 1.0625 -0.703125 C 1.140625 -1.171875 1.390625 -1.484375 2.09375 -1.90625 L 2.890625 -2.359375 C 3.6875 -2.796875 4.09375 -3.390625 4.09375 -4.09375 C 4.09375 -4.578125 3.890625 -5.03125 3.5625 -5.328125 C 3.21875 -5.640625 2.8125 -5.78125 2.265625 -5.78125 C 1.546875 -5.78125 1.015625 -5.53125 0.703125 -5.03125 C 0.5 -4.734375 0.421875 -4.375 0.40625 -3.78125 L 1.109375 -3.78125 C 1.125 -4.171875 1.171875 -4.40625 1.265625 -4.59375 C 1.453125 -4.953125 1.828125 -5.171875 2.25 -5.171875 C 2.890625 -5.171875 3.375 -4.703125 3.375 -4.078125 C 3.375 -3.609375 3.109375 -3.21875 2.59375 -2.921875 L 1.859375 -2.5 C 0.6875 -1.8125 0.34375 -1.265625 0.265625 -0.015625 L 4.046875 -0.015625 Z M 4.046875 -0.703125 "/>
</g>
<g id="glyph-0-22">
<path d="M 3.8125 -5.671875 L 0.875 -5.671875 L 0.453125 -2.578125 L 1.109375 -2.578125 C 1.4375 -2.96875 1.703125 -3.109375 2.15625 -3.109375 C 2.90625 -3.109375 3.390625 -2.59375 3.390625 -1.75 C 3.390625 -0.9375 2.90625 -0.4375 2.140625 -0.4375 C 1.53125 -0.4375 1.15625 -0.75 0.984375 -1.390625 L 0.28125 -1.390625 C 0.375 -0.921875 0.453125 -0.703125 0.625 -0.5 C 0.9375 -0.0625 1.515625 0.1875 2.15625 0.1875 C 3.296875 0.1875 4.109375 -0.640625 4.109375 -1.84375 C 4.109375 -2.96875 3.359375 -3.734375 2.265625 -3.734375 C 1.875 -3.734375 1.546875 -3.625 1.21875 -3.390625 L 1.453125 -4.96875 L 3.8125 -4.96875 Z M 3.8125 -5.671875 "/>
</g>
<g id="glyph-0-23">
<path d="M 4.15625 -5.671875 L 0.375 -5.671875 L 0.375 -4.96875 L 3.4375 -4.96875 C 2.078125 -3.046875 1.53125 -1.859375 1.109375 0 L 1.859375 0 C 2.171875 -1.8125 2.875 -3.375 4.15625 -5.078125 Z M 4.15625 -5.671875 "/>
</g>
<g id="glyph-0-24">
<path d="M 2.078125 -4.125 L 2.078125 0 L 2.78125 0 L 2.78125 -5.78125 L 2.3125 -5.78125 C 2.0625 -4.890625 1.90625 -4.78125 0.8125 -4.625 L 0.8125 -4.125 Z M 2.078125 -4.125 "/>
</g>
<g id="glyph-0-25">
<path d="M 3.984375 -4.28125 C 3.84375 -5.21875 3.234375 -5.78125 2.375 -5.78125 C 1.75 -5.78125 1.1875 -5.484375 0.859375 -4.953125 C 0.5 -4.390625 0.34375 -3.6875 0.34375 -2.640625 C 0.34375 -1.65625 0.484375 -1.046875 0.828125 -0.53125 C 1.125 -0.0625 1.625 0.1875 2.25 0.1875 C 3.328125 0.1875 4.109375 -0.625 4.109375 -1.75 C 4.109375 -2.8125 3.390625 -3.5625 2.375 -3.5625 C 1.8125 -3.5625 1.375 -3.359375 1.0625 -2.9375 C 1.078125 -4.375 1.515625 -5.15625 2.328125 -5.15625 C 2.828125 -5.15625 3.171875 -4.84375 3.28125 -4.28125 Z M 2.28125 -2.9375 C 2.953125 -2.9375 3.390625 -2.46875 3.390625 -1.703125 C 3.390625 -0.96875 2.90625 -0.4375 2.25 -0.4375 C 1.59375 -0.4375 1.109375 -0.984375 1.109375 -1.734375 C 1.109375 -2.453125 1.578125 -2.9375 2.28125 -2.9375 Z M 2.28125 -2.9375 "/>
</g>
<g id="glyph-0-26">
<path d="M 3.125 -3.046875 C 3.71875 -3.40625 3.90625 -3.703125 3.90625 -4.234375 C 3.90625 -5.15625 3.203125 -5.78125 2.203125 -5.78125 C 1.203125 -5.78125 0.5 -5.15625 0.5 -4.25 C 0.5 -3.703125 0.6875 -3.421875 1.265625 -3.046875 C 0.609375 -2.71875 0.296875 -2.25 0.296875 -1.609375 C 0.296875 -0.546875 1.078125 0.1875 2.203125 0.1875 C 3.3125 0.1875 4.109375 -0.546875 4.109375 -1.609375 C 4.109375 -2.25 3.78125 -2.71875 3.125 -3.046875 Z M 2.203125 -5.15625 C 2.796875 -5.15625 3.1875 -4.796875 3.1875 -4.21875 C 3.1875 -3.6875 2.796875 -3.3125 2.203125 -3.3125 C 1.59375 -3.3125 1.21875 -3.6875 1.21875 -4.234375 C 1.21875 -4.796875 1.59375 -5.15625 2.203125 -5.15625 Z M 2.203125 -2.734375 C 2.90625 -2.734375 3.390625 -2.265625 3.390625 -1.59375 C 3.390625 -0.890625 2.90625 -0.4375 2.1875 -0.4375 C 1.5 -0.4375 1.015625 -0.90625 1.015625 -1.578125 C 1.015625 -2.265625 1.484375 -2.734375 2.203125 -2.734375 Z M 2.203125 -2.734375 "/>
</g>
<g id="glyph-0-27">
<path d="M 0.421875 -1.3125 C 0.5625 -0.375 1.171875 0.1875 2.03125 0.1875 C 2.65625 0.1875 3.21875 -0.125 3.5625 -0.640625 C 3.90625 -1.203125 4.078125 -1.90625 4.078125 -2.953125 C 4.078125 -3.9375 3.921875 -4.546875 3.59375 -5.0625 C 3.28125 -5.53125 2.78125 -5.78125 2.15625 -5.78125 C 1.078125 -5.78125 0.296875 -4.96875 0.296875 -3.859375 C 0.296875 -2.796875 1.03125 -2.046875 2.046875 -2.046875 C 2.578125 -2.046875 2.984375 -2.234375 3.34375 -2.671875 C 3.34375 -1.234375 2.890625 -0.4375 2.078125 -0.4375 C 1.578125 -0.4375 1.234375 -0.765625 1.125 -1.3125 Z M 2.15625 -5.171875 C 2.8125 -5.171875 3.296875 -4.609375 3.296875 -3.875 C 3.296875 -3.15625 2.828125 -2.65625 2.125 -2.65625 C 1.453125 -2.65625 1.03125 -3.140625 1.03125 -3.90625 C 1.03125 -4.640625 1.5 -5.171875 2.15625 -5.171875 Z M 2.15625 -5.171875 "/>
</g>
<g id="glyph-0-28">
<path d="M 4.421875 -5.828125 L 4.421875 -1.734375 C 4.421875 -0.953125 3.84375 -0.46875 2.90625 -0.46875 C 2.484375 -0.46875 2.125 -0.578125 1.84375 -0.78125 C 1.5625 -1 1.421875 -1.296875 1.421875 -1.734375 L 1.421875 -5.828125 L 0.6875 -5.828125 L 0.6875 -1.734375 C 0.6875 -0.546875 1.53125 0.1875 2.90625 0.1875 C 4.28125 0.1875 5.15625 -0.5625 5.15625 -1.734375 L 5.15625 -5.828125 Z M 4.421875 -5.828125 "/>
</g>
<g id="glyph-0-29">
<path d="M 0.4375 -5.828125 L 0.4375 0 L 1.03125 0 L 1.03125 -0.53125 C 1.359375 -0.046875 1.78125 0.1875 2.359375 0.1875 C 3.46875 0.1875 4.1875 -0.71875 4.1875 -2.109375 C 4.1875 -3.46875 3.5 -4.3125 2.390625 -4.3125 C 1.8125 -4.3125 1.40625 -4.09375 1.09375 -3.625 L 1.09375 -5.828125 Z M 2.265625 -3.6875 C 3.015625 -3.6875 3.484375 -3.046875 3.484375 -2.046875 C 3.484375 -1.09375 2.984375 -0.4375 2.265625 -0.4375 C 1.546875 -0.4375 1.09375 -1.078125 1.09375 -2.0625 C 1.09375 -3.046875 1.546875 -3.6875 2.265625 -3.6875 Z M 2.265625 -3.6875 "/>
</g>
<g id="glyph-0-30">
<path d="M 1.21875 -5.828125 L 0.546875 -5.828125 L 0.546875 0 L 1.21875 0 Z M 1.21875 -5.828125 "/>
</g>
<g id="glyph-0-31">
<path d="M 3.765625 -2.78125 C 3.734375 -3.1875 3.640625 -3.453125 3.484375 -3.6875 C 3.203125 -4.078125 2.703125 -4.3125 2.109375 -4.3125 C 0.96875 -4.3125 0.25 -3.421875 0.25 -2.03125 C 0.25 -0.671875 0.96875 0.1875 2.109375 0.1875 C 3.109375 0.1875 3.734375 -0.421875 3.8125 -1.4375 L 3.140625 -1.4375 C 3.03125 -0.765625 2.6875 -0.4375 2.125 -0.4375 C 1.390625 -0.4375 0.9375 -1.03125 0.9375 -2.03125 C 0.9375 -3.078125 1.375 -3.703125 2.109375 -3.703125 C 2.65625 -3.703125 3.015625 -3.375 3.09375 -2.78125 Z M 3.765625 -2.78125 "/>
</g>
<g id="glyph-0-32">
<path d="M 1.125 -5.828125 L 0.46875 -5.828125 L 0.46875 0 L 1.125 0 L 1.125 -1.625 L 1.78125 -2.265625 L 3.1875 0 L 4.015625 0 L 2.296875 -2.75 L 3.765625 -4.1875 L 2.90625 -4.1875 L 1.125 -2.421875 Z M 1.125 -5.828125 "/>
</g>
<g id="glyph-0-33">
<path d="M 3.09375 -2.28125 L 5.28125 -5.828125 L 4.40625 -5.828125 L 2.734375 -2.984375 L 1.03125 -5.828125 L 0.109375 -5.828125 L 2.359375 -2.28125 L 2.359375 0 L 3.09375 0 Z M 3.09375 -2.28125 "/>
</g>
<g id="glyph-0-34">
<path d="M 4.265625 -3.328125 L 2.609375 -3.328125 L 2.609375 -4.984375 L 2.0625 -4.984375 L 2.0625 -3.328125 L 0.40625 -3.328125 L 0.40625 -2.765625 L 2.0625 -2.765625 L 2.0625 -1.109375 L 2.609375 -1.109375 L 2.609375 -2.765625 L 4.265625 -2.765625 Z M 4.265625 -0.46875 L 0.40625 -0.46875 L 0.40625 0.09375 L 4.265625 0.09375 Z M 4.265625 -0.46875 "/>
</g>
<g id="glyph-1-0">
<path d="M -4.03125 -5.296875 C -5.296875 -5.0625 -5.921875 -4.328125 -5.921875 -3.046875 C -5.921875 -2.265625 -5.6875 -1.625 -5.203125 -1.203125 C -4.625 -0.671875 -3.796875 -0.390625 -2.84375 -0.390625 C -1.890625 -0.390625 -1.0625 -0.6875 -0.5 -1.21875 C -0.03125 -1.6875 0.1875 -2.25 0.1875 -3.015625 C 0.1875 -4.4375 -0.578125 -5.234375 -2.125 -5.421875 L -2.125 -4.640625 C -1.734375 -4.578125 -1.453125 -4.5 -1.21875 -4.390625 C -0.75 -4.140625 -0.46875 -3.640625 -0.46875 -3.03125 C -0.46875 -1.859375 -1.40625 -1.125 -2.859375 -1.125 C -4.359375 -1.125 -5.265625 -1.828125 -5.265625 -2.953125 C -5.265625 -3.4375 -5.140625 -3.875 -4.90625 -4.109375 C -4.703125 -4.328125 -4.46875 -4.453125 -4.03125 -4.53125 Z M -4.03125 -5.296875 "/>
</g>
<g id="glyph-1-1">
<path d="M -4.3125 -2.171875 C -4.3125 -0.984375 -3.46875 -0.28125 -2.0625 -0.28125 C -0.640625 -0.28125 0.1875 -0.984375 0.1875 -2.1875 C 0.1875 -3.375 -0.65625 -4.078125 -2.03125 -4.078125 C -3.484375 -4.078125 -4.3125 -3.390625 -4.3125 -2.171875 Z M -3.703125 -2.1875 C -3.703125 -2.9375 -3.078125 -3.390625 -2.046875 -3.390625 C -1.046875 -3.390625 -0.4375 -2.921875 -0.4375 -2.1875 C -0.4375 -1.4375 -1.046875 -0.984375 -2.0625 -0.984375 C -3.078125 -0.984375 -3.703125 -1.4375 -3.703125 -2.1875 Z M -3.703125 -2.1875 "/>
</g>
<g id="glyph-1-2">
<path d="M 0 -2.28125 L -4.1875 -3.890625 L -4.1875 -3.140625 L -0.796875 -1.953125 L -4.1875 -0.828125 L -4.1875 -0.078125 L 0 -1.546875 Z M 0 -2.28125 "/>
</g>
<g id="glyph-1-3">
<path d="M -1.875 -4.109375 C -2.515625 -4.109375 -2.890625 -4.0625 -3.203125 -3.9375 C -3.890625 -3.65625 -4.3125 -3.03125 -4.3125 -2.234375 C -4.3125 -1.078125 -3.421875 -0.3125 -2.046875 -0.3125 C -0.65625 -0.3125 0.1875 -1.046875 0.1875 -2.21875 C 0.1875 -3.1875 -0.359375 -3.84375 -1.265625 -4.015625 L -1.265625 -3.34375 C -0.71875 -3.15625 -0.4375 -2.78125 -0.4375 -2.25 C -0.4375 -1.828125 -0.625 -1.46875 -0.96875 -1.234375 C -1.21875 -1.078125 -1.453125 -1.03125 -1.875 -1.015625 Z M -2.421875 -1.03125 C -3.1875 -1.09375 -3.703125 -1.5625 -3.703125 -2.234375 C -3.703125 -2.90625 -3.171875 -3.390625 -2.421875 -3.390625 Z M -2.421875 -1.03125 "/>
</g>
<g id="glyph-1-4">
<path d="M -4.1875 -0.546875 L 0 -0.546875 L 0 -1.21875 L -2.171875 -1.21875 C -3.1875 -1.234375 -3.625 -1.640625 -3.609375 -2.5625 L -4.28125 -2.5625 C -4.296875 -2.453125 -4.3125 -2.390625 -4.3125 -2.3125 C -4.3125 -1.875 -4.0625 -1.546875 -3.4375 -1.171875 L -4.1875 -1.171875 Z M -4.1875 -0.546875 "/>
</g>
<g id="glyph-1-5">
<path d="M -0.390625 -4.28125 C -0.375 -4.203125 -0.375 -4.171875 -0.375 -4.140625 C -0.375 -3.90625 -0.5 -3.78125 -0.703125 -3.78125 L -3.171875 -3.78125 C -3.90625 -3.78125 -4.3125 -3.234375 -4.3125 -2.203125 C -4.3125 -1.578125 -4.140625 -1.09375 -3.828125 -0.8125 C -3.609375 -0.609375 -3.375 -0.53125 -2.953125 -0.515625 L -2.953125 -1.1875 C -3.46875 -1.25 -3.703125 -1.546875 -3.703125 -2.171875 C -3.703125 -2.78125 -3.46875 -3.109375 -3.078125 -3.109375 L -2.890625 -3.109375 C -2.609375 -3.109375 -2.5 -2.953125 -2.4375 -2.421875 C -2.3125 -1.46875 -2.28125 -1.328125 -2.171875 -1.078125 C -1.96875 -0.578125 -1.59375 -0.34375 -1.0625 -0.34375 C -0.296875 -0.34375 0.1875 -0.859375 0.1875 -1.71875 C 0.1875 -2.234375 0 -2.65625 -0.4375 -3.140625 C 0 -3.1875 0.1875 -3.390625 0.1875 -3.828125 C 0.1875 -3.96875 0.171875 -4.0625 0.109375 -4.28125 Z M -1.3125 -3.109375 C -1.09375 -3.109375 -0.953125 -3.046875 -0.78125 -2.84375 C -0.53125 -2.578125 -0.40625 -2.25 -0.40625 -1.859375 C -0.40625 -1.34375 -0.640625 -1.03125 -1.078125 -1.03125 C -1.515625 -1.03125 -1.734375 -1.3125 -1.84375 -2.046875 C -1.9375 -2.75 -1.96875 -2.890625 -2.078125 -3.109375 Z M -1.3125 -3.109375 "/>
</g>
<g id="glyph-1-6">
<path d="M -4.1875 -3.234375 L -3.578125 -3.234375 C -4.09375 -2.890625 -4.3125 -2.53125 -4.3125 -2 C -4.3125 -0.984375 -3.375 -0.28125 -2.03125 -0.28125 C -1.3125 -0.28125 -0.8125 -0.453125 -0.390625 -0.8125 C -0.015625 -1.125 0.1875 -1.515625 0.1875 -1.953125 C 0.1875 -2.453125 -0.046875 -2.8125 -0.5625 -3.171875 L -0.359375 -3.171875 C 0.765625 -3.171875 1.1875 -2.859375 1.1875 -2.03125 C 1.1875 -1.453125 0.953125 -1.15625 0.484375 -1.09375 L 0.484375 -0.421875 C 1.25 -0.484375 1.75 -1.09375 1.75 -2.015625 C 1.75 -2.625 1.546875 -3.140625 1.203125 -3.40625 C 0.8125 -3.734375 0.296875 -3.84375 -0.6875 -3.84375 L -4.1875 -3.84375 Z M -3.703125 -2.0625 C -3.703125 -2.765625 -3.109375 -3.171875 -2.046875 -3.171875 C -1.03125 -3.171875 -0.4375 -2.765625 -0.4375 -2.0625 C -0.4375 -1.375 -1.03125 -0.96875 -2.0625 -0.96875 C -3.09375 -0.96875 -3.703125 -1.375 -3.703125 -2.0625 Z M -3.703125 -2.0625 "/>
</g>
<g id="glyph-1-7">
</g>
<g id="glyph-1-8">
<path d="M 0.859375 -1.6875 L 0.859375 -2.15625 L -4.4375 -2.15625 C -4.296875 -2.34375 -4.21875 -2.46875 -4.140625 -2.625 C -4.0625 -2.78125 -3.9375 -3.078125 -3.9375 -3.140625 C -3.9375 -3.203125 -4.015625 -3.265625 -4.09375 -3.265625 C -4.140625 -3.265625 -4.171875 -3.25 -4.234375 -3.171875 C -4.640625 -2.703125 -4.828125 -2.546875 -5.609375 -2.078125 C -5.75 -2 -5.765625 -1.96875 -5.765625 -1.90625 C -5.765625 -1.84375 -5.71875 -1.796875 -5.546875 -1.71875 C -4.96875 -1.390625 -4.609375 -1.109375 -4.296875 -0.734375 C -4.171875 -0.59375 -4.15625 -0.578125 -4.09375 -0.578125 C -4.015625 -0.578125 -3.9375 -0.625 -3.9375 -0.703125 C -3.9375 -0.84375 -4.25 -1.4375 -4.4375 -1.6875 Z M 0.859375 -1.6875 "/>
</g>
<g id="glyph-1-9">
<path d="M -4.125 -4.765625 C -4.515625 -4.765625 -4.625 -4.75 -4.90625 -4.609375 C -5.578125 -4.296875 -5.921875 -3.609375 -5.921875 -2.625 C -5.921875 -1.359375 -5.265625 -0.5625 -4.21875 -0.5625 C -3.5 -0.5625 -3.0625 -0.9375 -2.859375 -1.703125 L -2.46875 -3.15625 C -2.28125 -3.890625 -1.984375 -4.21875 -1.53125 -4.21875 C -1.21875 -4.21875 -0.890625 -4.0625 -0.71875 -3.8125 C -0.546875 -3.578125 -0.46875 -3.203125 -0.46875 -2.734375 C -0.46875 -2.09375 -0.625 -1.671875 -0.953125 -1.390625 C -1.21875 -1.171875 -1.5 -1.078125 -1.859375 -1.09375 L -1.859375 -0.390625 C -1.3125 -0.390625 -0.96875 -0.5 -0.640625 -0.734375 C -0.09375 -1.125 0.1875 -1.796875 0.1875 -2.6875 C 0.1875 -3.390625 0.03125 -3.953125 -0.265625 -4.328125 C -0.578125 -4.71875 -1.09375 -4.96875 -1.59375 -4.96875 C -2.3125 -4.96875 -2.84375 -4.515625 -3.0625 -3.734375 L -3.453125 -2.265625 C -3.640625 -1.5625 -3.875 -1.296875 -4.3125 -1.296875 C -4.90625 -1.296875 -5.296875 -1.828125 -5.296875 -2.609375 C -5.296875 -3.53125 -4.890625 -4.0625 -4.125 -4.0625 Z M -4.125 -4.765625 "/>
</g>
<g id="glyph-1-10">
<path d="M 1.75 -0.4375 L 1.75 -1.109375 L -0.4375 -1.109375 C -0.015625 -1.453125 0.1875 -1.84375 0.1875 -2.390625 C 0.1875 -3.484375 -0.6875 -4.1875 -2.03125 -4.1875 C -3.4375 -4.1875 -4.3125 -3.5 -4.3125 -2.390625 C -4.3125 -1.8125 -4.0625 -1.359375 -3.5625 -1.046875 L -4.1875 -1.046875 L -4.1875 -0.4375 Z M -3.6875 -2.265625 C -3.6875 -3.015625 -3.046875 -3.484375 -2.046875 -3.484375 C -1.09375 -3.484375 -0.4375 -3 -0.4375 -2.265625 C -0.4375 -1.5625 -1.078125 -1.109375 -2.0625 -1.109375 C -3.046875 -1.109375 -3.6875 -1.5625 -3.6875 -2.265625 Z M -3.6875 -2.265625 "/>
</g>
<g id="glyph-1-11">
<path d="M 0 -3.859375 L -4.1875 -3.859375 L -4.1875 -3.1875 L -1.8125 -3.1875 C -0.953125 -3.1875 -0.40625 -2.75 -0.40625 -2.046875 C -0.40625 -1.515625 -0.71875 -1.1875 -1.21875 -1.1875 L -4.1875 -1.1875 L -4.1875 -0.515625 L -0.953125 -0.515625 C -0.265625 -0.515625 0.1875 -1.046875 0.1875 -1.859375 C 0.1875 -2.46875 -0.03125 -2.859375 -0.578125 -3.25 L 0 -3.25 Z M 0 -3.859375 "/>
</g>
<g id="glyph-1-12">
<path d="M -4.1875 -1.203125 L -4.1875 -0.53125 L 0 -0.53125 L 0 -1.203125 Z M -5.828125 -1.203125 L -5.828125 -0.53125 L -4.984375 -0.53125 L -4.984375 -1.203125 Z M -5.828125 -1.203125 "/>
</g>
<g id="glyph-1-13">
<path d="M -3.03125 -3.5 C -3.84375 -3.5 -4.3125 -2.953125 -4.3125 -1.984375 C -4.3125 -1.015625 -3.8125 -0.375 -3.03125 -0.375 C -2.375 -0.375 -2.0625 -0.71875 -1.828125 -1.703125 L -1.671875 -2.328125 C -1.5625 -2.796875 -1.390625 -2.96875 -1.09375 -2.96875 C -0.703125 -2.96875 -0.4375 -2.578125 -0.4375 -2 C -0.4375 -1.640625 -0.53125 -1.34375 -0.71875 -1.171875 C -0.828125 -1.0625 -0.953125 -1.015625 -1.25 -0.96875 L -1.25 -0.265625 C -0.28125 -0.296875 0.1875 -0.84375 0.1875 -1.9375 C 0.1875 -3 -0.34375 -3.671875 -1.140625 -3.671875 C -1.765625 -3.671875 -2.109375 -3.3125 -2.3125 -2.484375 L -2.46875 -1.84375 C -2.59375 -1.296875 -2.765625 -1.078125 -3.0625 -1.078125 C -3.453125 -1.078125 -3.703125 -1.421875 -3.703125 -1.953125 C -3.703125 -2.5 -3.46875 -2.78125 -3.03125 -2.796875 Z M -3.03125 -3.5 "/>
</g>
<g id="glyph-1-14">
<path d="M -4.1875 -2.03125 L -4.1875 -1.34375 L -5.34375 -1.34375 L -5.34375 -0.6875 L -4.1875 -0.6875 L -4.1875 -0.109375 L -3.640625 -0.109375 L -3.640625 -0.6875 L -0.484375 -0.6875 C -0.046875 -0.6875 0.1875 -0.96875 0.1875 -1.484375 C 0.1875 -1.65625 0.171875 -1.8125 0.125 -2.03125 L -0.4375 -2.03125 C -0.40625 -1.9375 -0.40625 -1.84375 -0.40625 -1.71875 C -0.40625 -1.421875 -0.484375 -1.34375 -0.78125 -1.34375 L -3.640625 -1.34375 L -3.640625 -2.03125 Z M -4.1875 -2.03125 "/>
</g>
<g id="glyph-1-15">
<path d="M -5.765625 -1.6875 L -0.46875 -1.6875 C -0.65625 -1.453125 -0.96875 -0.84375 -0.96875 -0.703125 C -0.96875 -0.625 -0.90625 -0.578125 -0.828125 -0.578125 C -0.765625 -0.578125 -0.734375 -0.59375 -0.609375 -0.734375 C -0.296875 -1.109375 0.0625 -1.390625 0.640625 -1.71875 C 0.796875 -1.796875 0.859375 -1.84375 0.859375 -1.90625 C 0.859375 -1.96875 0.828125 -2.015625 0.765625 -2.046875 C -0.046875 -2.515625 -0.265625 -2.703125 -0.671875 -3.171875 C -0.734375 -3.25 -0.765625 -3.265625 -0.828125 -3.265625 C -0.90625 -3.265625 -0.96875 -3.203125 -0.96875 -3.140625 C -0.96875 -3.09375 -0.875 -2.828125 -0.8125 -2.703125 C -0.71875 -2.515625 -0.625 -2.375 -0.46875 -2.15625 L -5.765625 -2.15625 Z M -5.765625 -1.6875 "/>
</g>
<g id="glyph-1-16">
<path d="M -2.65625 -1.46875 L -2.65625 -4.25 L -3.3125 -4.25 L -3.3125 -1.46875 L -5.171875 -1.46875 L -5.171875 -4.625 L -5.828125 -4.625 L -5.828125 -0.71875 L 0 -0.71875 L 0 -1.46875 Z M -2.65625 -1.46875 "/>
</g>
<g id="glyph-1-17">
<path d="M -4.1875 -0.5625 L 0 -0.5625 L 0 -1.234375 L -2.625 -1.234375 C -3.234375 -1.234375 -3.734375 -1.671875 -3.734375 -2.21875 C -3.734375 -2.71875 -3.421875 -2.984375 -2.890625 -2.984375 L 0 -2.984375 L 0 -3.65625 L -2.625 -3.65625 C -3.234375 -3.65625 -3.734375 -4.109375 -3.734375 -4.640625 C -3.734375 -5.140625 -3.421875 -5.421875 -2.890625 -5.421875 L 0 -5.421875 L 0 -6.09375 L -3.140625 -6.09375 C -3.890625 -6.09375 -4.3125 -5.65625 -4.3125 -4.875 C -4.3125 -4.3125 -4.140625 -3.984375 -3.671875 -3.59375 C -4.125 -3.34375 -4.3125 -3.015625 -4.3125 -2.46875 C -4.3125 -1.90625 -4.109375 -1.53125 -3.59375 -1.171875 L -4.1875 -1.171875 Z M -4.1875 -0.5625 "/>
</g>
<g id="glyph-1-18">
<path d="M -4.1875 -0.5625 L 0 -0.5625 L 0 -1.234375 L -2.3125 -1.234375 C -3.171875 -1.234375 -3.734375 -1.6875 -3.734375 -2.375 C -3.734375 -2.890625 -3.40625 -3.234375 -2.90625 -3.234375 L 0 -3.234375 L 0 -3.890625 L -3.171875 -3.890625 C -3.859375 -3.890625 -4.3125 -3.375 -4.3125 -2.5625 C -4.3125 -1.9375 -4.078125 -1.546875 -3.484375 -1.171875 L -4.1875 -1.171875 Z M -4.1875 -0.5625 "/>
</g>
<g id="glyph-1-19">
<path d="M -2.28125 -3.09375 L -5.828125 -5.28125 L -5.828125 -4.40625 L -2.984375 -2.734375 L -5.828125 -1.03125 L -5.828125 -0.109375 L -2.28125 -2.359375 L 0 -2.359375 L 0 -3.09375 Z M -2.28125 -3.09375 "/>
</g>
<g id="glyph-1-20">
<path d="M -5.828125 -1.21875 L -5.828125 -0.546875 L 0 -0.546875 L 0 -1.21875 Z M -5.828125 -1.21875 "/>
</g>
<g id="glyph-2-0">
<path d="M 0.703125 -5.234375 L 0.703125 0 L 1.546875 0 L 1.546875 -3.296875 C 1.546875 -4.046875 2.09375 -4.65625 2.765625 -4.65625 C 3.390625 -4.65625 3.734375 -4.28125 3.734375 -3.609375 L 3.734375 0 L 4.578125 0 L 4.578125 -3.296875 C 4.578125 -4.046875 5.125 -4.65625 5.8125 -4.65625 C 6.421875 -4.65625 6.78125 -4.265625 6.78125 -3.609375 L 6.78125 0 L 7.625 0 L 7.625 -3.9375 C 7.625 -4.875 7.078125 -5.390625 6.09375 -5.390625 C 5.40625 -5.390625 4.984375 -5.1875 4.484375 -4.59375 C 4.1875 -5.15625 3.765625 -5.390625 3.078125 -5.390625 C 2.375 -5.390625 1.90625 -5.125 1.46875 -4.5 L 1.46875 -5.234375 Z M 0.703125 -5.234375 "/>
</g>
<g id="glyph-2-1">
<path d="M 1.5 -5.234375 L 0.671875 -5.234375 L 0.671875 0 L 1.5 0 Z M 1.5 -7.296875 L 0.65625 -7.296875 L 0.65625 -6.234375 L 1.5 -6.234375 Z M 1.5 -7.296875 "/>
</g>
<g id="glyph-2-2">
<path d="M 0.703125 -5.234375 L 0.703125 0 L 1.546875 0 L 1.546875 -2.890625 C 1.546875 -3.953125 2.09375 -4.65625 2.953125 -4.65625 C 3.625 -4.65625 4.046875 -4.265625 4.046875 -3.625 L 4.046875 0 L 4.875 0 L 4.875 -3.953125 C 4.875 -4.828125 4.21875 -5.390625 3.203125 -5.390625 C 2.4375 -5.390625 1.9375 -5.09375 1.46875 -4.359375 L 1.46875 -5.234375 Z M 0.703125 -5.234375 "/>
</g>
<g id="glyph-2-3">
<path d="M 5.78125 1.265625 L -0.21875 1.265625 L -0.21875 1.765625 L 5.78125 1.765625 Z M 5.78125 1.265625 "/>
</g>
<g id="glyph-2-4">
<path d="M 4.703125 -3.484375 C 4.671875 -3.984375 4.5625 -4.3125 4.359375 -4.609375 C 4 -5.09375 3.375 -5.390625 2.640625 -5.390625 C 1.21875 -5.390625 0.3125 -4.265625 0.3125 -2.53125 C 0.3125 -0.84375 1.203125 0.234375 2.625 0.234375 C 3.875 0.234375 4.671875 -0.515625 4.765625 -1.796875 L 3.9375 -1.796875 C 3.796875 -0.953125 3.359375 -0.546875 2.65625 -0.546875 C 1.734375 -0.546875 1.1875 -1.296875 1.1875 -2.53125 C 1.1875 -3.84375 1.71875 -4.625 2.625 -4.625 C 3.328125 -4.625 3.765625 -4.203125 3.875 -3.484375 Z M 4.703125 -3.484375 "/>
</g>
<g id="glyph-2-5">
<path d="M 1.515625 -7.296875 L 0.6875 -7.296875 L 0.6875 0 L 1.515625 0 Z M 1.515625 -7.296875 "/>
</g>
<g id="glyph-2-6">
<path d="M 4.8125 0 L 4.8125 -5.234375 L 3.984375 -5.234375 L 3.984375 -2.265625 C 3.984375 -1.203125 3.4375 -0.5 2.5625 -0.5 C 1.90625 -0.5 1.484375 -0.90625 1.484375 -1.53125 L 1.484375 -5.234375 L 0.65625 -5.234375 L 0.65625 -1.203125 C 0.65625 -0.328125 1.296875 0.234375 2.3125 0.234375 C 3.09375 0.234375 3.578125 -0.046875 4.0625 -0.734375 L 4.0625 0 Z M 4.8125 0 "/>
</g>
<g id="glyph-2-7">
<path d="M 4.375 -3.78125 C 4.375 -4.8125 3.6875 -5.390625 2.484375 -5.390625 C 1.265625 -5.390625 0.46875 -4.765625 0.46875 -3.796875 C 0.46875 -2.96875 0.890625 -2.578125 2.125 -2.28125 L 2.90625 -2.09375 C 3.484375 -1.953125 3.71875 -1.734375 3.71875 -1.375 C 3.71875 -0.875 3.234375 -0.546875 2.5 -0.546875 C 2.046875 -0.546875 1.671875 -0.671875 1.453125 -0.890625 C 1.328125 -1.046875 1.265625 -1.1875 1.21875 -1.5625 L 0.34375 -1.5625 C 0.375 -0.34375 1.0625 0.234375 2.4375 0.234375 C 3.75 0.234375 4.59375 -0.421875 4.59375 -1.4375 C 4.59375 -2.203125 4.15625 -2.640625 3.109375 -2.890625 L 2.3125 -3.078125 C 1.625 -3.234375 1.34375 -3.453125 1.34375 -3.828125 C 1.34375 -4.3125 1.765625 -4.625 2.453125 -4.625 C 3.125 -4.625 3.484375 -4.328125 3.5 -3.78125 Z M 4.375 -3.78125 "/>
</g>
<g id="glyph-2-8">
<path d="M 2.546875 -5.234375 L 1.6875 -5.234375 L 1.6875 -6.6875 L 0.84375 -6.6875 L 0.84375 -5.234375 L 0.140625 -5.234375 L 0.140625 -4.5625 L 0.84375 -4.5625 L 0.84375 -0.59375 C 0.84375 -0.0625 1.203125 0.234375 1.859375 0.234375 C 2.078125 0.234375 2.265625 0.203125 2.546875 0.15625 L 2.546875 -0.546875 C 2.421875 -0.515625 2.3125 -0.5 2.140625 -0.5 C 1.78125 -0.5 1.6875 -0.59375 1.6875 -0.96875 L 1.6875 -4.5625 L 2.546875 -4.5625 Z M 2.546875 -5.234375 "/>
</g>
<g id="glyph-2-9">
<path d="M 5.125 -2.34375 C 5.125 -3.140625 5.0625 -3.625 4.921875 -4.015625 C 4.578125 -4.875 3.78125 -5.390625 2.796875 -5.390625 C 1.34375 -5.390625 0.40625 -4.28125 0.40625 -2.546875 C 0.40625 -0.8125 1.296875 0.234375 2.78125 0.234375 C 3.984375 0.234375 4.8125 -0.453125 5.015625 -1.59375 L 4.1875 -1.59375 C 3.953125 -0.90625 3.484375 -0.546875 2.8125 -0.546875 C 2.28125 -0.546875 1.828125 -0.78125 1.546875 -1.21875 C 1.34375 -1.515625 1.28125 -1.8125 1.265625 -2.34375 Z M 1.296875 -3.015625 C 1.359375 -3.984375 1.953125 -4.625 2.796875 -4.625 C 3.640625 -4.625 4.234375 -3.953125 4.234375 -3.015625 Z M 1.296875 -3.015625 "/>
</g>
<g id="glyph-2-10">
<path d="M 0.6875 -5.234375 L 0.6875 0 L 1.53125 0 L 1.53125 -2.71875 C 1.546875 -3.984375 2.0625 -4.546875 3.203125 -4.515625 L 3.203125 -5.359375 C 3.0625 -5.375 2.984375 -5.390625 2.890625 -5.390625 C 2.34375 -5.390625 1.9375 -5.0625 1.453125 -4.296875 L 1.453125 -5.234375 Z M 0.6875 -5.234375 "/>
</g>
<g id="glyph-2-11">
<path d="M 4.4375 -5.234375 L 0.515625 -5.234375 L 0.515625 -4.515625 L 3.4375 -4.515625 L 0.3125 -0.75 L 0.3125 0 L 4.5625 0 L 4.5625 -0.734375 L 1.3125 -0.734375 L 4.4375 -4.5 Z M 4.4375 -5.234375 "/>
</g>
</g>
<clipPath id="clip-0">
<path clip-rule="nonzero" d="M 41.925781 169 L 339.980469 169 L 339.980469 171 L 41.925781 171 Z M 41.925781 169 "/>
</clipPath>
<clipPath id="clip-1">
<path clip-rule="nonzero" d="M 41.925781 133 L 339.980469 133 L 339.980469 134 L 41.925781 134 Z M 41.925781 133 "/>
</clipPath>
<clipPath id="clip-2">
<path clip-rule="nonzero" d="M 41.925781 96 L 339.980469 96 L 339.980469 98 L 41.925781 98 Z M 41.925781 96 "/>
</clipPath>
<clipPath id="clip-3">
<path clip-rule="nonzero" d="M 41.925781 60 L 339.980469 60 L 339.980469 62 L 41.925781 62 Z M 41.925781 60 "/>
</clipPath>
<clipPath id="clip-4">
<path clip-rule="nonzero" d="M 54 58.15625 L 56 58.15625 L 56 194.140625 L 54 194.140625 Z M 54 58.15625 "/>
</clipPath>
<clipPath id="clip-5">
<path clip-rule="nonzero" d="M 145 58.15625 L 147 58.15625 L 147 194.140625 L 145 194.140625 Z M 145 58.15625 "/>
</clipPath>
<clipPath id="clip-6">
<path clip-rule="nonzero" d="M 325 58.15625 L 327 58.15625 L 327 194.140625 L 325 194.140625 Z M 325 58.15625 "/>
</clipPath>
<clipPath id="clip-7">
<path clip-rule="nonzero" d="M 41.925781 330 L 339.980469 330 L 339.980469 332 L 41.925781 332 Z M 41.925781 330 "/>
</clipPath>
<clipPath id="clip-8">
<path clip-rule="nonzero" d="M 41.925781 295 L 339.980469 295 L 339.980469 297 L 41.925781 297 Z M 41.925781 295 "/>
</clipPath>
<clipPath id="clip-9">
<path clip-rule="nonzero" d="M 41.925781 260 L 339.980469 260 L 339.980469 262 L 41.925781 262 Z M 41.925781 260 "/>
</clipPath>
<clipPath id="clip-10">
<path clip-rule="nonzero" d="M 41.925781 225 L 339.980469 225 L 339.980469 227 L 41.925781 227 Z M 41.925781 225 "/>
</clipPath>
<clipPath id="clip-11">
<path clip-rule="nonzero" d="M 54 199.125 L 56 199.125 L 56 335.109375 L 54 335.109375 Z M 54 199.125 "/>
</clipPath>
<clipPath id="clip-12">
<path clip-rule="nonzero" d="M 145 199.125 L 147 199.125 L 147 335.109375 L 145 335.109375 Z M 145 199.125 "/>
</clipPath>
<clipPath id="clip-13">
<path clip-rule="nonzero" d="M 325 199.125 L 327 199.125 L 327 335.109375 L 325 335.109375 Z M 325 199.125 "/>
</clipPath>
<clipPath id="clip-14">
<path clip-rule="nonzero" d="M 41.925781 469 L 339.980469 469 L 339.980469 471 L 41.925781 471 Z M 41.925781 469 "/>
</clipPath>
<clipPath id="clip-15">
<path clip-rule="nonzero" d="M 41.925781 428 L 339.980469 428 L 339.980469 430 L 41.925781 430 Z M 41.925781 428 "/>
</clipPath>
<clipPath id="clip-16">
<path clip-rule="nonzero" d="M 41.925781 388 L 339.980469 388 L 339.980469 389 L 41.925781 389 Z M 41.925781 388 "/>
</clipPath>
<clipPath id="clip-17">
<path clip-rule="nonzero" d="M 41.925781 347 L 339.980469 347 L 339.980469 349 L 41.925781 349 Z M 41.925781 347 "/>
</clipPath>
<clipPath id="clip-18">
<path clip-rule="nonzero" d="M 54 340.089844 L 56 340.089844 L 56 476.074219 L 54 476.074219 Z M 54 340.089844 "/>
</clipPath>
<clipPath id="clip-19">
<path clip-rule="nonzero" d="M 145 340.089844 L 147 340.089844 L 147 476.074219 L 145 476.074219 Z M 145 340.089844 "/>
</clipPath>
<clipPath id="clip-20">
<path clip-rule="nonzero" d="M 325 340.089844 L 327 340.089844 L 327 476.074219 L 325 476.074219 Z M 325 340.089844 "/>
</clipPath>
<clipPath id="clip-21">
<path clip-rule="nonzero" d="M 41.925781 587 L 339.980469 587 L 339.980469 589 L 41.925781 589 Z M 41.925781 587 "/>
</clipPath>
<clipPath id="clip-22">
<path clip-rule="nonzero" d="M 41.925781 554 L 339.980469 554 L 339.980469 556 L 41.925781 556 Z M 41.925781 554 "/>
</clipPath>
<clipPath id="clip-23">
<path clip-rule="nonzero" d="M 41.925781 520 L 339.980469 520 L 339.980469 522 L 41.925781 522 Z M 41.925781 520 "/>
</clipPath>
<clipPath id="clip-24">
<path clip-rule="nonzero" d="M 41.925781 486 L 339.980469 486 L 339.980469 488 L 41.925781 488 Z M 41.925781 486 "/>
</clipPath>
<clipPath id="clip-25">
<path clip-rule="nonzero" d="M 54 481.058594 L 56 481.058594 L 56 617.042969 L 54 617.042969 Z M 54 481.058594 "/>
</clipPath>
<clipPath id="clip-26">
<path clip-rule="nonzero" d="M 145 481.058594 L 147 481.058594 L 147 617.042969 L 145 617.042969 Z M 145 481.058594 "/>
</clipPath>
<clipPath id="clip-27">
<path clip-rule="nonzero" d="M 325 481.058594 L 327 481.058594 L 327 617.042969 L 325 617.042969 Z M 325 481.058594 "/>
</clipPath>
<clipPath id="clip-28">
<path clip-rule="nonzero" d="M 344.960938 169 L 643.015625 169 L 643.015625 171 L 344.960938 171 Z M 344.960938 169 "/>
</clipPath>
<clipPath id="clip-29">
<path clip-rule="nonzero" d="M 344.960938 133 L 643.015625 133 L 643.015625 134 L 344.960938 134 Z M 344.960938 133 "/>
</clipPath>
<clipPath id="clip-30">
<path clip-rule="nonzero" d="M 344.960938 96 L 643.015625 96 L 643.015625 98 L 344.960938 98 Z M 344.960938 96 "/>
</clipPath>
<clipPath id="clip-31">
<path clip-rule="nonzero" d="M 344.960938 60 L 643.015625 60 L 643.015625 62 L 344.960938 62 Z M 344.960938 60 "/>
</clipPath>
<clipPath id="clip-32">
<path clip-rule="nonzero" d="M 358 58.15625 L 359 58.15625 L 359 194.140625 L 358 194.140625 Z M 358 58.15625 "/>
</clipPath>
<clipPath id="clip-33">
<path clip-rule="nonzero" d="M 448 58.15625 L 450 58.15625 L 450 194.140625 L 448 194.140625 Z M 448 58.15625 "/>
</clipPath>
<clipPath id="clip-34">
<path clip-rule="nonzero" d="M 628 58.15625 L 630 58.15625 L 630 194.140625 L 628 194.140625 Z M 628 58.15625 "/>
</clipPath>
<clipPath id="clip-35">
<path clip-rule="nonzero" d="M 344.960938 330 L 643.015625 330 L 643.015625 332 L 344.960938 332 Z M 344.960938 330 "/>
</clipPath>
<clipPath id="clip-36">
<path clip-rule="nonzero" d="M 344.960938 295 L 643.015625 295 L 643.015625 297 L 344.960938 297 Z M 344.960938 295 "/>
</clipPath>
<clipPath id="clip-37">
<path clip-rule="nonzero" d="M 344.960938 260 L 643.015625 260 L 643.015625 262 L 344.960938 262 Z M 344.960938 260 "/>
</clipPath>
<clipPath id="clip-38">
<path clip-rule="nonzero" d="M 344.960938 225 L 643.015625 225 L 643.015625 227 L 344.960938 227 Z M 344.960938 225 "/>
</clipPath>
<clipPath id="clip-39">
<path clip-rule="nonzero" d="M 358 199.125 L 359 199.125 L 359 335.109375 L 358 335.109375 Z M 358 199.125 "/>
</clipPath>
<clipPath id="clip-40">
<path clip-rule="nonzero" d="M 448 199.125 L 450 199.125 L 450 335.109375 L 448 335.109375 Z M 448 199.125 "/>
</clipPath>
<clipPath id="clip-41">
<path clip-rule="nonzero" d="M 628 199.125 L 630 199.125 L 630 335.109375 L 628 335.109375 Z M 628 199.125 "/>
</clipPath>
<clipPath id="clip-42">
<path clip-rule="nonzero" d="M 344.960938 469 L 643.015625 469 L 643.015625 471 L 344.960938 471 Z M 344.960938 469 "/>
</clipPath>
<clipPath id="clip-43">
<path clip-rule="nonzero" d="M 344.960938 428 L 643.015625 428 L 643.015625 430 L 344.960938 430 Z M 344.960938 428 "/>
</clipPath>
<clipPath id="clip-44">
<path clip-rule="nonzero" d="M 344.960938 388 L 643.015625 388 L 643.015625 389 L 344.960938 389 Z M 344.960938 388 "/>
</clipPath>
<clipPath id="clip-45">
<path clip-rule="nonzero" d="M 344.960938 347 L 643.015625 347 L 643.015625 349 L 344.960938 349 Z M 344.960938 347 "/>
</clipPath>
<clipPath id="clip-46">
<path clip-rule="nonzero" d="M 358 340.089844 L 359 340.089844 L 359 476.074219 L 358 476.074219 Z M 358 340.089844 "/>
</clipPath>
<clipPath id="clip-47">
<path clip-rule="nonzero" d="M 448 340.089844 L 450 340.089844 L 450 476.074219 L 448 476.074219 Z M 448 340.089844 "/>
</clipPath>
<clipPath id="clip-48">
<path clip-rule="nonzero" d="M 628 340.089844 L 630 340.089844 L 630 476.074219 L 628 476.074219 Z M 628 340.089844 "/>
</clipPath>
<clipPath id="clip-49">
<path clip-rule="nonzero" d="M 344.960938 587 L 643.015625 587 L 643.015625 589 L 344.960938 589 Z M 344.960938 587 "/>
</clipPath>
<clipPath id="clip-50">
<path clip-rule="nonzero" d="M 344.960938 554 L 643.015625 554 L 643.015625 556 L 344.960938 556 Z M 344.960938 554 "/>
</clipPath>
<clipPath id="clip-51">
<path clip-rule="nonzero" d="M 344.960938 520 L 643.015625 520 L 643.015625 522 L 344.960938 522 Z M 344.960938 520 "/>
</clipPath>
<clipPath id="clip-52">
<path clip-rule="nonzero" d="M 344.960938 486 L 643.015625 486 L 643.015625 488 L 344.960938 488 Z M 344.960938 486 "/>
</clipPath>
<clipPath id="clip-53">
<path clip-rule="nonzero" d="M 358 481.058594 L 359 481.058594 L 359 617.042969 L 358 617.042969 Z M 358 481.058594 "/>
</clipPath>
<clipPath id="clip-54">
<path clip-rule="nonzero" d="M 448 481.058594 L 450 481.058594 L 450 617.042969 L 448 617.042969 Z M 448 481.058594 "/>
</clipPath>
<clipPath id="clip-55">
<path clip-rule="nonzero" d="M 628 481.058594 L 630 481.058594 L 630 617.042969 L 628 617.042969 Z M 628 481.058594 "/>
</clipPath>
</defs>
<rect x="-64.8" y="-64.8" width="777.6" height="777.6" fill="rgb(100%, 100%, 100%)" fill-opacity="1"/>
<rect x="-64.8" y="-64.8" width="777.6" height="777.6" fill="rgb(100%, 100%, 100%)" fill-opacity="1"/>
<g clip-path="url(#clip-0)">
<path fill="none" stroke-width="0.96998" stroke-linecap="butt" stroke-linejoin="round" stroke="rgb(92.156863%, 92.156863%, 92.156863%)" stroke-opacity="1" stroke-miterlimit="10" d="M 41.925781 169.566406 L 339.980469 169.566406 "/>
</g>
<g clip-path="url(#clip-1)">
<path fill="none" stroke-width="0.96998" stroke-linecap="butt" stroke-linejoin="round" stroke="rgb(92.156863%, 92.156863%, 92.156863%)" stroke-opacity="1" stroke-miterlimit="10" d="M 41.925781 133.507812 L 339.980469 133.507812 "/>
</g>
<g clip-path="url(#clip-2)">
<path fill="none" stroke-width="0.96998" stroke-linecap="butt" stroke-linejoin="round" stroke="rgb(92.156863%, 92.156863%, 92.156863%)" stroke-opacity="1" stroke-miterlimit="10" d="M 41.925781 97.453125 L 339.980469 97.453125 "/>
</g>
<g clip-path="url(#clip-3)">
<path fill="none" stroke-width="0.96998" stroke-linecap="butt" stroke-linejoin="round" stroke="rgb(92.156863%, 92.156863%, 92.156863%)" stroke-opacity="1" stroke-miterlimit="10" d="M 41.925781 61.394531 L 339.980469 61.394531 "/>
</g>
<g clip-path="url(#clip-4)">
<path fill="none" stroke-width="0.96998" stroke-linecap="butt" stroke-linejoin="round" stroke="rgb(92.156863%, 92.156863%, 92.156863%)" stroke-opacity="1" stroke-miterlimit="10" d="M 55.472656 194.144531 L 55.472656 58.15625 "/>
</g>
<g clip-path="url(#clip-5)">
<path fill="none" stroke-width="0.96998" stroke-linecap="butt" stroke-linejoin="round" stroke="rgb(92.156863%, 92.156863%, 92.156863%)" stroke-opacity="1" stroke-miterlimit="10" d="M 145.792969 194.144531 L 145.792969 58.15625 "/>
</g>
<g clip-path="url(#clip-6)">
<path fill="none" stroke-width="0.96998" stroke-linecap="butt" stroke-linejoin="round" stroke="rgb(92.156863%, 92.156863%, 92.156863%)" stroke-opacity="1" stroke-miterlimit="10" d="M 326.433594 194.144531 L 326.433594 58.15625 "/>
</g>
<path fill-rule="nonzero" fill="rgb(80%, 40%, 46.666667%)" fill-opacity="0.14902" d="M 55.472656 102.601562 L 145.792969 129.09375 L 326.433594 120.261719 L 326.433594 161.472656 L 145.792969 167.359375 L 55.472656 140.867188 Z M 55.472656 102.601562 "/>
<path fill-rule="nonzero" fill="rgb(26.666667%, 46.666667%, 66.666667%)" fill-opacity="0.14902" d="M 55.472656 82 L 145.792969 90.828125 L 326.433594 155.582031 L 326.433594 187.960938 L 145.792969 129.09375 L 55.472656 114.375 Z M 55.472656 82 "/>
<path fill="none" stroke-width="1.280374" stroke-linecap="butt" stroke-linejoin="round" stroke="rgb(80%, 40%, 46.666667%)" stroke-opacity="1" stroke-miterlimit="10" d="M 55.472656 120.261719 L 145.792969 146.753906 L 326.433594 140.867188 "/>
<path fill="none" stroke-width="1.280374" stroke-linecap="butt" stroke-linejoin="round" stroke="rgb(26.666667%, 46.666667%, 66.666667%)" stroke-opacity="1" stroke-miterlimit="10" d="M 55.472656 96.714844 L 145.792969 108.488281 L 326.433594 173.246094 "/>
<path fill-rule="nonzero" fill="rgb(80%, 40%, 46.666667%)" fill-opacity="1" stroke-width="0.644238" stroke-linecap="round" stroke-linejoin="round" stroke="rgb(80%, 40%, 46.666667%)" stroke-opacity="1" stroke-miterlimit="10" d="M 57.714844 120.261719 C 57.714844 123.253906 53.230469 123.253906 53.230469 120.261719 C 53.230469 117.273438 57.714844 117.273438 57.714844 120.261719 "/>
<path fill-rule="nonzero" fill="rgb(26.666667%, 46.666667%, 66.666667%)" fill-opacity="1" stroke-width="0.644238" stroke-linecap="round" stroke-linejoin="round" stroke="rgb(26.666667%, 46.666667%, 66.666667%)" stroke-opacity="1" stroke-miterlimit="10" d="M 57.714844 96.714844 C 57.714844 99.707031 53.230469 99.707031 53.230469 96.714844 C 53.230469 93.726562 57.714844 93.726562 57.714844 96.714844 "/>
<path fill-rule="nonzero" fill="rgb(80%, 40%, 46.666667%)" fill-opacity="1" stroke-width="0.644238" stroke-linecap="round" stroke-linejoin="round" stroke="rgb(80%, 40%, 46.666667%)" stroke-opacity="1" stroke-miterlimit="10" d="M 148.035156 146.753906 C 148.035156 149.742188 143.550781 149.742188 143.550781 146.753906 C 143.550781 143.761719 148.035156 143.761719 148.035156 146.753906 "/>
<path fill-rule="nonzero" fill="rgb(26.666667%, 46.666667%, 66.666667%)" fill-opacity="1" stroke-width="0.644238" stroke-linecap="round" stroke-linejoin="round" stroke="rgb(26.666667%, 46.666667%, 66.666667%)" stroke-opacity="1" stroke-miterlimit="10" d="M 148.035156 108.488281 C 148.035156 111.480469 143.550781 111.480469 143.550781 108.488281 C 143.550781 105.5 148.035156 105.5 148.035156 108.488281 "/>
<path fill-rule="nonzero" fill="rgb(80%, 40%, 46.666667%)" fill-opacity="1" stroke-width="0.644238" stroke-linecap="round" stroke-linejoin="round" stroke="rgb(80%, 40%, 46.666667%)" stroke-opacity="1" stroke-miterlimit="10" d="M 328.675781 140.867188 C 328.675781 143.855469 324.191406 143.855469 324.191406 140.867188 C 324.191406 137.875 328.675781 137.875 328.675781 140.867188 "/>
<path fill-rule="nonzero" fill="rgb(26.666667%, 46.666667%, 66.666667%)" fill-opacity="1" stroke-width="0.644238" stroke-linecap="round" stroke-linejoin="round" stroke="rgb(26.666667%, 46.666667%, 66.666667%)" stroke-opacity="1" stroke-miterlimit="10" d="M 328.675781 173.246094 C 328.675781 176.234375 324.191406 176.234375 324.191406 173.246094 C 324.191406 170.253906 328.675781 170.253906 328.675781 173.246094 "/>
<g clip-path="url(#clip-7)">
<path fill="none" stroke-width="0.96998" stroke-linecap="butt" stroke-linejoin="round" stroke="rgb(92.156863%, 92.156863%, 92.156863%)" stroke-opacity="1" stroke-miterlimit="10" d="M 41.925781 330.925781 L 339.980469 330.925781 "/>
</g>
<g clip-path="url(#clip-8)">
<path fill="none" stroke-width="0.96998" stroke-linecap="butt" stroke-linejoin="round" stroke="rgb(92.156863%, 92.156863%, 92.156863%)" stroke-opacity="1" stroke-miterlimit="10" d="M 41.925781 295.953125 L 339.980469 295.953125 "/>
</g>
<g clip-path="url(#clip-9)">
<path fill="none" stroke-width="0.96998" stroke-linecap="butt" stroke-linejoin="round" stroke="rgb(92.156863%, 92.156863%, 92.156863%)" stroke-opacity="1" stroke-miterlimit="10" d="M 41.925781 260.980469 L 339.980469 260.980469 "/>
</g>
<g clip-path="url(#clip-10)">
<path fill="none" stroke-width="0.96998" stroke-linecap="butt" stroke-linejoin="round" stroke="rgb(92.156863%, 92.156863%, 92.156863%)" stroke-opacity="1" stroke-miterlimit="10" d="M 41.925781 226.003906 L 339.980469 226.003906 "/>
</g>
<g clip-path="url(#clip-11)">
<path fill="none" stroke-width="0.96998" stroke-linecap="butt" stroke-linejoin="round" stroke="rgb(92.156863%, 92.156863%, 92.156863%)" stroke-opacity="1" stroke-miterlimit="10" d="M 55.472656 335.109375 L 55.472656 199.125 "/>
</g>
<g clip-path="url(#clip-12)">
<path fill="none" stroke-width="0.96998" stroke-linecap="butt" stroke-linejoin="round" stroke="rgb(92.156863%, 92.156863%, 92.156863%)" stroke-opacity="1" stroke-miterlimit="10" d="M 145.792969 335.109375 L 145.792969 199.125 "/>
</g>
<g clip-path="url(#clip-13)">
<path fill="none" stroke-width="0.96998" stroke-linecap="butt" stroke-linejoin="round" stroke="rgb(92.156863%, 92.156863%, 92.156863%)" stroke-opacity="1" stroke-miterlimit="10" d="M 326.433594 335.109375 L 326.433594 199.125 "/>
</g>
<path fill-rule="nonzero" fill="rgb(80%, 40%, 46.666667%)" fill-opacity="0.14902" d="M 55.472656 234.488281 L 145.792969 227.742188 L 326.433594 233.476562 L 326.433594 269.128906 L 145.792969 264.457031 L 55.472656 273.859375 Z M 55.472656 234.488281 "/>
<path fill-rule="nonzero" fill="rgb(26.666667%, 46.666667%, 66.666667%)" fill-opacity="0.14902" d="M 55.472656 244.992188 L 145.792969 239.335938 L 326.433594 205.304688 L 326.433594 255.269531 L 145.792969 279.914062 L 55.472656 287.007812 Z M 55.472656 244.992188 "/>
<path fill="none" stroke-width="1.280374" stroke-linecap="butt" stroke-linejoin="round" stroke="rgb(80%, 40%, 46.666667%)" stroke-opacity="1" stroke-miterlimit="10" d="M 55.472656 253.113281 L 145.792969 245.132812 L 326.433594 252.148438 "/>
<path fill="none" stroke-width="1.280374" stroke-linecap="butt" stroke-linejoin="round" stroke="rgb(26.666667%, 46.666667%, 66.666667%)" stroke-opacity="1" stroke-miterlimit="10" d="M 55.472656 266.972656 L 145.792969 258.660156 L 326.433594 226.71875 "/>
<path fill-rule="nonzero" fill="rgb(80%, 40%, 46.666667%)" fill-opacity="1" stroke-width="0.644238" stroke-linecap="round" stroke-linejoin="round" stroke="rgb(80%, 40%, 46.666667%)" stroke-opacity="1" stroke-miterlimit="10" d="M 57.714844 253.113281 C 57.714844 256.105469 53.230469 256.105469 53.230469 253.113281 C 53.230469 250.125 57.714844 250.125 57.714844 253.113281 "/>
<path fill-rule="nonzero" fill="rgb(26.666667%, 46.666667%, 66.666667%)" fill-opacity="1" stroke-width="0.644238" stroke-linecap="round" stroke-linejoin="round" stroke="rgb(26.666667%, 46.666667%, 66.666667%)" stroke-opacity="1" stroke-miterlimit="10" d="M 57.714844 266.972656 C 57.714844 269.964844 53.230469 269.964844 53.230469 266.972656 C 53.230469 263.984375 57.714844 263.984375 57.714844 266.972656 "/>
<path fill-rule="nonzero" fill="rgb(80%, 40%, 46.666667%)" fill-opacity="1" stroke-width="0.644238" stroke-linecap="round" stroke-linejoin="round" stroke="rgb(80%, 40%, 46.666667%)" stroke-opacity="1" stroke-miterlimit="10" d="M 148.035156 245.132812 C 148.035156 248.125 143.550781 248.125 143.550781 245.132812 C 143.550781 242.144531 148.035156 242.144531 148.035156 245.132812 "/>
<path fill-rule="nonzero" fill="rgb(26.666667%, 46.666667%, 66.666667%)" fill-opacity="1" stroke-width="0.644238" stroke-linecap="round" stroke-linejoin="round" stroke="rgb(26.666667%, 46.666667%, 66.666667%)" stroke-opacity="1" stroke-miterlimit="10" d="M 148.035156 258.660156 C 148.035156 261.648438 143.550781 261.648438 143.550781 258.660156 C 143.550781 255.667969 148.035156 255.667969 148.035156 258.660156 "/>
<path fill-rule="nonzero" fill="rgb(80%, 40%, 46.666667%)" fill-opacity="1" stroke-width="0.644238" stroke-linecap="round" stroke-linejoin="round" stroke="rgb(80%, 40%, 46.666667%)" stroke-opacity="1" stroke-miterlimit="10" d="M 328.675781 252.148438 C 328.675781 255.140625 324.191406 255.140625 324.191406 252.148438 C 324.191406 249.160156 328.675781 249.160156 328.675781 252.148438 "/>
<path fill-rule="nonzero" fill="rgb(26.666667%, 46.666667%, 66.666667%)" fill-opacity="1" stroke-width="0.644238" stroke-linecap="round" stroke-linejoin="round" stroke="rgb(26.666667%, 46.666667%, 66.666667%)" stroke-opacity="1" stroke-miterlimit="10" d="M 328.675781 226.71875 C 328.675781 229.707031 324.191406 229.707031 324.191406 226.71875 C 324.191406 223.726562 328.675781 223.726562 328.675781 226.71875 "/>
<g clip-path="url(#clip-14)">
<path fill="none" stroke-width="0.96998" stroke-linecap="butt" stroke-linejoin="round" stroke="rgb(92.156863%, 92.156863%, 92.156863%)" stroke-opacity="1" stroke-miterlimit="10" d="M 41.925781 469.894531 L 339.980469 469.894531 "/>
</g>
<g clip-path="url(#clip-15)">
<path fill="none" stroke-width="0.96998" stroke-linecap="butt" stroke-linejoin="round" stroke="rgb(92.156863%, 92.156863%, 92.156863%)" stroke-opacity="1" stroke-miterlimit="10" d="M 41.925781 429.191406 L 339.980469 429.191406 "/>
</g>
<g clip-path="url(#clip-16)">
<path fill="none" stroke-width="0.96998" stroke-linecap="butt" stroke-linejoin="round" stroke="rgb(92.156863%, 92.156863%, 92.156863%)" stroke-opacity="1" stroke-miterlimit="10" d="M 41.925781 388.484375 L 339.980469 388.484375 "/>
</g>
<g clip-path="url(#clip-17)">
<path fill="none" stroke-width="0.96998" stroke-linecap="butt" stroke-linejoin="round" stroke="rgb(92.156863%, 92.156863%, 92.156863%)" stroke-opacity="1" stroke-miterlimit="10" d="M 41.925781 347.78125 L 339.980469 347.78125 "/>
</g>
<g clip-path="url(#clip-18)">
<path fill="none" stroke-width="0.96998" stroke-linecap="butt" stroke-linejoin="round" stroke="rgb(92.156863%, 92.156863%, 92.156863%)" stroke-opacity="1" stroke-miterlimit="10" d="M 55.472656 476.078125 L 55.472656 340.089844 "/>
</g>
<g clip-path="url(#clip-19)">
<path fill="none" stroke-width="0.96998" stroke-linecap="butt" stroke-linejoin="round" stroke="rgb(92.156863%, 92.156863%, 92.156863%)" stroke-opacity="1" stroke-miterlimit="10" d="M 145.792969 476.078125 L 145.792969 340.089844 "/>
</g>
<g clip-path="url(#clip-20)">
<path fill="none" stroke-width="0.96998" stroke-linecap="butt" stroke-linejoin="round" stroke="rgb(92.156863%, 92.156863%, 92.156863%)" stroke-opacity="1" stroke-miterlimit="10" d="M 326.433594 476.078125 L 326.433594 340.089844 "/>
</g>
<path fill-rule="nonzero" fill="rgb(80%, 40%, 46.666667%)" fill-opacity="0.14902" d="M 55.472656 455.53125 L 145.792969 412.910156 L 326.433594 394.738281 L 326.433594 438.585938 L 145.792969 453.613281 L 55.472656 469.894531 Z M 55.472656 455.53125 "/>
<path fill-rule="nonzero" fill="rgb(26.666667%, 46.666667%, 66.666667%)" fill-opacity="0.14902" d="M 55.472656 455.09375 L 145.792969 435.007812 L 326.433594 469.894531 L 145.792969 455.09375 L 55.472656 466.640625 Z M 55.472656 455.09375 "/>
<path fill="none" stroke-width="1.280374" stroke-linecap="butt" stroke-linejoin="round" stroke="rgb(80%, 40%, 46.666667%)" stroke-opacity="1" stroke-miterlimit="10" d="M 55.472656 461.472656 L 145.792969 433.261719 L 326.433594 414.390625 "/>
<path fill="none" stroke-width="1.280374" stroke-linecap="butt" stroke-linejoin="round" stroke="rgb(26.666667%, 46.666667%, 66.666667%)" stroke-opacity="1" stroke-miterlimit="10" d="M 55.472656 461.09375 L 145.792969 445.226562 L 326.433594 469.894531 "/>
<path fill-rule="nonzero" fill="rgb(80%, 40%, 46.666667%)" fill-opacity="1" stroke-width="0.644238" stroke-linecap="round" stroke-linejoin="round" stroke="rgb(80%, 40%, 46.666667%)" stroke-opacity="1" stroke-miterlimit="10" d="M 57.714844 461.472656 C 57.714844 464.464844 53.230469 464.464844 53.230469 461.472656 C 53.230469 458.484375 57.714844 458.484375 57.714844 461.472656 "/>
<path fill-rule="nonzero" fill="rgb(26.666667%, 46.666667%, 66.666667%)" fill-opacity="1" stroke-width="0.644238" stroke-linecap="round" stroke-linejoin="round" stroke="rgb(26.666667%, 46.666667%, 66.666667%)" stroke-opacity="1" stroke-miterlimit="10" d="M 57.714844 461.09375 C 57.714844 464.085938 53.230469 464.085938 53.230469 461.09375 C 53.230469 458.105469 57.714844 458.105469 57.714844 461.09375 "/>
<path fill-rule="nonzero" fill="rgb(80%, 40%, 46.666667%)" fill-opacity="1" stroke-width="0.644238" stroke-linecap="round" stroke-linejoin="round" stroke="rgb(80%, 40%, 46.666667%)" stroke-opacity="1" stroke-miterlimit="10" d="M 148.035156 433.261719 C 148.035156 436.25 143.550781 436.25 143.550781 433.261719 C 143.550781 430.269531 148.035156 430.269531 148.035156 433.261719 "/>
<path fill-rule="nonzero" fill="rgb(26.666667%, 46.666667%, 66.666667%)" fill-opacity="1" stroke-width="0.644238" stroke-linecap="round" stroke-linejoin="round" stroke="rgb(26.666667%, 46.666667%, 66.666667%)" stroke-opacity="1" stroke-miterlimit="10" d="M 148.035156 445.226562 C 148.035156 448.214844 143.550781 448.214844 143.550781 445.226562 C 143.550781 442.234375 148.035156 442.234375 148.035156 445.226562 "/>
<path fill-rule="nonzero" fill="rgb(80%, 40%, 46.666667%)" fill-opacity="1" stroke-width="0.644238" stroke-linecap="round" stroke-linejoin="round" stroke="rgb(80%, 40%, 46.666667%)" stroke-opacity="1" stroke-miterlimit="10" d="M 328.675781 414.390625 C 328.675781 417.378906 324.191406 417.378906 324.191406 414.390625 C 324.191406 411.398438 328.675781 411.398438 328.675781 414.390625 "/>
<path fill-rule="nonzero" fill="rgb(26.666667%, 46.666667%, 66.666667%)" fill-opacity="1" stroke-width="0.644238" stroke-linecap="round" stroke-linejoin="round" stroke="rgb(26.666667%, 46.666667%, 66.666667%)" stroke-opacity="1" stroke-miterlimit="10" d="M 328.675781 469.894531 C 328.675781 472.886719 324.191406 472.886719 324.191406 469.894531 C 324.191406 466.90625 328.675781 466.90625 328.675781 469.894531 "/>
<g clip-path="url(#clip-21)">
<path fill="none" stroke-width="0.96998" stroke-linecap="butt" stroke-linejoin="round" stroke="rgb(92.156863%, 92.156863%, 92.156863%)" stroke-opacity="1" stroke-miterlimit="10" d="M 41.925781 588.382812 L 339.980469 588.382812 "/>
</g>
<g clip-path="url(#clip-22)">
<path fill="none" stroke-width="0.96998" stroke-linecap="butt" stroke-linejoin="round" stroke="rgb(92.156863%, 92.156863%, 92.156863%)" stroke-opacity="1" stroke-miterlimit="10" d="M 41.925781 554.667969 L 339.980469 554.667969 "/>
</g>
<g clip-path="url(#clip-23)">
<path fill="none" stroke-width="0.96998" stroke-linecap="butt" stroke-linejoin="round" stroke="rgb(92.156863%, 92.156863%, 92.156863%)" stroke-opacity="1" stroke-miterlimit="10" d="M 41.925781 520.953125 L 339.980469 520.953125 "/>
</g>
<g clip-path="url(#clip-24)">
<path fill="none" stroke-width="0.96998" stroke-linecap="butt" stroke-linejoin="round" stroke="rgb(92.156863%, 92.156863%, 92.156863%)" stroke-opacity="1" stroke-miterlimit="10" d="M 41.925781 487.238281 L 339.980469 487.238281 "/>
</g>
<g clip-path="url(#clip-25)">
<path fill="none" stroke-width="0.96998" stroke-linecap="butt" stroke-linejoin="round" stroke="rgb(92.156863%, 92.156863%, 92.156863%)" stroke-opacity="1" stroke-miterlimit="10" d="M 55.472656 617.042969 L 55.472656 481.058594 "/>
</g>
<g clip-path="url(#clip-26)">
<path fill="none" stroke-width="0.96998" stroke-linecap="butt" stroke-linejoin="round" stroke="rgb(92.156863%, 92.156863%, 92.156863%)" stroke-opacity="1" stroke-miterlimit="10" d="M 145.792969 617.042969 L 145.792969 481.058594 "/>
</g>
<g clip-path="url(#clip-27)">
<path fill="none" stroke-width="0.96998" stroke-linecap="butt" stroke-linejoin="round" stroke="rgb(92.156863%, 92.156863%, 92.156863%)" stroke-opacity="1" stroke-miterlimit="10" d="M 326.433594 617.042969 L 326.433594 481.058594 "/>
</g>
<path fill-rule="nonzero" fill="rgb(80%, 40%, 46.666667%)" fill-opacity="0.14902" d="M 55.472656 504.085938 L 145.792969 535.394531 L 326.433594 524.320312 L 326.433594 554.667969 L 145.792969 564.300781 L 55.472656 533.921875 Z M 55.472656 504.085938 "/>
<path fill-rule="nonzero" fill="rgb(26.666667%, 46.666667%, 66.666667%)" fill-opacity="0.14902" d="M 55.472656 487.238281 L 145.792969 495.171875 L 326.433594 566.929688 L 326.433594 598.03125 L 145.792969 512.222656 L 55.472656 493.371094 Z M 55.472656 487.238281 "/>
<path fill="none" stroke-width="1.280374" stroke-linecap="butt" stroke-linejoin="round" stroke="rgb(80%, 40%, 46.666667%)" stroke-opacity="1" stroke-miterlimit="10" d="M 55.472656 519.347656 L 145.792969 548.308594 L 326.433594 537.527344 "/>
<path fill="none" stroke-width="1.280374" stroke-linecap="butt" stroke-linejoin="round" stroke="rgb(26.666667%, 46.666667%, 66.666667%)" stroke-opacity="1" stroke-miterlimit="10" d="M 55.472656 490.449219 L 145.792969 503.753906 L 326.433594 583.0625 "/>
<path fill-rule="nonzero" fill="rgb(80%, 40%, 46.666667%)" fill-opacity="1" stroke-width="0.644238" stroke-linecap="round" stroke-linejoin="round" stroke="rgb(80%, 40%, 46.666667%)" stroke-opacity="1" stroke-miterlimit="10" d="M 57.714844 519.347656 C 57.714844 522.339844 53.230469 522.339844 53.230469 519.347656 C 53.230469 516.359375 57.714844 516.359375 57.714844 519.347656 "/>
<path fill-rule="nonzero" fill="rgb(26.666667%, 46.666667%, 66.666667%)" fill-opacity="1" stroke-width="0.644238" stroke-linecap="round" stroke-linejoin="round" stroke="rgb(26.666667%, 46.666667%, 66.666667%)" stroke-opacity="1" stroke-miterlimit="10" d="M 57.714844 490.449219 C 57.714844 493.441406 53.230469 493.441406 53.230469 490.449219 C 53.230469 487.460938 57.714844 487.460938 57.714844 490.449219 "/>
<path fill-rule="nonzero" fill="rgb(80%, 40%, 46.666667%)" fill-opacity="1" stroke-width="0.644238" stroke-linecap="round" stroke-linejoin="round" stroke="rgb(80%, 40%, 46.666667%)" stroke-opacity="1" stroke-miterlimit="10" d="M 148.035156 548.308594 C 148.035156 551.296875 143.550781 551.296875 143.550781 548.308594 C 143.550781 545.316406 148.035156 545.316406 148.035156 548.308594 "/>
<path fill-rule="nonzero" fill="rgb(26.666667%, 46.666667%, 66.666667%)" fill-opacity="1" stroke-width="0.644238" stroke-linecap="round" stroke-linejoin="round" stroke="rgb(26.666667%, 46.666667%, 66.666667%)" stroke-opacity="1" stroke-miterlimit="10" d="M 148.035156 503.753906 C 148.035156 506.742188 143.550781 506.742188 143.550781 503.753906 C 143.550781 500.761719 148.035156 500.761719 148.035156 503.753906 "/>
<path fill-rule="nonzero" fill="rgb(80%, 40%, 46.666667%)" fill-opacity="1" stroke-width="0.644238" stroke-linecap="round" stroke-linejoin="round" stroke="rgb(80%, 40%, 46.666667%)" stroke-opacity="1" stroke-miterlimit="10" d="M 328.675781 537.527344 C 328.675781 540.515625 324.191406 540.515625 324.191406 537.527344 C 324.191406 534.535156 328.675781 534.535156 328.675781 537.527344 "/>
<path fill-rule="nonzero" fill="rgb(26.666667%, 46.666667%, 66.666667%)" fill-opacity="1" stroke-width="0.644238" stroke-linecap="round" stroke-linejoin="round" stroke="rgb(26.666667%, 46.666667%, 66.666667%)" stroke-opacity="1" stroke-miterlimit="10" d="M 328.675781 583.0625 C 328.675781 586.050781 324.191406 586.050781 324.191406 583.0625 C 324.191406 580.070312 328.675781 580.070312 328.675781 583.0625 "/>
<g clip-path="url(#clip-28)">
<path fill="none" stroke-width="0.96998" stroke-linecap="butt" stroke-linejoin="round" stroke="rgb(92.156863%, 92.156863%, 92.156863%)" stroke-opacity="1" stroke-miterlimit="10" d="M 344.960938 169.566406 L 643.019531 169.566406 "/>
</g>
<g clip-path="url(#clip-29)">
<path fill="none" stroke-width="0.96998" stroke-linecap="butt" stroke-linejoin="round" stroke="rgb(92.156863%, 92.156863%, 92.156863%)" stroke-opacity="1" stroke-miterlimit="10" d="M 344.960938 133.507812 L 643.019531 133.507812 "/>
</g>
<g clip-path="url(#clip-30)">
<path fill="none" stroke-width="0.96998" stroke-linecap="butt" stroke-linejoin="round" stroke="rgb(92.156863%, 92.156863%, 92.156863%)" stroke-opacity="1" stroke-miterlimit="10" d="M 344.960938 97.453125 L 643.019531 97.453125 "/>
</g>
<g clip-path="url(#clip-31)">
<path fill="none" stroke-width="0.96998" stroke-linecap="butt" stroke-linejoin="round" stroke="rgb(92.156863%, 92.156863%, 92.156863%)" stroke-opacity="1" stroke-miterlimit="10" d="M 344.960938 61.394531 L 643.019531 61.394531 "/>
</g>
<g clip-path="url(#clip-32)">
<path fill="none" stroke-width="0.96998" stroke-linecap="butt" stroke-linejoin="round" stroke="rgb(92.156863%, 92.156863%, 92.156863%)" stroke-opacity="1" stroke-miterlimit="10" d="M 358.511719 194.144531 L 358.511719 58.15625 "/>
</g>
<g clip-path="url(#clip-33)">
<path fill="none" stroke-width="0.96998" stroke-linecap="butt" stroke-linejoin="round" stroke="rgb(92.156863%, 92.156863%, 92.156863%)" stroke-opacity="1" stroke-miterlimit="10" d="M 448.832031 194.144531 L 448.832031 58.15625 "/>
</g>
<g clip-path="url(#clip-34)">
<path fill="none" stroke-width="0.96998" stroke-linecap="butt" stroke-linejoin="round" stroke="rgb(92.156863%, 92.156863%, 92.156863%)" stroke-opacity="1" stroke-miterlimit="10" d="M 629.46875 194.144531 L 629.46875 58.15625 "/>
</g>
<path fill-rule="nonzero" fill="rgb(80%, 40%, 46.666667%)" fill-opacity="0.14902" d="M 358.511719 64.339844 L 448.832031 76.113281 L 629.46875 73.167969 L 629.46875 102.601562 L 448.832031 111.433594 L 358.511719 84.941406 Z M 358.511719 64.339844 "/>
<path fill-rule="nonzero" fill="rgb(26.666667%, 46.666667%, 66.666667%)" fill-opacity="0.14902" d="M 358.511719 64.339844 L 448.832031 64.339844 L 629.46875 134.980469 L 629.46875 173.246094 L 448.832031 90.828125 L 358.511719 84.941406 Z M 358.511719 64.339844 "/>
<path fill="none" stroke-width="1.280374" stroke-linecap="butt" stroke-linejoin="round" stroke="rgb(80%, 40%, 46.666667%)" stroke-opacity="1" stroke-miterlimit="10" d="M 358.511719 73.167969 L 448.832031 93.773438 L 629.46875 87.886719 "/>
<path fill="none" stroke-width="1.280374" stroke-linecap="butt" stroke-linejoin="round" stroke="rgb(26.666667%, 46.666667%, 66.666667%)" stroke-opacity="1" stroke-miterlimit="10" d="M 358.511719 73.167969 L 448.832031 76.113281 L 629.46875 155.582031 "/>
<path fill-rule="nonzero" fill="rgb(80%, 40%, 46.666667%)" fill-opacity="1" stroke-width="0.644238" stroke-linecap="round" stroke-linejoin="round" stroke="rgb(80%, 40%, 46.666667%)" stroke-opacity="1" stroke-miterlimit="10" d="M 360.753906 73.167969 C 360.753906 76.160156 356.269531 76.160156 356.269531 73.167969 C 356.269531 70.179688 360.753906 70.179688 360.753906 73.167969 "/>
<path fill-rule="nonzero" fill="rgb(26.666667%, 46.666667%, 66.666667%)" fill-opacity="1" stroke-width="0.644238" stroke-linecap="round" stroke-linejoin="round" stroke="rgb(26.666667%, 46.666667%, 66.666667%)" stroke-opacity="1" stroke-miterlimit="10" d="M 360.753906 73.167969 C 360.753906 76.160156 356.269531 76.160156 356.269531 73.167969 C 356.269531 70.179688 360.753906 70.179688 360.753906 73.167969 "/>
<path fill-rule="nonzero" fill="rgb(80%, 40%, 46.666667%)" fill-opacity="1" stroke-width="0.644238" stroke-linecap="round" stroke-linejoin="round" stroke="rgb(80%, 40%, 46.666667%)" stroke-opacity="1" stroke-miterlimit="10" d="M 451.074219 93.773438 C 451.074219 96.761719 446.589844 96.761719 446.589844 93.773438 C 446.589844 90.78125 451.074219 90.78125 451.074219 93.773438 "/>
<path fill-rule="nonzero" fill="rgb(26.666667%, 46.666667%, 66.666667%)" fill-opacity="1" stroke-width="0.644238" stroke-linecap="round" stroke-linejoin="round" stroke="rgb(26.666667%, 46.666667%, 66.666667%)" stroke-opacity="1" stroke-miterlimit="10" d="M 451.074219 76.113281 C 451.074219 79.101562 446.589844 79.101562 446.589844 76.113281 C 446.589844 73.121094 451.074219 73.121094 451.074219 76.113281 "/>
<path fill-rule="nonzero" fill="rgb(80%, 40%, 46.666667%)" fill-opacity="1" stroke-width="0.644238" stroke-linecap="round" stroke-linejoin="round" stroke="rgb(80%, 40%, 46.666667%)" stroke-opacity="1" stroke-miterlimit="10" d="M 631.714844 87.886719 C 631.714844 90.875 627.226562 90.875 627.226562 87.886719 C 627.226562 84.894531 631.714844 84.894531 631.714844 87.886719 "/>
<path fill-rule="nonzero" fill="rgb(26.666667%, 46.666667%, 66.666667%)" fill-opacity="1" stroke-width="0.644238" stroke-linecap="round" stroke-linejoin="round" stroke="rgb(26.666667%, 46.666667%, 66.666667%)" stroke-opacity="1" stroke-miterlimit="10" d="M 631.714844 155.582031 C 631.714844 158.574219 627.226562 158.574219 627.226562 155.582031 C 627.226562 152.59375 631.714844 152.59375 631.714844 155.582031 "/>
<g clip-path="url(#clip-35)">
<path fill="none" stroke-width="0.96998" stroke-linecap="butt" stroke-linejoin="round" stroke="rgb(92.156863%, 92.156863%, 92.156863%)" stroke-opacity="1" stroke-miterlimit="10" d="M 344.960938 330.925781 L 643.019531 330.925781 "/>
</g>
<g clip-path="url(#clip-36)">
<path fill="none" stroke-width="0.96998" stroke-linecap="butt" stroke-linejoin="round" stroke="rgb(92.156863%, 92.156863%, 92.156863%)" stroke-opacity="1" stroke-miterlimit="10" d="M 344.960938 295.953125 L 643.019531 295.953125 "/>
</g>
<g clip-path="url(#clip-37)">
<path fill="none" stroke-width="0.96998" stroke-linecap="butt" stroke-linejoin="round" stroke="rgb(92.156863%, 92.156863%, 92.156863%)" stroke-opacity="1" stroke-miterlimit="10" d="M 344.960938 260.980469 L 643.019531 260.980469 "/>
</g>
<g clip-path="url(#clip-38)">
<path fill="none" stroke-width="0.96998" stroke-linecap="butt" stroke-linejoin="round" stroke="rgb(92.156863%, 92.156863%, 92.156863%)" stroke-opacity="1" stroke-miterlimit="10" d="M 344.960938 226.003906 L 643.019531 226.003906 "/>
</g>
<g clip-path="url(#clip-39)">
<path fill="none" stroke-width="0.96998" stroke-linecap="butt" stroke-linejoin="round" stroke="rgb(92.156863%, 92.156863%, 92.156863%)" stroke-opacity="1" stroke-miterlimit="10" d="M 358.511719 335.109375 L 358.511719 199.125 "/>
</g>
<g clip-path="url(#clip-40)">
<path fill="none" stroke-width="0.96998" stroke-linecap="butt" stroke-linejoin="round" stroke="rgb(92.156863%, 92.156863%, 92.156863%)" stroke-opacity="1" stroke-miterlimit="10" d="M 448.832031 335.109375 L 448.832031 199.125 "/>
</g>
<g clip-path="url(#clip-41)">
<path fill="none" stroke-width="0.96998" stroke-linecap="butt" stroke-linejoin="round" stroke="rgb(92.156863%, 92.156863%, 92.156863%)" stroke-opacity="1" stroke-miterlimit="10" d="M 629.46875 335.109375 L 629.46875 199.125 "/>
</g>
<path fill-rule="nonzero" fill="rgb(80%, 40%, 46.666667%)" fill-opacity="0.14902" d="M 358.511719 275.878906 L 448.832031 250.882812 L 629.46875 262.335938 L 629.46875 303.082031 L 448.832031 291.507812 L 358.511719 323.476562 Z M 358.511719 275.878906 "/>
<path fill-rule="nonzero" fill="rgb(26.666667%, 46.666667%, 66.666667%)" fill-opacity="0.14902" d="M 358.511719 278.964844 L 448.832031 266.390625 L 629.46875 212.441406 L 629.46875 276.679688 L 448.832031 310.832031 L 358.511719 328.929688 Z M 358.511719 278.964844 "/>
<path fill="none" stroke-width="1.280374" stroke-linecap="butt" stroke-linejoin="round" stroke="rgb(80%, 40%, 46.666667%)" stroke-opacity="1" stroke-miterlimit="10" d="M 358.511719 300.714844 L 448.832031 270.253906 L 629.46875 282.710938 "/>
<path fill="none" stroke-width="1.280374" stroke-linecap="butt" stroke-linejoin="round" stroke="rgb(26.666667%, 46.666667%, 66.666667%)" stroke-opacity="1" stroke-miterlimit="10" d="M 358.511719 302.949219 L 448.832031 287.644531 L 629.46875 240.992188 "/>
<path fill-rule="nonzero" fill="rgb(80%, 40%, 46.666667%)" fill-opacity="1" stroke-width="0.644238" stroke-linecap="round" stroke-linejoin="round" stroke="rgb(80%, 40%, 46.666667%)" stroke-opacity="1" stroke-miterlimit="10" d="M 360.753906 300.714844 C 360.753906 303.703125 356.269531 303.703125 356.269531 300.714844 C 356.269531 297.722656 360.753906 297.722656 360.753906 300.714844 "/>
<path fill-rule="nonzero" fill="rgb(26.666667%, 46.666667%, 66.666667%)" fill-opacity="1" stroke-width="0.644238" stroke-linecap="round" stroke-linejoin="round" stroke="rgb(26.666667%, 46.666667%, 66.666667%)" stroke-opacity="1" stroke-miterlimit="10" d="M 360.753906 302.949219 C 360.753906 305.9375 356.269531 305.9375 356.269531 302.949219 C 356.269531 299.957031 360.753906 299.957031 360.753906 302.949219 "/>
<path fill-rule="nonzero" fill="rgb(80%, 40%, 46.666667%)" fill-opacity="1" stroke-width="0.644238" stroke-linecap="round" stroke-linejoin="round" stroke="rgb(80%, 40%, 46.666667%)" stroke-opacity="1" stroke-miterlimit="10" d="M 451.074219 270.253906 C 451.074219 273.242188 446.589844 273.242188 446.589844 270.253906 C 446.589844 267.261719 451.074219 267.261719 451.074219 270.253906 "/>
<path fill-rule="nonzero" fill="rgb(26.666667%, 46.666667%, 66.666667%)" fill-opacity="1" stroke-width="0.644238" stroke-linecap="round" stroke-linejoin="round" stroke="rgb(26.666667%, 46.666667%, 66.666667%)" stroke-opacity="1" stroke-miterlimit="10" d="M 451.074219 287.644531 C 451.074219 290.632812 446.589844 290.632812 446.589844 287.644531 C 446.589844 284.652344 451.074219 284.652344 451.074219 287.644531 "/>
<path fill-rule="nonzero" fill="rgb(80%, 40%, 46.666667%)" fill-opacity="1" stroke-width="0.644238" stroke-linecap="round" stroke-linejoin="round" stroke="rgb(80%, 40%, 46.666667%)" stroke-opacity="1" stroke-miterlimit="10" d="M 631.714844 282.710938 C 631.714844 285.699219 627.226562 285.699219 627.226562 282.710938 C 627.226562 279.71875 631.714844 279.71875 631.714844 282.710938 "/>
<path fill-rule="nonzero" fill="rgb(26.666667%, 46.666667%, 66.666667%)" fill-opacity="1" stroke-width="0.644238" stroke-linecap="round" stroke-linejoin="round" stroke="rgb(26.666667%, 46.666667%, 66.666667%)" stroke-opacity="1" stroke-miterlimit="10" d="M 631.714844 240.992188 C 631.714844 243.984375 627.226562 243.984375 627.226562 240.992188 C 627.226562 238.003906 631.714844 238.003906 631.714844 240.992188 "/>
<g clip-path="url(#clip-42)">
<path fill="none" stroke-width="0.96998" stroke-linecap="butt" stroke-linejoin="round" stroke="rgb(92.156863%, 92.156863%, 92.156863%)" stroke-opacity="1" stroke-miterlimit="10" d="M 344.960938 469.894531 L 643.019531 469.894531 "/>
</g>
<g clip-path="url(#clip-43)">
<path fill="none" stroke-width="0.96998" stroke-linecap="butt" stroke-linejoin="round" stroke="rgb(92.156863%, 92.156863%, 92.156863%)" stroke-opacity="1" stroke-miterlimit="10" d="M 344.960938 429.191406 L 643.019531 429.191406 "/>
</g>
<g clip-path="url(#clip-44)">
<path fill="none" stroke-width="0.96998" stroke-linecap="butt" stroke-linejoin="round" stroke="rgb(92.156863%, 92.156863%, 92.156863%)" stroke-opacity="1" stroke-miterlimit="10" d="M 344.960938 388.484375 L 643.019531 388.484375 "/>
</g>
<g clip-path="url(#clip-45)">
<path fill="none" stroke-width="0.96998" stroke-linecap="butt" stroke-linejoin="round" stroke="rgb(92.156863%, 92.156863%, 92.156863%)" stroke-opacity="1" stroke-miterlimit="10" d="M 344.960938 347.78125 L 643.019531 347.78125 "/>
</g>
<g clip-path="url(#clip-46)">
<path fill="none" stroke-width="0.96998" stroke-linecap="butt" stroke-linejoin="round" stroke="rgb(92.156863%, 92.156863%, 92.156863%)" stroke-opacity="1" stroke-miterlimit="10" d="M 358.511719 476.078125 L 358.511719 340.089844 "/>
</g>
<g clip-path="url(#clip-47)">
<path fill="none" stroke-width="0.96998" stroke-linecap="butt" stroke-linejoin="round" stroke="rgb(92.156863%, 92.156863%, 92.156863%)" stroke-opacity="1" stroke-miterlimit="10" d="M 448.832031 476.078125 L 448.832031 340.089844 "/>
</g>
<g clip-path="url(#clip-48)">
<path fill="none" stroke-width="0.96998" stroke-linecap="butt" stroke-linejoin="round" stroke="rgb(92.156863%, 92.156863%, 92.156863%)" stroke-opacity="1" stroke-miterlimit="10" d="M 629.46875 476.078125 L 629.46875 340.089844 "/>
</g>
<path fill-rule="nonzero" fill="rgb(80%, 40%, 46.666667%)" fill-opacity="0.14902" d="M 358.511719 366.777344 L 448.832031 385.574219 L 629.46875 357.464844 L 629.46875 406.183594 L 448.832031 421.789062 L 358.511719 407.480469 Z M 358.511719 366.777344 "/>
<path fill-rule="nonzero" fill="rgb(26.666667%, 46.666667%, 66.666667%)" fill-opacity="0.14902" d="M 358.511719 346.273438 L 448.832031 371.023438 L 629.46875 469.894531 L 448.832031 413.535156 L 358.511719 396.371094 Z M 358.511719 346.273438 "/>
<path fill="none" stroke-width="1.280374" stroke-linecap="butt" stroke-linejoin="round" stroke="rgb(80%, 40%, 46.666667%)" stroke-opacity="1" stroke-miterlimit="10" d="M 358.511719 386.675781 L 448.832031 403.480469 L 629.46875 382.378906 "/>
<path fill="none" stroke-width="1.280374" stroke-linecap="butt" stroke-linejoin="round" stroke="rgb(26.666667%, 46.666667%, 66.666667%)" stroke-opacity="1" stroke-miterlimit="10" d="M 358.511719 370.394531 L 448.832031 392.1875 L 629.46875 469.894531 "/>
<path fill-rule="nonzero" fill="rgb(80%, 40%, 46.666667%)" fill-opacity="1" stroke-width="0.644238" stroke-linecap="round" stroke-linejoin="round" stroke="rgb(80%, 40%, 46.666667%)" stroke-opacity="1" stroke-miterlimit="10" d="M 360.753906 386.675781 C 360.753906 389.667969 356.269531 389.667969 356.269531 386.675781 C 356.269531 383.6875 360.753906 383.6875 360.753906 386.675781 "/>
<path fill-rule="nonzero" fill="rgb(26.666667%, 46.666667%, 66.666667%)" fill-opacity="1" stroke-width="0.644238" stroke-linecap="round" stroke-linejoin="round" stroke="rgb(26.666667%, 46.666667%, 66.666667%)" stroke-opacity="1" stroke-miterlimit="10" d="M 360.753906 370.394531 C 360.753906 373.382812 356.269531 373.382812 356.269531 370.394531 C 356.269531 367.402344 360.753906 367.402344 360.753906 370.394531 "/>
<path fill-rule="nonzero" fill="rgb(80%, 40%, 46.666667%)" fill-opacity="1" stroke-width="0.644238" stroke-linecap="round" stroke-linejoin="round" stroke="rgb(80%, 40%, 46.666667%)" stroke-opacity="1" stroke-miterlimit="10" d="M 451.074219 403.480469 C 451.074219 406.472656 446.589844 406.472656 446.589844 403.480469 C 446.589844 400.492188 451.074219 400.492188 451.074219 403.480469 "/>
<path fill-rule="nonzero" fill="rgb(26.666667%, 46.666667%, 66.666667%)" fill-opacity="1" stroke-width="0.644238" stroke-linecap="round" stroke-linejoin="round" stroke="rgb(26.666667%, 46.666667%, 66.666667%)" stroke-opacity="1" stroke-miterlimit="10" d="M 451.074219 392.1875 C 451.074219 395.175781 446.589844 395.175781 446.589844 392.1875 C 446.589844 389.195312 451.074219 389.195312 451.074219 392.1875 "/>
<path fill-rule="nonzero" fill="rgb(80%, 40%, 46.666667%)" fill-opacity="1" stroke-width="0.644238" stroke-linecap="round" stroke-linejoin="round" stroke="rgb(80%, 40%, 46.666667%)" stroke-opacity="1" stroke-miterlimit="10" d="M 631.714844 382.378906 C 631.714844 385.371094 627.226562 385.371094 627.226562 382.378906 C 627.226562 379.390625 631.714844 379.390625 631.714844 382.378906 "/>
<path fill-rule="nonzero" fill="rgb(26.666667%, 46.666667%, 66.666667%)" fill-opacity="1" stroke-width="0.644238" stroke-linecap="round" stroke-linejoin="round" stroke="rgb(26.666667%, 46.666667%, 66.666667%)" stroke-opacity="1" stroke-miterlimit="10" d="M 631.714844 469.894531 C 631.714844 472.886719 627.226562 472.886719 627.226562 469.894531 C 627.226562 466.90625 631.714844 466.90625 631.714844 469.894531 "/>
<g clip-path="url(#clip-49)">
<path fill="none" stroke-width="0.96998" stroke-linecap="butt" stroke-linejoin="round" stroke="rgb(92.156863%, 92.156863%, 92.156863%)" stroke-opacity="1" stroke-miterlimit="10" d="M 344.960938 588.382812 L 643.019531 588.382812 "/>
</g>
<g clip-path="url(#clip-50)">
<path fill="none" stroke-width="0.96998" stroke-linecap="butt" stroke-linejoin="round" stroke="rgb(92.156863%, 92.156863%, 92.156863%)" stroke-opacity="1" stroke-miterlimit="10" d="M 344.960938 554.667969 L 643.019531 554.667969 "/>
</g>
<g clip-path="url(#clip-51)">
<path fill="none" stroke-width="0.96998" stroke-linecap="butt" stroke-linejoin="round" stroke="rgb(92.156863%, 92.156863%, 92.156863%)" stroke-opacity="1" stroke-miterlimit="10" d="M 344.960938 520.953125 L 643.019531 520.953125 "/>
</g>
<g clip-path="url(#clip-52)">
<path fill="none" stroke-width="0.96998" stroke-linecap="butt" stroke-linejoin="round" stroke="rgb(92.156863%, 92.156863%, 92.156863%)" stroke-opacity="1" stroke-miterlimit="10" d="M 344.960938 487.238281 L 643.019531 487.238281 "/>
</g>
<g clip-path="url(#clip-53)">
<path fill="none" stroke-width="0.96998" stroke-linecap="butt" stroke-linejoin="round" stroke="rgb(92.156863%, 92.156863%, 92.156863%)" stroke-opacity="1" stroke-miterlimit="10" d="M 358.511719 617.042969 L 358.511719 481.058594 "/>
</g>
<g clip-path="url(#clip-54)">
<path fill="none" stroke-width="0.96998" stroke-linecap="butt" stroke-linejoin="round" stroke="rgb(92.156863%, 92.156863%, 92.156863%)" stroke-opacity="1" stroke-miterlimit="10" d="M 448.832031 617.042969 L 448.832031 481.058594 "/>
</g>
<g clip-path="url(#clip-55)">
<path fill="none" stroke-width="0.96998" stroke-linecap="butt" stroke-linejoin="round" stroke="rgb(92.156863%, 92.156863%, 92.156863%)" stroke-opacity="1" stroke-miterlimit="10" d="M 629.46875 617.042969 L 629.46875 481.058594 "/>
</g>
<path fill-rule="nonzero" fill="rgb(80%, 40%, 46.666667%)" fill-opacity="0.14902" d="M 358.511719 592.949219 L 448.832031 588.707031 L 629.46875 586.792969 L 629.46875 596.382812 L 448.832031 597.875 L 358.511719 599.699219 Z M 358.511719 592.949219 "/>
<path fill-rule="nonzero" fill="rgb(26.666667%, 46.666667%, 66.666667%)" fill-opacity="0.14902" d="M 358.511719 593.492188 L 448.832031 595.671875 L 629.46875 602.175781 L 629.46875 610.863281 L 448.832031 601.636719 L 358.511719 599.984375 Z M 358.511719 593.492188 "/>
<path fill="none" stroke-width="1.280374" stroke-linecap="butt" stroke-linejoin="round" stroke="rgb(80%, 40%, 46.666667%)" stroke-opacity="1" stroke-miterlimit="10" d="M 358.511719 596.261719 L 448.832031 593.199219 L 629.46875 591.683594 "/>
<path fill="none" stroke-width="1.280374" stroke-linecap="butt" stroke-linejoin="round" stroke="rgb(26.666667%, 46.666667%, 66.666667%)" stroke-opacity="1" stroke-miterlimit="10" d="M 358.511719 596.703125 L 448.832031 598.761719 L 629.46875 606.710938 "/>
<path fill-rule="nonzero" fill="rgb(80%, 40%, 46.666667%)" fill-opacity="1" stroke-width="0.644238" stroke-linecap="round" stroke-linejoin="round" stroke="rgb(80%, 40%, 46.666667%)" stroke-opacity="1" stroke-miterlimit="10" d="M 360.753906 596.261719 C 360.753906 599.253906 356.269531 599.253906 356.269531 596.261719 C 356.269531 593.273438 360.753906 593.273438 360.753906 596.261719 "/>
<path fill-rule="nonzero" fill="rgb(26.666667%, 46.666667%, 66.666667%)" fill-opacity="1" stroke-width="0.644238" stroke-linecap="round" stroke-linejoin="round" stroke="rgb(26.666667%, 46.666667%, 66.666667%)" stroke-opacity="1" stroke-miterlimit="10" d="M 360.753906 596.703125 C 360.753906 599.691406 356.269531 599.691406 356.269531 596.703125 C 356.269531 593.710938 360.753906 593.710938 360.753906 596.703125 "/>
<path fill-rule="nonzero" fill="rgb(80%, 40%, 46.666667%)" fill-opacity="1" stroke-width="0.644238" stroke-linecap="round" stroke-linejoin="round" stroke="rgb(80%, 40%, 46.666667%)" stroke-opacity="1" stroke-miterlimit="10" d="M 451.074219 593.199219 C 451.074219 596.191406 446.589844 596.191406 446.589844 593.199219 C 446.589844 590.210938 451.074219 590.210938 451.074219 593.199219 "/>
<path fill-rule="nonzero" fill="rgb(26.666667%, 46.666667%, 66.666667%)" fill-opacity="1" stroke-width="0.644238" stroke-linecap="round" stroke-linejoin="round" stroke="rgb(26.666667%, 46.666667%, 66.666667%)" stroke-opacity="1" stroke-miterlimit="10" d="M 451.074219 598.761719 C 451.074219 601.753906 446.589844 601.753906 446.589844 598.761719 C 446.589844 595.773438 451.074219 595.773438 451.074219 598.761719 "/>
<path fill-rule="nonzero" fill="rgb(80%, 40%, 46.666667%)" fill-opacity="1" stroke-width="0.644238" stroke-linecap="round" stroke-linejoin="round" stroke="rgb(80%, 40%, 46.666667%)" stroke-opacity="1" stroke-miterlimit="10" d="M 631.714844 591.683594 C 631.714844 594.671875 627.226562 594.671875 627.226562 591.683594 C 627.226562 588.691406 631.714844 588.691406 631.714844 591.683594 "/>
<path fill-rule="nonzero" fill="rgb(26.666667%, 46.666667%, 66.666667%)" fill-opacity="1" stroke-width="0.644238" stroke-linecap="round" stroke-linejoin="round" stroke="rgb(26.666667%, 46.666667%, 66.666667%)" stroke-opacity="1" stroke-miterlimit="10" d="M 631.714844 606.710938 C 631.714844 609.703125 627.226562 609.703125 627.226562 606.710938 C 627.226562 603.722656 631.714844 603.722656 631.714844 606.710938 "/>
<g fill="rgb(10.196078%, 10.196078%, 10.196078%)" fill-opacity="1">
<use xlink:href="#glyph-0-0" x="167.953125" y="53.003906"/>
<use xlink:href="#glyph-0-1" x="172.953125" y="53.003906"/>
<use xlink:href="#glyph-0-2" x="176.953125" y="53.003906"/>
<use xlink:href="#glyph-0-3" x="180.953125" y="53.003906"/>
<use xlink:href="#glyph-0-4" x="186.953125" y="53.003906"/>
<use xlink:href="#glyph-0-5" x="190.953125" y="53.003906"/>
<use xlink:href="#glyph-0-6" x="193.953125" y="53.003906"/>
<use xlink:href="#glyph-0-7" x="197.953125" y="53.003906"/>
<use xlink:href="#glyph-0-8" x="199.953125" y="53.003906"/>
<use xlink:href="#glyph-0-9" x="203.953125" y="53.003906"/>
<use xlink:href="#glyph-0-10" x="207.953125" y="53.003906"/>
<use xlink:href="#glyph-0-1" x="209.953125" y="53.003906"/>
</g>
<g fill="rgb(10.196078%, 10.196078%, 10.196078%)" fill-opacity="1">
<use xlink:href="#glyph-0-11" x="461.492188" y="53.003906"/>
<use xlink:href="#glyph-0-12" x="465.492188" y="53.003906"/>
<use xlink:href="#glyph-0-13" x="472.492188" y="53.003906"/>
<use xlink:href="#glyph-0-14" x="475.492188" y="53.003906"/>
<use xlink:href="#glyph-0-15" x="482.492188" y="53.003906"/>
<use xlink:href="#glyph-0-16" x="484.492188" y="53.003906"/>
<use xlink:href="#glyph-0-7" x="488.492188" y="53.003906"/>
<use xlink:href="#glyph-0-17" x="490.492188" y="53.003906"/>
<use xlink:href="#glyph-0-7" x="494.492188" y="53.003906"/>
<use xlink:href="#glyph-0-18" x="496.492188" y="53.003906"/>
<use xlink:href="#glyph-0-19" x="500.492188" y="53.003906"/>
<use xlink:href="#glyph-0-20" x="502.492188" y="53.003906"/>
<use xlink:href="#glyph-0-18" x="506.492188" y="53.003906"/>
<use xlink:href="#glyph-0-7" x="510.492188" y="53.003906"/>
<use xlink:href="#glyph-0-8" x="512.492188" y="53.003906"/>
<use xlink:href="#glyph-0-9" x="516.492188" y="53.003906"/>
<use xlink:href="#glyph-0-10" x="520.492188" y="53.003906"/>
<use xlink:href="#glyph-0-1" x="522.492188" y="53.003906"/>
</g>
<g fill="rgb(10.196078%, 10.196078%, 10.196078%)" fill-opacity="1">
<use xlink:href="#glyph-1-0" x="15.796875" y="145.648438"/>
<use xlink:href="#glyph-1-1" x="15.796875" y="139.648438"/>
<use xlink:href="#glyph-1-2" x="15.796875" y="135.648438"/>
<use xlink:href="#glyph-1-3" x="15.796875" y="131.648438"/>
<use xlink:href="#glyph-1-4" x="15.796875" y="127.648438"/>
<use xlink:href="#glyph-1-5" x="15.796875" y="124.648438"/>
<use xlink:href="#glyph-1-6" x="15.796875" y="120.648438"/>
<use xlink:href="#glyph-1-3" x="15.796875" y="116.648438"/>
<use xlink:href="#glyph-1-7" x="15.796875" y="112.648438"/>
<use xlink:href="#glyph-1-8" x="15.796875" y="110.648438"/>
</g>
<g fill="rgb(10.196078%, 10.196078%, 10.196078%)" fill-opacity="1">
<use xlink:href="#glyph-1-9" x="15.796875" y="292.617188"/>
<use xlink:href="#glyph-1-10" x="15.796875" y="287.617188"/>
<use xlink:href="#glyph-1-11" x="15.796875" y="283.617188"/>
<use xlink:href="#glyph-1-4" x="15.796875" y="279.617188"/>
<use xlink:href="#glyph-1-12" x="15.796875" y="276.617188"/>
<use xlink:href="#glyph-1-1" x="15.796875" y="274.617188"/>
<use xlink:href="#glyph-1-11" x="15.796875" y="270.617188"/>
<use xlink:href="#glyph-1-13" x="15.796875" y="266.617188"/>
<use xlink:href="#glyph-1-7" x="15.796875" y="262.617188"/>
<use xlink:href="#glyph-1-4" x="15.796875" y="260.617188"/>
<use xlink:href="#glyph-1-5" x="15.796875" y="257.617188"/>
<use xlink:href="#glyph-1-14" x="15.796875" y="253.617188"/>
<use xlink:href="#glyph-1-3" x="15.796875" y="251.617188"/>
<use xlink:href="#glyph-1-7" x="15.796875" y="247.617188"/>
<use xlink:href="#glyph-1-15" x="15.796875" y="245.617188"/>
</g>
<g fill="rgb(10.196078%, 10.196078%, 10.196078%)" fill-opacity="1">
<use xlink:href="#glyph-1-16" x="15.796875" y="435.585938"/>
<use xlink:href="#glyph-1-4" x="15.796875" y="430.585938"/>
<use xlink:href="#glyph-1-5" x="15.796875" y="427.585938"/>
<use xlink:href="#glyph-1-6" x="15.796875" y="423.585938"/>
<use xlink:href="#glyph-1-17" x="15.796875" y="419.585938"/>
<use xlink:href="#glyph-1-3" x="15.796875" y="412.585938"/>
<use xlink:href="#glyph-1-18" x="15.796875" y="408.585938"/>
<use xlink:href="#glyph-1-14" x="15.796875" y="404.585938"/>
<use xlink:href="#glyph-1-5" x="15.796875" y="402.585938"/>
<use xlink:href="#glyph-1-14" x="15.796875" y="398.585938"/>
<use xlink:href="#glyph-1-12" x="15.796875" y="396.585938"/>
<use xlink:href="#glyph-1-1" x="15.796875" y="394.585938"/>
<use xlink:href="#glyph-1-18" x="15.796875" y="390.585938"/>
<use xlink:href="#glyph-1-7" x="15.796875" y="386.585938"/>
<use xlink:href="#glyph-1-15" x="15.796875" y="384.585938"/>
</g>
<g fill="rgb(10.196078%, 10.196078%, 10.196078%)" fill-opacity="1">
<use xlink:href="#glyph-1-19" x="15.796875" y="577.550781"/>
<use xlink:href="#glyph-1-3" x="15.796875" y="572.550781"/>
<use xlink:href="#glyph-1-5" x="15.796875" y="568.550781"/>
<use xlink:href="#glyph-1-4" x="15.796875" y="564.550781"/>
<use xlink:href="#glyph-1-7" x="15.796875" y="561.550781"/>
<use xlink:href="#glyph-1-5" x="15.796875" y="559.550781"/>
<use xlink:href="#glyph-1-20" x="15.796875" y="555.550781"/>
<use xlink:href="#glyph-1-12" x="15.796875" y="553.550781"/>
<use xlink:href="#glyph-1-6" x="15.796875" y="551.550781"/>
<use xlink:href="#glyph-1-18" x="15.796875" y="547.550781"/>
<use xlink:href="#glyph-1-17" x="15.796875" y="543.550781"/>
<use xlink:href="#glyph-1-3" x="15.796875" y="536.550781"/>
<use xlink:href="#glyph-1-18" x="15.796875" y="532.550781"/>
<use xlink:href="#glyph-1-14" x="15.796875" y="528.550781"/>
<use xlink:href="#glyph-1-7" x="15.796875" y="526.550781"/>
<use xlink:href="#glyph-1-8" x="15.796875" y="524.550781"/>
</g>
<g fill="rgb(30.196078%, 30.196078%, 30.196078%)" fill-opacity="1">
<use xlink:href="#glyph-0-21" x="53.472656" y="627.359375"/>
</g>
<g fill="rgb(30.196078%, 30.196078%, 30.196078%)" fill-opacity="1">
<use xlink:href="#glyph-0-20" x="143.792969" y="627.359375"/>
</g>
<g fill="rgb(30.196078%, 30.196078%, 30.196078%)" fill-opacity="1">
<use xlink:href="#glyph-0-22" x="324.433594" y="627.359375"/>
</g>
<g fill="rgb(30.196078%, 30.196078%, 30.196078%)" fill-opacity="1">
<use xlink:href="#glyph-0-21" x="356.511719" y="627.359375"/>
</g>
<g fill="rgb(30.196078%, 30.196078%, 30.196078%)" fill-opacity="1">
<use xlink:href="#glyph-0-20" x="446.832031" y="627.359375"/>
</g>
<g fill="rgb(30.196078%, 30.196078%, 30.196078%)" fill-opacity="1">
<use xlink:href="#glyph-0-22" x="627.46875" y="627.359375"/>
</g>
<g fill="rgb(30.196078%, 30.196078%, 30.196078%)" fill-opacity="1">
<use xlink:href="#glyph-0-18" x="23.441406" y="172.398438"/>
<use xlink:href="#glyph-0-19" x="27.441406" y="172.398438"/>
<use xlink:href="#glyph-0-21" x="29.441406" y="172.398438"/>
<use xlink:href="#glyph-0-22" x="33.441406" y="172.398438"/>
</g>
<g fill="rgb(30.196078%, 30.196078%, 30.196078%)" fill-opacity="1">
<use xlink:href="#glyph-0-18" x="23.441406" y="136.339844"/>
<use xlink:href="#glyph-0-19" x="27.441406" y="136.339844"/>
<use xlink:href="#glyph-0-22" x="29.441406" y="136.339844"/>
<use xlink:href="#glyph-0-18" x="33.441406" y="136.339844"/>
</g>
<g fill="rgb(30.196078%, 30.196078%, 30.196078%)" fill-opacity="1">
<use xlink:href="#glyph-0-18" x="23.441406" y="100.285156"/>
<use xlink:href="#glyph-0-19" x="27.441406" y="100.285156"/>
<use xlink:href="#glyph-0-23" x="29.441406" y="100.285156"/>
<use xlink:href="#glyph-0-22" x="33.441406" y="100.285156"/>
</g>
<g fill="rgb(30.196078%, 30.196078%, 30.196078%)" fill-opacity="1">
<use xlink:href="#glyph-0-24" x="23.441406" y="64.226562"/>
<use xlink:href="#glyph-0-19" x="27.441406" y="64.226562"/>
<use xlink:href="#glyph-0-18" x="29.441406" y="64.226562"/>
<use xlink:href="#glyph-0-18" x="33.441406" y="64.226562"/>
</g>
<g fill="rgb(30.196078%, 30.196078%, 30.196078%)" fill-opacity="1">
<use xlink:href="#glyph-0-18" x="27.441406" y="333.757812"/>
<use xlink:href="#glyph-0-19" x="31.441406" y="333.757812"/>
<use xlink:href="#glyph-0-25" x="33.441406" y="333.757812"/>
</g>
<g fill="rgb(30.196078%, 30.196078%, 30.196078%)" fill-opacity="1">
<use xlink:href="#glyph-0-18" x="27.441406" y="298.785156"/>
<use xlink:href="#glyph-0-19" x="31.441406" y="298.785156"/>
<use xlink:href="#glyph-0-23" x="33.441406" y="298.785156"/>
</g>
<g fill="rgb(30.196078%, 30.196078%, 30.196078%)" fill-opacity="1">
<use xlink:href="#glyph-0-18" x="27.441406" y="263.8125"/>
<use xlink:href="#glyph-0-19" x="31.441406" y="263.8125"/>
<use xlink:href="#glyph-0-26" x="33.441406" y="263.8125"/>
</g>
<g fill="rgb(30.196078%, 30.196078%, 30.196078%)" fill-opacity="1">
<use xlink:href="#glyph-0-18" x="27.441406" y="228.835938"/>
<use xlink:href="#glyph-0-19" x="31.441406" y="228.835938"/>
<use xlink:href="#glyph-0-27" x="33.441406" y="228.835938"/>
</g>
<g fill="rgb(30.196078%, 30.196078%, 30.196078%)" fill-opacity="1">
<use xlink:href="#glyph-0-24" x="27.441406" y="472.726562"/>
<use xlink:href="#glyph-0-19" x="31.441406" y="472.726562"/>
<use xlink:href="#glyph-0-18" x="33.441406" y="472.726562"/>
</g>
<g fill="rgb(30.196078%, 30.196078%, 30.196078%)" fill-opacity="1">
<use xlink:href="#glyph-0-24" x="27.441406" y="432.023438"/>
<use xlink:href="#glyph-0-19" x="31.441406" y="432.023438"/>
<use xlink:href="#glyph-0-22" x="33.441406" y="432.023438"/>
</g>
<g fill="rgb(30.196078%, 30.196078%, 30.196078%)" fill-opacity="1">
<use xlink:href="#glyph-0-21" x="27.441406" y="391.316406"/>
<use xlink:href="#glyph-0-19" x="31.441406" y="391.316406"/>
<use xlink:href="#glyph-0-18" x="33.441406" y="391.316406"/>
</g>
<g fill="rgb(30.196078%, 30.196078%, 30.196078%)" fill-opacity="1">
<use xlink:href="#glyph-0-21" x="27.441406" y="350.613281"/>
<use xlink:href="#glyph-0-19" x="31.441406" y="350.613281"/>
<use xlink:href="#glyph-0-22" x="33.441406" y="350.613281"/>
</g>
<g fill="rgb(30.196078%, 30.196078%, 30.196078%)" fill-opacity="1">
<use xlink:href="#glyph-0-18" x="23.441406" y="591.214844"/>
<use xlink:href="#glyph-0-19" x="27.441406" y="591.214844"/>
<use xlink:href="#glyph-0-21" x="29.441406" y="591.214844"/>
<use xlink:href="#glyph-0-22" x="33.441406" y="591.214844"/>
</g>
<g fill="rgb(30.196078%, 30.196078%, 30.196078%)" fill-opacity="1">
<use xlink:href="#glyph-0-18" x="23.441406" y="557.5"/>
<use xlink:href="#glyph-0-19" x="27.441406" y="557.5"/>
<use xlink:href="#glyph-0-22" x="29.441406" y="557.5"/>
<use xlink:href="#glyph-0-18" x="33.441406" y="557.5"/>
</g>
<g fill="rgb(30.196078%, 30.196078%, 30.196078%)" fill-opacity="1">
<use xlink:href="#glyph-0-18" x="23.441406" y="523.785156"/>
<use xlink:href="#glyph-0-19" x="27.441406" y="523.785156"/>
<use xlink:href="#glyph-0-23" x="29.441406" y="523.785156"/>
<use xlink:href="#glyph-0-22" x="33.441406" y="523.785156"/>
</g>
<g fill="rgb(30.196078%, 30.196078%, 30.196078%)" fill-opacity="1">
<use xlink:href="#glyph-0-24" x="23.441406" y="490.070312"/>
<use xlink:href="#glyph-0-19" x="27.441406" y="490.070312"/>
<use xlink:href="#glyph-0-18" x="29.441406" y="490.070312"/>
<use xlink:href="#glyph-0-18" x="33.441406" y="490.070312"/>
</g>
<g fill="rgb(0%, 0%, 0%)" fill-opacity="1">
<use xlink:href="#glyph-2-0" x="304.472656" y="639.30957"/>
<use xlink:href="#glyph-2-1" x="312.472656" y="639.30957"/>
<use xlink:href="#glyph-2-2" x="314.472656" y="639.30957"/>
<use xlink:href="#glyph-2-3" x="320.472656" y="639.30957"/>
<use xlink:href="#glyph-2-4" x="326.472656" y="639.30957"/>
<use xlink:href="#glyph-2-5" x="331.472656" y="639.30957"/>
<use xlink:href="#glyph-2-6" x="333.472656" y="639.30957"/>
<use xlink:href="#glyph-2-7" x="339.472656" y="639.30957"/>
<use xlink:href="#glyph-2-8" x="344.472656" y="639.30957"/>
<use xlink:href="#glyph-2-9" x="347.472656" y="639.30957"/>
<use xlink:href="#glyph-2-10" x="353.472656" y="639.30957"/>
<use xlink:href="#glyph-2-3" x="356.472656" y="639.30957"/>
<use xlink:href="#glyph-2-7" x="362.472656" y="639.30957"/>
<use xlink:href="#glyph-2-1" x="367.472656" y="639.30957"/>
<use xlink:href="#glyph-2-11" x="369.472656" y="639.30957"/>
<use xlink:href="#glyph-2-9" x="374.472656" y="639.30957"/>
</g>
<path fill-rule="nonzero" fill="rgb(80%, 40%, 46.666667%)" fill-opacity="0.14902" d="M 286.863281 26.597656 L 302.855469 26.597656 L 302.855469 10.605469 L 286.863281 10.605469 Z M 286.863281 26.597656 "/>
<path fill="none" stroke-width="1.280374" stroke-linecap="butt" stroke-linejoin="round" stroke="rgb(80%, 40%, 46.666667%)" stroke-opacity="1" stroke-miterlimit="10" d="M 287.949219 18.601562 L 301.773438 18.601562 "/>
<path fill-rule="nonzero" fill="rgb(80%, 40%, 46.666667%)" fill-opacity="1" stroke-width="0.644238" stroke-linecap="round" stroke-linejoin="round" stroke="rgb(80%, 40%, 46.666667%)" stroke-opacity="1" stroke-miterlimit="10" d="M 297.101562 18.601562 C 297.101562 21.59375 292.617188 21.59375 292.617188 18.601562 C 292.617188 15.613281 297.101562 15.613281 297.101562 18.601562 "/>
<path fill-rule="nonzero" fill="rgb(26.666667%, 46.666667%, 66.666667%)" fill-opacity="0.14902" d="M 350.105469 26.597656 L 366.097656 26.597656 L 366.097656 10.605469 L 350.105469 10.605469 Z M 350.105469 26.597656 "/>
<path fill="none" stroke-width="1.280374" stroke-linecap="butt" stroke-linejoin="round" stroke="rgb(26.666667%, 46.666667%, 66.666667%)" stroke-opacity="1" stroke-miterlimit="10" d="M 351.191406 18.601562 L 365.015625 18.601562 "/>
<path fill-rule="nonzero" fill="rgb(26.666667%, 46.666667%, 66.666667%)" fill-opacity="1" stroke-width="0.644238" stroke-linecap="round" stroke-linejoin="round" stroke="rgb(26.666667%, 46.666667%, 66.666667%)" stroke-opacity="1" stroke-miterlimit="10" d="M 360.34375 18.601562 C 360.34375 21.59375 355.859375 21.59375 355.859375 18.601562 C 355.859375 15.613281 360.34375 15.613281 360.34375 18.601562 "/>
<g fill="rgb(0%, 0%, 0%)" fill-opacity="1">
<use xlink:href="#glyph-0-28" x="308.480469" y="21.433594"/>
<use xlink:href="#glyph-0-16" x="314.480469" y="21.433594"/>
<use xlink:href="#glyph-0-29" x="318.480469" y="21.433594"/>
<use xlink:href="#glyph-0-30" x="322.480469" y="21.433594"/>
<use xlink:href="#glyph-0-4" x="324.480469" y="21.433594"/>
<use xlink:href="#glyph-0-31" x="328.480469" y="21.433594"/>
<use xlink:href="#glyph-0-32" x="332.480469" y="21.433594"/>
<use xlink:href="#glyph-0-1" x="336.480469" y="21.433594"/>
<use xlink:href="#glyph-0-6" x="340.480469" y="21.433594"/>
</g>
<g fill="rgb(0%, 0%, 0%)" fill-opacity="1">
<use xlink:href="#glyph-0-33" x="371.722656" y="21.433594"/>
<use xlink:href="#glyph-0-1" x="376.722656" y="21.433594"/>
<use xlink:href="#glyph-0-9" x="380.722656" y="21.433594"/>
<use xlink:href="#glyph-0-5" x="384.722656" y="21.433594"/>
<use xlink:href="#glyph-0-7" x="387.722656" y="21.433594"/>
<use xlink:href="#glyph-0-34" x="389.722656" y="21.433594"/>
<use xlink:href="#glyph-0-21" x="394.722656" y="21.433594"/>
</g>
</svg>
